<?xml version="1.0" encoding="UTF-8" standalone="no"?>
<svg width="296.926mm" height="209.973mm"
 viewBox="0 0 3507 2480"
 xmlns="http://www.w3.org/2000/svg" xmlns:xlink="http://www.w3.org/1999/xlink"  version="1.2" baseProfile="tiny">
<desc>Generated with Qt</desc>
<defs>
</defs>
<g fill="none" stroke="black" stroke-width="1" fill-rule="evenodd" stroke-linecap="square" stroke-linejoin="bevel" >

<g fill="none" stroke="#000000" stroke-opacity="1" stroke-width="1" stroke-linecap="square" stroke-linejoin="bevel" transform="matrix(1,0,0,1,0,0)"
font-family="MS Shell Dlg 2" font-size="32.5" font-weight="400" font-style="normal" 
>
</g>

<g fill="none" stroke="#000000" stroke-opacity="1" stroke-width="1" stroke-linecap="square" stroke-linejoin="bevel" transform="matrix(11.8081,0,0,11.8081,0,0)"
font-family="MS Shell Dlg 2" font-size="32.5" font-weight="400" font-style="normal" 
>
</g>

<g fill="#ffffff" fill-opacity="1" stroke="none" transform="matrix(11.8081,0,0,11.8081,0,0)"
font-family="MS Shell Dlg 2" font-size="32.5" font-weight="400" font-style="normal" 
>
<path vector-effect="none" fill-rule="evenodd" d="M-0.0846667,-0.0846667 L297.085,-0.0846667 L297.085,210.085 L-0.0846667,210.085 L-0.0846667,-0.0846667"/>
</g>

<g fill="none" stroke="#000000" stroke-opacity="1" stroke-width="1" stroke-linecap="square" stroke-linejoin="bevel" transform="matrix(11.8081,0,0,11.8081,0,0)"
font-family="MS Shell Dlg 2" font-size="32.5" font-weight="400" font-style="normal" 
>
</g>

<g fill="none" stroke="#000000" stroke-opacity="1" stroke-width="1" stroke-linecap="square" stroke-linejoin="bevel" transform="matrix(11.8081,0,0,11.8081,0,0)"
font-family="MS Shell Dlg 2" font-size="32.5" font-weight="400" font-style="normal" 
>
</g>

<g fill="none" stroke="#000000" stroke-opacity="1" stroke-width="1" stroke-linecap="square" stroke-linejoin="bevel" transform="matrix(11.8081,0,0,11.8081,0,0)"
font-family="MS Shell Dlg 2" font-size="32.5" font-weight="400" font-style="normal" 
>
</g>

<g fill="none" stroke="#000000" stroke-opacity="1" stroke-width="1" stroke-linecap="square" stroke-linejoin="bevel" transform="matrix(11.8081,0,0,11.8081,0,0)"
font-family="MS Shell Dlg 2" font-size="32.5" font-weight="400" font-style="normal" 
>
</g>

<g fill="#ffffff" fill-opacity="1" stroke="none" transform="matrix(11.8081,0,0,11.8081,0,0)"
font-family="MS Shell Dlg 2" font-size="32.5" font-weight="400" font-style="normal" 
>
<path vector-effect="non-scaling-stroke" fill-rule="evenodd" d="M0,0 L297,0 L297,209 L0,209 L0,0"/>
</g>

<g fill="#cf98d9" fill-opacity="0.588235" stroke="#000000" stroke-opacity="0.588235" stroke-width="0.26" stroke-linecap="square" stroke-linejoin="bevel" transform="matrix(11.8081,0,0,11.8081,0,0)"
font-family="MS Shell Dlg 2" font-size="32.5" font-weight="400" font-style="normal" 
>
<path vector-effect="none" fill-rule="evenodd" d="M98.8422,66.5241 L98.8465,66.2305 L98.2742,66.2305 L98.2827,65.9401 L97.9933,65.9401 L98.0018,65.356 L97.7189,65.356 L97.721,65.0624 L97.1487,65.0624 L97.1529,64.7688 L96.5806,64.7592 L96.5849,64.4784 L96.3019,64.4656 L96.3062,64.1847 L95.7338,64.1752 L95.7381,63.8815 L95.4487,63.8815 L95.4573,63.5879 L95.17,63.5879 L95.1743,63.2975 L94.8892,63.2975 L94.8977,62.7262 L94.6126,62.7262 L94.6211,62.1421 L94.3339,62.1421 L94.3488,61.2772 L94.0616,61.2772 L94.0743,60.7027 L93.785,60.6932 L93.7935,60.1187 L93.5105,60.1187 L93.5148,59.8282 L93.2297,59.8282 L93.2382,59.2537 L92.9488,59.2442 L92.9573,58.9633 L92.6701,58.9505 L92.6744,58.6697 L92.3893,58.6601 L92.3935,58.3792 L91.8212,58.3665 L91.8255,58.0728 L91.2531,58.0728 L91.2574,57.7824 L90.9702,57.7824 L90.9766,57.4888 L91.2617,57.4888 L91.2659,57.2111 L91.5531,57.2111 L91.5574,56.9302 L91.8467,56.9302 L91.8489,56.6366 L92.4212,56.6493 L92.4254,56.3685 L92.7148,56.3685 L92.7191,56.078 L93.002,56.0908 L93.0063,55.7972 L93.5786,55.8099 L93.5871,55.5163 L93.8701,55.5291 L93.8743,55.2386 L94.4467,55.2482 L94.4552,54.9577 L94.7403,54.9705 L94.7424,54.6769 L95.3147,54.6896 L95.3232,54.4088 L95.8955,54.4088 L95.8998,54.1279 L96.1849,54.1279 L96.187,53.8502 L96.7636,53.8502 L96.7678,53.5693 L97.3402,53.5821 L97.3444,53.2885 L97.6295,53.2885 L97.6359,53.0076 L98.2082,53.0204 L98.2125,52.7299 L98.7848,52.7427 L98.789,52.449 L99.3614,52.4618 L99.3656,52.1681 L99.9379,52.1809 L99.9465,51.9 L100.229,51.9 L100.234,51.6096 L100.521,51.6224 L100.525,51.3287 L100.815,51.3415 L100.806,51.6224 L101.093,51.6319 L101.091,51.9128 L101.661,51.9256 L101.659,52.2065 L101.942,52.2192 L101.938,52.4969 L102.227,52.5097 L102.219,52.7905 L102.506,52.8033 L102.502,53.081 L102.787,53.0938 L102.783,53.3746 L103.07,53.3874 L103.061,53.6651 L103.638,53.6779 L103.631,53.9715 L104.491,53.9843 L104.487,54.2619 L105.631,54.2875 L105.627,54.5811 L107.344,54.6035 L107.336,55.1748 L107.619,55.1875 L107.612,55.762 L107.895,55.762 L107.882,56.6238 L108.167,56.6238 L108.159,57.1983 L108.444,57.2111 L108.427,58.3537 L107.855,58.3409 L107.85,58.6346 L107.274,58.6218 L107.27,58.9154 L106.697,58.9027 L106.695,59.1835 L106.123,59.1835 L106.119,59.4612 L105.546,59.4484 L105.542,59.7421 L105.253,59.7421 L105.251,60.0229 L104.678,60.0102 L104.674,60.3006 L104.385,60.3006 L104.38,60.5815 L104.093,60.5815 L104.089,60.8623 L103.806,60.8623 L103.793,61.4336 L103.508,61.4336 L103.497,62.0081 L103.212,62.0081 L103.195,62.8602 L102.912,62.8602 L102.908,63.1379 L102.621,63.1379 L102.617,63.4315 L102.327,63.4188 L102.323,63.7124 L101.751,63.6996 L101.749,63.9901 L101.463,63.9805 L101.455,64.2709 L101.172,64.2581 L101.168,64.5518 L100.595,64.539 L100.587,64.8326 L100.302,64.8199 L100.3,65.1103 L100.01,65.1103 L100.002,65.6848 L99.7145,65.672 L99.7103,65.9624 L99.4273,65.9624 L99.4146,66.5369 L98.8422,66.5241"/>
<path vector-effect="none" fill-rule="evenodd" d="M101.034,72.5879 L101.038,72.307 L99.6039,72.2815 L99.6124,71.9911 L99.3252,71.9911 L99.3784,68.8252 L99.089,68.8252 L99.1252,66.8146 L98.838,66.805 L98.855,65.9528 L99.138,65.9528 L99.1422,65.672 L99.4294,65.672 L99.438,65.0975 L99.7273,65.0975 L99.7337,64.5262 L100.023,64.5262 L100.027,64.2454 L100.6,64.2581 L100.604,63.9677 L100.887,63.9677 L100.895,63.6869 L101.178,63.6869 L101.183,63.406 L101.472,63.406 L101.476,63.1156 L101.763,63.1251 L101.768,62.8347 L102.053,62.8475 L102.055,62.5539 L102.344,62.5666 L102.353,61.9826 L102.64,61.9953 L102.644,61.7017 L102.931,61.7145 L102.936,61.4208 L103.221,61.4208 L103.208,62.2858 L103.493,62.2858 L103.459,64.3092 L103.748,64.3092 L103.736,64.8805 L104.025,64.8805 L104.012,65.4645 L104.299,65.4645 L104.295,65.755 L104.868,65.755 L104.863,66.0486 L108.297,66.1092 L108.301,65.8188 L109.161,65.8284 L109.165,65.5507 L109.45,65.5507 L109.457,65.2699 L110.029,65.2699 L110.033,64.989 L110.318,64.989 L110.327,64.7082 L110.61,64.7082 L110.614,64.4177 L110.901,64.4305 L110.906,64.1369 L111.195,64.1496 L111.203,63.5656 L111.486,63.5783 L111.499,63.0039 L111.782,63.0039 L111.786,62.7134 L111.503,62.7134 L111.514,61.8485 L111.231,61.8485 L111.244,60.9836 L110.959,60.9836 L110.963,60.6932 L110.68,60.6932 L110.686,60.1187 L110.399,60.1059 L110.412,59.5346 L110.984,59.5474 L110.98,59.8282 L111.263,59.841 L111.259,60.1187 L111.548,60.1314 L111.54,60.4123 L112.112,60.4251 L112.108,60.7155 L112.395,60.7155 L112.391,61.0091 L112.963,61.0219 L112.957,61.2996 L113.244,61.3123 L113.24,61.5932 L113.812,61.606 L113.808,61.8836 L114.093,61.8964 L114.088,62.1773 L113.803,62.1773 L113.795,62.4709 L113.512,62.4581 L113.508,62.7485 L113.22,62.7358 L113.212,63.323 L112.923,63.3103 L112.916,63.8815 L112.627,63.8815 L112.618,64.4528 L112.331,64.4528 L112.323,65.0273 L112.04,65.0145 L112.027,65.5986 L111.742,65.5858 L111.731,66.1571 L111.446,66.1571 L111.429,67.022 L111.146,67.0092 L111.133,67.5933 L110.85,67.5837 L110.846,67.8741 L110.557,67.8614 L110.552,68.155 L110.265,68.155 L110.261,68.4358 L109.978,68.4358 L109.974,68.7135 L109.684,68.7135 L109.68,68.9943 L109.108,68.9943 L109.106,69.2752 L108.816,69.2752 L108.812,69.556 L108.525,69.556 L108.521,69.8464 L108.236,69.8337 L108.231,70.1273 L107.944,70.1145 L107.94,70.4081 L107.653,70.4081 L107.648,70.6858 L107.363,70.6858 L107.355,70.9666 L107.072,70.9666 L107.067,71.2602 L106.78,71.2475 L106.776,71.5379 L106.491,71.5283 L106.482,71.8187 L106.199,71.8187 L106.187,72.39 L105.904,72.3804 L105.899,72.6708 L101.034,72.5879"/>
<path vector-effect="none" fill-rule="evenodd" d="M110.123,59.5346 L110.127,59.2442 L110.416,59.2537 L110.412,59.5346 L110.123,59.5346"/>
<path vector-effect="none" fill-rule="evenodd" d="M109.844,59.2442 L109.848,58.9505 L110.135,58.9633 L110.127,59.2442 L109.844,59.2442"/>
<path vector-effect="none" fill-rule="evenodd" d="M108.708,58.6473 L108.712,58.3537 L109.282,58.3665 L109.28,58.6601 L108.708,58.6473"/>
<path vector-effect="none" fill-rule="evenodd" d="M106.138,58.3186 L106.142,58.025 L106.427,58.0377 L106.431,57.7441 L106.719,57.7569 L106.723,57.4664 L107.01,57.4664 L107.014,57.1855 L107.587,57.1983 L107.582,57.476 L107.867,57.4888 L107.863,57.7696 L108.436,57.7824 L108.431,58.0633 L108.714,58.0728 L108.712,58.3537 L106.138,58.3186"/>
<path vector-effect="none" fill-rule="evenodd" d="M101.034,72.5879 L101.038,72.307 L99.6039,72.2815 L99.6124,71.9911 L99.3252,71.9911 L99.3784,68.8252 L99.089,68.8252 L99.1252,66.8146 L98.838,66.805 L98.855,65.9528 L99.138,65.9528 L99.1422,65.672 L99.4294,65.672 L99.438,65.0975 L99.7273,65.0975 L99.7337,64.5262 L100.023,64.5262 L100.027,64.2454 L100.6,64.2581 L100.604,63.9677 L100.887,63.9677 L100.895,63.6869 L101.178,63.6869 L101.183,63.406 L101.472,63.406 L101.476,63.1156 L101.763,63.1251 L101.768,62.8347 L102.053,62.8475 L102.055,62.5539 L102.344,62.5666 L102.353,61.9826 L102.64,61.9953 L102.644,61.7017 L102.931,61.7145 L102.936,61.4208 L103.221,61.4208 L103.208,62.2858 L103.493,62.2858 L103.459,64.3092 L103.748,64.3092 L103.736,64.8805 L104.025,64.8805 L104.012,65.4645 L104.299,65.4645 L104.295,65.755 L104.868,65.755 L104.863,66.0486 L108.297,66.1092 L108.301,65.8188 L109.161,65.8284 L109.165,65.5507 L109.45,65.5507 L109.457,65.2699 L110.029,65.2699 L110.033,64.989 L110.318,64.989 L110.327,64.7082 L110.61,64.7082 L110.614,64.4177 L110.901,64.4305 L110.906,64.1369 L111.195,64.1496 L111.203,63.5656 L111.486,63.5783 L111.499,63.0039 L111.782,63.0039 L111.786,62.7134 L111.503,62.7134 L111.514,61.8485 L111.231,61.8485 L111.244,60.9836 L110.959,60.9836 L110.963,60.6932 L110.68,60.6932 L110.686,60.1187 L110.399,60.1059 L110.412,59.5346 L110.984,59.5474 L110.98,59.8282 L111.263,59.841 L111.259,60.1187 L111.548,60.1314 L111.54,60.4123 L112.112,60.4251 L112.108,60.7155 L112.395,60.7155 L112.391,61.0091 L112.963,61.0219 L112.957,61.2996 L113.244,61.3123 L113.24,61.5932 L113.812,61.606 L113.808,61.8836 L114.093,61.8964 L114.088,62.1773 L113.803,62.1773 L113.795,62.4709 L113.512,62.4581 L113.508,62.7485 L113.22,62.7358 L113.212,63.323 L112.923,63.3103 L112.916,63.8815 L112.627,63.8815 L112.618,64.4528 L112.331,64.4528 L112.323,65.0273 L112.04,65.0145 L112.027,65.5986 L111.742,65.5858 L111.731,66.1571 L111.446,66.1571 L111.429,67.022 L111.146,67.0092 L111.133,67.5933 L110.85,67.5837 L110.846,67.8741 L110.557,67.8614 L110.552,68.155 L110.265,68.155 L110.261,68.4358 L109.978,68.4358 L109.974,68.7135 L109.684,68.7135 L109.68,68.9943 L109.108,68.9943 L109.106,69.2752 L108.816,69.2752 L108.812,69.556 L108.525,69.556 L108.521,69.8464 L108.236,69.8337 L108.231,70.1273 L107.944,70.1145 L107.94,70.4081 L107.653,70.4081 L107.648,70.6858 L107.363,70.6858 L107.355,70.9666 L107.072,70.9666 L107.067,71.2602 L106.78,71.2475 L106.776,71.5379 L106.491,71.5283 L106.482,71.8187 L106.199,71.8187 L106.187,72.39 L105.904,72.3804 L105.899,72.6708 L101.034,72.5879"/>
<path vector-effect="none" fill-rule="evenodd" d="M110.123,59.5346 L110.127,59.2442 L110.416,59.2537 L110.412,59.5346 L110.123,59.5346"/>
<path vector-effect="none" fill-rule="evenodd" d="M109.844,59.2442 L109.848,58.9505 L110.135,58.9633 L110.127,59.2442 L109.844,59.2442"/>
<path vector-effect="none" fill-rule="evenodd" d="M108.708,58.6473 L108.712,58.3537 L109.282,58.3665 L109.28,58.6601 L108.708,58.6473"/>
<path vector-effect="none" fill-rule="evenodd" d="M106.138,58.3186 L106.142,58.025 L106.427,58.0377 L106.431,57.7441 L106.719,57.7569 L106.723,57.4664 L107.01,57.4664 L107.014,57.1855 L107.587,57.1983 L107.582,57.476 L107.867,57.4888 L107.863,57.7696 L108.436,57.7824 L108.431,58.0633 L108.714,58.0728 L108.712,58.3537 L106.138,58.3186"/>
<path vector-effect="none" fill-rule="evenodd" d="M101.034,72.5879 L101.038,72.307 L99.6039,72.2815 L99.6124,71.9911 L99.3252,71.9911 L99.3784,68.8252 L99.089,68.8252 L99.1252,66.8146 L98.838,66.805 L98.855,65.9528 L99.138,65.9528 L99.1422,65.672 L99.4294,65.672 L99.438,65.0975 L99.7273,65.0975 L99.7337,64.5262 L100.023,64.5262 L100.027,64.2454 L100.6,64.2581 L100.604,63.9677 L100.887,63.9677 L100.895,63.6869 L101.178,63.6869 L101.183,63.406 L101.472,63.406 L101.476,63.1156 L101.763,63.1251 L101.768,62.8347 L102.053,62.8475 L102.055,62.5539 L102.344,62.5666 L102.353,61.9826 L102.64,61.9953 L102.644,61.7017 L102.931,61.7145 L102.936,61.4208 L103.221,61.4208 L103.208,62.2858 L103.493,62.2858 L103.459,64.3092 L103.748,64.3092 L103.736,64.8805 L104.025,64.8805 L104.012,65.4645 L104.299,65.4645 L104.295,65.755 L104.868,65.755 L104.863,66.0486 L108.297,66.1092 L108.301,65.8188 L109.161,65.8284 L109.165,65.5507 L109.45,65.5507 L109.457,65.2699 L110.029,65.2699 L110.033,64.989 L110.318,64.989 L110.327,64.7082 L110.61,64.7082 L110.614,64.4177 L110.901,64.4305 L110.906,64.1369 L111.195,64.1496 L111.203,63.5656 L111.486,63.5783 L111.499,63.0039 L111.782,63.0039 L111.786,62.7134 L111.503,62.7134 L111.514,61.8485 L111.231,61.8485 L111.244,60.9836 L110.959,60.9836 L110.963,60.6932 L110.68,60.6932 L110.686,60.1187 L110.399,60.1059 L110.412,59.5346 L110.984,59.5474 L110.98,59.8282 L111.263,59.841 L111.259,60.1187 L111.548,60.1314 L111.54,60.4123 L112.112,60.4251 L112.108,60.7155 L112.395,60.7155 L112.391,61.0091 L112.963,61.0219 L112.957,61.2996 L113.244,61.3123 L113.24,61.5932 L113.812,61.606 L113.808,61.8836 L114.093,61.8964 L114.088,62.1773 L113.803,62.1773 L113.795,62.4709 L113.512,62.4581 L113.508,62.7485 L113.22,62.7358 L113.212,63.323 L112.923,63.3103 L112.916,63.8815 L112.627,63.8815 L112.618,64.4528 L112.331,64.4528 L112.323,65.0273 L112.04,65.0145 L112.027,65.5986 L111.742,65.5858 L111.731,66.1571 L111.446,66.1571 L111.429,67.022 L111.146,67.0092 L111.133,67.5933 L110.85,67.5837 L110.846,67.8741 L110.557,67.8614 L110.552,68.155 L110.265,68.155 L110.261,68.4358 L109.978,68.4358 L109.974,68.7135 L109.684,68.7135 L109.68,68.9943 L109.108,68.9943 L109.106,69.2752 L108.816,69.2752 L108.812,69.556 L108.525,69.556 L108.521,69.8464 L108.236,69.8337 L108.231,70.1273 L107.944,70.1145 L107.94,70.4081 L107.653,70.4081 L107.648,70.6858 L107.363,70.6858 L107.355,70.9666 L107.072,70.9666 L107.067,71.2602 L106.78,71.2475 L106.776,71.5379 L106.491,71.5283 L106.482,71.8187 L106.199,71.8187 L106.187,72.39 L105.904,72.3804 L105.899,72.6708 L101.034,72.5879"/>
<path vector-effect="none" fill-rule="evenodd" d="M110.123,59.5346 L110.127,59.2442 L110.416,59.2537 L110.412,59.5346 L110.123,59.5346"/>
<path vector-effect="none" fill-rule="evenodd" d="M109.844,59.2442 L109.848,58.9505 L110.135,58.9633 L110.127,59.2442 L109.844,59.2442"/>
<path vector-effect="none" fill-rule="evenodd" d="M108.708,58.6473 L108.712,58.3537 L109.282,58.3665 L109.28,58.6601 L108.708,58.6473"/>
<path vector-effect="none" fill-rule="evenodd" d="M106.138,58.3186 L106.142,58.025 L106.427,58.0377 L106.431,57.7441 L106.719,57.7569 L106.723,57.4664 L107.01,57.4664 L107.014,57.1855 L107.587,57.1983 L107.582,57.476 L107.867,57.4888 L107.863,57.7696 L108.436,57.7824 L108.431,58.0633 L108.714,58.0728 L108.712,58.3537 L106.138,58.3186"/>
<path vector-effect="none" fill-rule="evenodd" d="M101.034,72.5879 L101.038,72.307 L99.6039,72.2815 L99.6124,71.9911 L99.3252,71.9911 L99.3784,68.8252 L99.089,68.8252 L99.1252,66.8146 L98.838,66.805 L98.855,65.9528 L99.138,65.9528 L99.1422,65.672 L99.4294,65.672 L99.438,65.0975 L99.7273,65.0975 L99.7337,64.5262 L100.023,64.5262 L100.027,64.2454 L100.6,64.2581 L100.604,63.9677 L100.887,63.9677 L100.895,63.6869 L101.178,63.6869 L101.183,63.406 L101.472,63.406 L101.476,63.1156 L101.763,63.1251 L101.768,62.8347 L102.053,62.8475 L102.055,62.5539 L102.344,62.5666 L102.353,61.9826 L102.64,61.9953 L102.644,61.7017 L102.931,61.7145 L102.936,61.4208 L103.221,61.4208 L103.208,62.2858 L103.493,62.2858 L103.459,64.3092 L103.748,64.3092 L103.736,64.8805 L104.025,64.8805 L104.012,65.4645 L104.299,65.4645 L104.295,65.755 L104.868,65.755 L104.863,66.0486 L108.297,66.1092 L108.301,65.8188 L109.161,65.8284 L109.165,65.5507 L109.45,65.5507 L109.457,65.2699 L110.029,65.2699 L110.033,64.989 L110.318,64.989 L110.327,64.7082 L110.61,64.7082 L110.614,64.4177 L110.901,64.4305 L110.906,64.1369 L111.195,64.1496 L111.203,63.5656 L111.486,63.5783 L111.499,63.0039 L111.782,63.0039 L111.786,62.7134 L111.503,62.7134 L111.514,61.8485 L111.231,61.8485 L111.244,60.9836 L110.959,60.9836 L110.963,60.6932 L110.68,60.6932 L110.686,60.1187 L110.399,60.1059 L110.412,59.5346 L110.984,59.5474 L110.98,59.8282 L111.263,59.841 L111.259,60.1187 L111.548,60.1314 L111.54,60.4123 L112.112,60.4251 L112.108,60.7155 L112.395,60.7155 L112.391,61.0091 L112.963,61.0219 L112.957,61.2996 L113.244,61.3123 L113.24,61.5932 L113.812,61.606 L113.808,61.8836 L114.093,61.8964 L114.088,62.1773 L113.803,62.1773 L113.795,62.4709 L113.512,62.4581 L113.508,62.7485 L113.22,62.7358 L113.212,63.323 L112.923,63.3103 L112.916,63.8815 L112.627,63.8815 L112.618,64.4528 L112.331,64.4528 L112.323,65.0273 L112.04,65.0145 L112.027,65.5986 L111.742,65.5858 L111.731,66.1571 L111.446,66.1571 L111.429,67.022 L111.146,67.0092 L111.133,67.5933 L110.85,67.5837 L110.846,67.8741 L110.557,67.8614 L110.552,68.155 L110.265,68.155 L110.261,68.4358 L109.978,68.4358 L109.974,68.7135 L109.684,68.7135 L109.68,68.9943 L109.108,68.9943 L109.106,69.2752 L108.816,69.2752 L108.812,69.556 L108.525,69.556 L108.521,69.8464 L108.236,69.8337 L108.231,70.1273 L107.944,70.1145 L107.94,70.4081 L107.653,70.4081 L107.648,70.6858 L107.363,70.6858 L107.355,70.9666 L107.072,70.9666 L107.067,71.2602 L106.78,71.2475 L106.776,71.5379 L106.491,71.5283 L106.482,71.8187 L106.199,71.8187 L106.187,72.39 L105.904,72.3804 L105.899,72.6708 L101.034,72.5879"/>
<path vector-effect="none" fill-rule="evenodd" d="M110.123,59.5346 L110.127,59.2442 L110.416,59.2537 L110.412,59.5346 L110.123,59.5346"/>
<path vector-effect="none" fill-rule="evenodd" d="M109.844,59.2442 L109.848,58.9505 L110.135,58.9633 L110.127,59.2442 L109.844,59.2442"/>
<path vector-effect="none" fill-rule="evenodd" d="M108.708,58.6473 L108.712,58.3537 L109.282,58.3665 L109.28,58.6601 L108.708,58.6473"/>
<path vector-effect="none" fill-rule="evenodd" d="M106.138,58.3186 L106.142,58.025 L106.427,58.0377 L106.431,57.7441 L106.719,57.7569 L106.723,57.4664 L107.01,57.4664 L107.014,57.1855 L107.587,57.1983 L107.582,57.476 L107.867,57.4888 L107.863,57.7696 L108.436,57.7824 L108.431,58.0633 L108.714,58.0728 L108.712,58.3537 L106.138,58.3186"/>
<path vector-effect="none" fill-rule="evenodd" d="M113.508,62.7485 L113.512,62.4581 L112.94,62.4453 L112.944,62.1645 L112.654,62.1517 L112.663,61.8741 L112.376,61.8741 L112.38,61.5804 L112.095,61.5804 L112.099,61.2868 L111.812,61.2868 L111.82,60.9964 L111.531,60.9964 L111.535,60.7027 L111.252,60.7027 L111.255,60.4123 L110.682,60.3995 L110.686,60.1187 L110.399,60.1059 L110.408,59.8282 L110.118,59.8155 L110.123,59.5346 L109.84,59.5218 L109.844,59.2442 L109.555,59.2314 L109.563,58.9505 L108.987,58.9378 L108.995,58.6473 L108.708,58.6473 L108.712,58.3537 L108.14,58.3537 L108.142,58.0633 L107.859,58.0633 L107.863,57.7696 L107.291,57.7569 L107.295,57.476 L107.01,57.4664 L107.023,56.6142 L106.74,56.6015 L106.763,55.1652 L107.048,55.1748 L107.05,54.8843 L107.34,54.8971 L107.348,54.313 L107.636,54.3226 L107.644,53.7513 L107.931,53.7513 L107.936,53.4608 L108.221,53.4704 L108.231,52.8991 L108.516,52.8991 L108.525,52.3277 L108.812,52.3277 L108.816,52.0469 L109.106,52.0469 L109.112,51.4755 L109.401,51.4755 L109.41,50.9042 L109.693,50.9138 L109.706,50.3297 L109.989,50.3424 L110.001,49.7711 L110.286,49.7711 L110.289,49.4775 L110.578,49.4902 L110.586,48.9189 L110.874,48.9189 L110.882,48.3444 L111.169,48.3444 L111.182,47.4921 L111.472,47.4921 L111.482,46.6303 L111.772,46.6399 L111.778,46.0686 L115.501,46.1292 L115.503,45.8387 L116.937,45.8611 L116.942,45.5706 L117.801,45.593 L117.805,45.3025 L119.237,45.3248 L119.241,45.0344 L120.386,45.0567 L120.39,44.7663 L121.535,44.7918 L121.531,45.0823 L122.103,45.0823 L122.099,45.3759 L122.386,45.3759 L122.378,45.6664 L122.954,45.6791 L122.946,45.96 L123.235,45.9728 L123.231,46.2505 L123.516,46.2633 L123.512,46.5441 L123.799,46.5569 L123.79,46.8346 L124.08,46.8474 L124.075,47.1283 L124.358,47.141 L124.354,47.4219 L124.643,47.4315 L124.635,47.7124 L124.922,47.7251 L124.918,48.006 L125.203,48.0156 L125.199,48.2965 L125.486,48.2965 L125.475,48.8806 L126.048,48.8806 L126.043,49.1742 L126.331,49.1742 L126.32,49.7583 L126.035,49.7456 L126.031,50.0392 L125.743,50.0265 L125.735,50.6106 L125.446,50.5978 L125.439,51.1691 L124.294,51.1595 L124.29,51.4372 L123.429,51.4277 L123.426,51.7181 L122.854,51.7053 L122.85,51.9862 L122.273,51.9862 L122.269,52.2671 L121.984,52.2671 L121.982,52.548 L121.692,52.548 L121.688,52.8384 L121.401,52.8257 L121.397,53.1193 L121.112,53.1065 L121.105,53.4002 L120.82,53.4002 L120.816,53.6779 L120.529,53.6779 L120.524,53.9587 L120.235,53.9587 L120.231,54.2524 L119.948,54.2396 L119.935,54.8109 L119.652,54.8109 L119.639,55.3822 L119.354,55.3822 L119.352,55.6631 L119.063,55.6631 L119.054,56.2344 L118.767,56.2344 L118.759,56.8089 L118.471,56.7962 L118.463,57.3802 L118.178,57.3675 L118.167,57.9388 L117.882,57.9388 L117.865,58.8037 L117.582,58.7909 L117.561,59.9495 L117.273,59.9367 L117.246,61.6666 L116.674,61.6538 L116.669,61.9347 L116.384,61.9347 L116.378,62.2251 L115.805,62.2124 L115.801,62.4932 L115.516,62.4932 L115.508,62.7868 L113.508,62.7485"/>
<path vector-effect="none" fill-rule="evenodd" d="M124.452,75.8494 L124.46,75.2782 L124.175,75.2782 L124.188,74.4133 L123.905,74.4133 L123.929,72.9772 L123.641,72.9644 L123.652,72.39 L123.365,72.39 L123.378,71.8187 L123.088,71.806 L123.097,71.2347 L122.814,71.2347 L122.816,70.9443 L122.533,70.9443 L122.537,70.6507 L122.82,70.6507 L122.824,70.3698 L123.397,70.3826 L123.414,69.5177 L123.701,69.5177 L123.705,69.2369 L124.277,69.2496 L124.282,68.9592 L125.714,68.9816 L125.705,69.2752 L126.277,69.2752 L126.275,69.5656 L126.563,69.5656 L126.558,69.8592 L127.703,69.872 L127.699,70.1624 L127.984,70.1624 L127.975,70.7464 L128.258,70.7464 L128.254,71.04 L128.543,71.04 L128.531,71.6113 L128.245,71.6113 L128.226,72.757 L127.367,72.7442 L127.358,73.3155 L127.645,73.3155 L127.631,74.1803 L127.341,74.1803 L127.337,74.4612 L127.054,74.4612 L127.037,75.326 L126.465,75.3133 L126.46,75.5941 L125.316,75.5813 L125.311,75.8622 L124.452,75.8494"/>
<path vector-effect="none" fill-rule="evenodd" d="M119.367,71.7453 L119.371,71.4549 L119.088,71.4549 L119.099,70.59 L118.816,70.59 L118.82,70.2964 L118.535,70.2964 L118.539,70.006 L118.824,70.0188 L118.844,68.8603 L120.275,68.8858 L120.269,69.1762 L120.556,69.1762 L120.561,68.8986 L121.133,68.9082 L121.137,68.6177 L122.282,68.6433 L122.29,68.3497 L123.146,68.3624 L123.122,69.7986 L121.692,69.773 L121.68,70.3475 L121.397,70.3475 L121.392,70.6379 L121.105,70.6251 L121.101,70.9188 L120.812,70.906 L120.803,71.4773 L120.516,71.4773 L120.512,71.7709 L119.367,71.7453"/>
<path vector-effect="none" fill-rule="evenodd" d="M122.139,77.2504 L122.144,76.9568 L121.858,76.9568 L121.863,76.6632 L121.575,76.6632 L121.584,76.3728 L121.295,76.3728 L121.303,75.8015 L120.731,75.7888 L120.735,75.5079 L120.45,75.4952 L120.454,75.2143 L120.171,75.2048 L120.176,74.9239 L119.886,74.9112 L119.89,74.6303 L119.607,74.6208 L119.612,74.3399 L119.327,74.3271 L119.331,74.0463 L119.044,74.0335 L119.107,70.3092 L119.393,70.3092 L119.407,69.4443 L119.693,69.4571 L119.697,69.1667 L120.269,69.1762 L120.275,68.8858 L120.848,68.8986 L120.852,68.6177 L123.141,68.6528 L123.133,69.2273 L122.846,69.2273 L122.833,70.0794 L121.684,70.0666 L121.68,70.3475 L123.686,70.3826 L123.682,70.6762 L123.965,70.6762 L123.96,70.9666 L124.25,70.9666 L124.246,71.2602 L124.529,71.2602 L124.514,72.1251 L124.801,72.1251 L124.797,72.4155 L125.082,72.4155 L125.077,72.7091 L125.365,72.7091 L125.36,72.9995 L125.646,72.9995 L125.641,73.2931 L125.924,73.2931 L125.922,73.5836 L126.209,73.5836 L126.214,73.2931 L126.497,73.3059 L126.514,72.4411 L126.801,72.4411 L126.809,71.8666 L128.239,71.8921 L128.222,73.0474 L128.507,73.0474 L128.503,73.341 L128.218,73.3283 L128.209,73.6219 L127.926,73.6091 L127.922,73.9027 L127.633,73.9027 L127.626,74.4739 L127.337,74.4612 L127.333,74.7548 L127.05,74.7548 L127.033,75.6069 L126.745,75.6069 L126.741,75.8845 L125.884,75.8718 L125.882,76.1654 L125.305,76.1526 L125.301,76.4462 L124.443,76.4207 L124.439,76.7143 L123.867,76.7015 L123.86,76.9919 L123.003,76.9823 L122.999,77.26 L122.139,77.2504"/>
<path vector-effect="none" fill-rule="evenodd" d="M124.452,75.8494 L124.46,75.2782 L124.175,75.2782 L124.188,74.4133 L123.905,74.4133 L123.929,72.9772 L123.641,72.9644 L123.652,72.39 L123.365,72.39 L123.378,71.8187 L123.088,71.806 L123.097,71.2347 L122.814,71.2347 L122.816,70.9443 L122.533,70.9443 L122.537,70.6507 L122.82,70.6507 L122.824,70.3698 L123.397,70.3826 L123.414,69.5177 L123.701,69.5177 L123.705,69.2369 L124.277,69.2496 L124.282,68.9592 L125.714,68.9816 L125.705,69.2752 L126.277,69.2752 L126.275,69.5656 L126.563,69.5656 L126.558,69.8592 L127.703,69.872 L127.699,70.1624 L127.984,70.1624 L127.975,70.7464 L128.258,70.7464 L128.254,71.04 L128.543,71.04 L128.531,71.6113 L128.245,71.6113 L128.226,72.757 L127.367,72.7442 L127.358,73.3155 L127.645,73.3155 L127.631,74.1803 L127.341,74.1803 L127.337,74.4612 L127.054,74.4612 L127.037,75.326 L126.465,75.3133 L126.46,75.5941 L125.316,75.5813 L125.311,75.8622 L124.452,75.8494"/>
<path vector-effect="none" fill-rule="evenodd" d="M119.367,71.7453 L119.371,71.4549 L119.088,71.4549 L119.099,70.59 L118.816,70.59 L118.82,70.2964 L118.535,70.2964 L118.539,70.006 L118.824,70.0188 L118.844,68.8603 L120.275,68.8858 L120.269,69.1762 L120.556,69.1762 L120.561,68.8986 L121.133,68.9082 L121.137,68.6177 L122.282,68.6433 L122.29,68.3497 L123.146,68.3624 L123.122,69.7986 L121.692,69.773 L121.68,70.3475 L121.397,70.3475 L121.392,70.6379 L121.105,70.6251 L121.101,70.9188 L120.812,70.906 L120.803,71.4773 L120.516,71.4773 L120.512,71.7709 L119.367,71.7453"/>
<path vector-effect="none" fill-rule="evenodd" d="M132.252,71.6719 L132.256,71.3943 L129.967,71.356 L129.971,71.0656 L129.399,71.0528 L129.403,70.772 L129.12,70.7592 L129.13,69.8943 L128.848,69.8943 L128.852,69.6039 L128.562,69.6039 L128.575,69.0326 L128.288,69.0326 L128.294,68.739 L128.007,68.739 L128.016,68.155 L127.731,68.155 L127.735,67.8614 L127.448,67.8614 L127.456,67.5709 L127.167,67.5709 L127.171,67.2773 L126.888,67.2773 L126.899,66.4124 L126.616,66.4124 L126.624,65.8411 L126.339,65.8284 L126.348,65.2571 L126.063,65.2571 L126.067,64.9667 L126.352,64.9762 L126.356,64.6858 L126.928,64.6986 L126.935,64.405 L127.792,64.4177 L127.796,64.1369 L128.945,64.1496 L128.948,63.8688 L130.377,63.8943 L130.386,63.6007 L131.813,63.6262 L131.818,63.3454 L132.677,63.3581 L132.671,63.9294 L132.954,63.9294 L132.932,65.0879 L133.222,65.0879 L133.213,65.6592 L133.498,65.672 L133.49,66.2433 L133.773,66.2433 L133.769,66.5369 L134.058,66.5369 L134.045,67.1082 L134.335,67.1209 L134.33,67.3986 L134.613,67.4114 L134.605,67.9858 L134.89,67.9858 L134.886,68.2762 L135.173,68.2762 L135.166,68.5699 L135.454,68.5699 L135.449,68.8603 L135.735,68.8603 L135.73,69.1539 L136.017,69.1539 L136.009,69.4443 L136.581,69.4571 L136.577,69.7379 L136.866,69.7507 L136.862,70.0284 L137.145,70.0411 L137.134,70.8932 L137.417,70.906 L137.413,71.1868 L137.698,71.1996 L137.694,71.4773 L136.264,71.4549 L136.269,71.1741 L135.981,71.1613 L135.977,71.4549 L134.545,71.4294 L134.541,71.7102 L132.252,71.6719"/>
<path vector-effect="none" fill-rule="evenodd" d="M142.958,81.9128 L142.973,81.048 L143.258,81.048 L143.298,78.7599 L143.009,78.7471 L143.053,76.1654 L142.77,76.1654 L142.783,75.3005 L143.356,75.3133 L143.358,75.0197 L143.647,75.0324 L143.651,74.742 L143.938,74.742 L143.943,74.4612 L144.228,74.4612 L144.234,74.1803 L144.519,74.1803 L144.524,73.8899 L144.811,73.9027 L144.815,73.6091 L145.104,73.6219 L145.111,73.0378 L145.396,73.0474 L145.404,72.757 L145.687,72.7698 L145.692,72.4762 L145.981,72.4889 L145.985,72.1953 L146.272,72.1953 L146.281,71.6241 L146.568,71.6368 L146.572,71.3432 L146.858,71.3432 L146.862,71.0656 L147.432,71.0751 L147.44,70.7847 L148.013,70.7975 L148,71.3687 L148.289,71.3687 L148.277,71.9528 L148.566,71.9528 L148.557,72.524 L148.84,72.524 L148.832,73.1112 L149.117,73.1112 L149.104,73.9729 L149.389,73.9729 L149.381,74.5474 L149.664,74.5569 L149.653,75.4122 L149.936,75.4218 L149.932,75.7026 L150.221,75.7154 L150.208,76.2866 L150.496,76.2866 L150.494,76.5802 L150.777,76.5802 L150.772,76.8706 L151.345,76.8834 L151.328,77.7482 L151.617,77.7482 L151.613,78.0291 L151.325,78.0291 L151.321,78.3195 L151.032,78.3067 L151.04,78.0291 L150.468,78.0163 L150.472,77.7227 L150.185,77.7227 L150.181,78.0035 L149.608,78.0035 L149.604,78.2844 L149.032,78.2716 L149.028,78.5652 L148.168,78.5524 L148.164,78.8301 L147.592,78.8301 L147.587,79.1109 L147.015,79.0981 L147.006,79.3917 L146.434,79.379 L146.43,79.6726 L146.147,79.6598 L146.138,79.9502 L145.566,79.9406 L145.562,80.231 L144.989,80.2183 L144.985,80.5119 L144.698,80.4991 L144.694,80.7927 L144.121,80.7799 L144.117,81.0607 L143.83,81.0607 L143.826,81.3511 L143.541,81.3384 L143.536,81.632 L143.249,81.6192 L143.245,81.9128 L142.958,81.9128"/>
<path vector-effect="none" fill-rule="evenodd" d="M151.049,77.4546 L151.053,77.1642 L150.481,77.1515 L150.485,76.8706 L150.2,76.8579 L150.204,76.5802 L149.632,76.5675 L149.64,75.9962 L149.357,75.9834 L149.364,75.4122 L149.081,75.4122 L149.085,75.1186 L148.796,75.1186 L148.804,74.825 L148.517,74.825 L148.521,74.5346 L148.236,74.5346 L148.245,73.9633 L147.96,73.9506 L147.964,73.6697 L147.677,73.657 L147.681,73.3761 L147.396,73.3666 L147.4,73.0857 L147.117,73.0729 L147.121,72.7921 L146.832,72.7825 L146.862,71.0656 L147.149,71.0656 L147.168,69.9198 L146.881,69.9071 L146.904,68.4837 L147.194,68.4837 L147.198,68.1901 L147.77,68.2028 L147.774,67.922 L148.347,67.922 L148.351,67.6443 L148.921,67.6571 L148.93,67.3635 L149.787,67.3763 L149.791,67.0954 L150.364,67.0954 L150.37,66.8146 L150.942,66.8273 L150.947,66.5369 L151.519,66.5465 L151.523,66.256 L152.096,66.2688 L152.1,65.988 L152.387,65.988 L152.391,65.6943 L152.681,65.7071 L152.685,65.4167 L152.968,65.4262 L152.976,65.1358 L153.259,65.1358 L153.264,64.855 L153.553,64.855 L153.557,64.5741 L153.844,64.5741 L153.849,64.2837 L154.421,64.2964 L154.408,64.8677 L154.125,64.8677 L154.081,67.4497 L154.368,67.4624 L154.351,68.3145 L154.64,68.3241 L154.619,69.4699 L154.904,69.4826 L154.891,70.3347 L155.176,70.3475 L155.164,71.1996 L155.447,71.2092 L155.436,72.074 L155.719,72.074 L155.708,72.9389 L155.991,72.9389 L155.974,73.8038 L155.691,73.791 L155.687,74.0846 L155.115,74.0718 L155.11,74.3623 L154.534,74.3527 L154.53,74.6431 L154.247,74.6303 L154.242,74.9239 L153.955,74.9112 L153.951,75.2048 L153.662,75.192 L153.657,75.4824 L153.085,75.4728 L153.079,76.0441 L152.789,76.0441 L152.785,76.3345 L152.498,76.3249 L152.493,76.6153 L152.208,76.6026 L152.204,76.8962 L151.917,76.8962 L151.913,77.177 L151.34,77.1642 L151.336,77.4546 L151.049,77.4546"/>
<path vector-effect="none" fill-rule="evenodd" d="M154.421,64.2964 L154.425,64.0156 L154.708,64.0156 L154.704,64.3092 L154.421,64.2964"/>
<path vector-effect="none" fill-rule="evenodd" d="M166.904,87.7653 L166.908,87.4877 L164.906,87.4494 L164.91,87.159 L163.195,87.1335 L163.202,86.5623 L162.919,86.5495 L162.942,85.1135 L162.655,85.1135 L162.668,84.5423 L162.378,84.5296 L162.395,83.6775 L162.106,83.6648 L162.119,83.0935 L161.831,83.0935 L161.842,82.5191 L161.555,82.5064 L161.563,81.9351 L161.278,81.9351 L161.287,81.3511 L161.004,81.3511 L161.01,80.7799 L160.727,80.7672 L160.763,78.479 L161.053,78.479 L161.048,78.7694 L161.331,78.7694 L161.327,79.063 L162.185,79.0758 L162.18,79.3662 L164.185,79.3917 L164.189,79.1109 L165.048,79.1237 L165.053,78.8301 L165.338,78.8428 L165.344,78.5524 L165.916,78.5652 L165.921,78.2716 L166.206,78.2844 L166.214,77.9908 L166.497,78.0035 L166.501,77.7131 L166.789,77.7227 L166.793,77.4323 L167.082,77.4323 L167.087,77.1515 L167.37,77.1515 L167.382,76.5802 L167.665,76.5802 L167.67,76.2994 L167.959,76.2994 L167.967,75.7281 L168.255,75.7281 L168.263,75.1537 L168.55,75.1665 L168.559,74.5952 L168.848,74.5952 L168.855,74.024 L169.144,74.024 L169.148,73.7431 L169.431,73.7431 L169.444,73.1719 L169.727,73.1719 L169.74,72.5974 L170.025,72.6102 L170.035,72.0262 L170.32,72.0389 L170.333,71.4677 L170.616,71.4677 L170.62,71.1741 L171.48,71.1996 L171.484,70.906 L172.346,70.9188 L172.329,71.7836 L172.616,71.7836 L172.601,72.6485 L172.884,72.6581 L172.874,73.5102 L173.157,73.5229 L173.148,74.0974 L173.433,74.0974 L173.416,75.2526 L173.701,75.2526 L173.665,77.5536 L173.948,77.5536 L173.944,77.844 L174.229,77.844 L174.216,78.7088 L173.929,78.696 L173.92,79.2705 L173.631,79.2705 L173.627,79.5609 L173.344,79.5513 L173.335,79.8417 L172.763,79.8289 L172.759,80.1225 L172.476,80.1098 L172.467,80.4034 L172.182,80.3906 L172.178,80.681 L171.891,80.681 L171.886,80.9618 L171.599,80.9618 L171.591,81.533 L171.306,81.5235 L171.299,81.8139 L171.014,81.8139 L171.01,82.0947 L170.723,82.0947 L170.718,82.3755 L170.429,82.3755 L170.414,83.518 L170.125,83.518 L170.106,84.6636 L170.678,84.6763 L170.674,84.9667 L171.246,84.9667 L171.242,85.2603 L170.952,85.2603 L170.942,86.1124 L170.652,86.1124 L170.644,86.6836 L170.357,86.6836 L170.344,87.5356 L170.057,87.5356 L170.052,87.8292 L166.904,87.7653"/>
<path vector-effect="none" fill-rule="evenodd" d="M168.295,107.022 L168.316,105.88 L168.889,105.893 L168.884,106.17 L169.457,106.183 L169.448,106.477 L169.735,106.477 L169.731,106.767 L168.587,106.745 L168.58,107.035 L168.295,107.022"/>
<path vector-effect="none" fill-rule="evenodd" d="M173.908,96.7863 L173.912,96.5055 L173.627,96.4959 L173.631,96.2151 L173.059,96.2023 L173.067,95.6312 L172.495,95.6184 L172.525,93.8889 L172.24,93.8889 L172.248,93.3177 L171.963,93.305 L171.971,92.7338 L171.689,92.7338 L171.693,92.4402 L171.403,92.4402 L171.416,91.869 L171.127,91.8563 L171.131,91.5754 L170.848,91.5659 L170.857,90.9915 L170.572,90.9915 L170.576,90.7011 L170.289,90.7011 L170.299,90.1267 L170.012,90.1172 L170.02,89.8363 L169.731,89.8236 L169.735,89.5428 L169.452,89.5332 L169.461,88.9588 L169.176,88.9588 L169.18,88.6684 L168.893,88.6684 L168.904,88.094 L168.616,88.0845 L168.629,87.5101 L168.34,87.5101 L168.361,86.3549 L168.644,86.3676 L168.657,85.7932 L168.94,85.7932 L168.957,84.9316 L170.389,84.954 L170.393,84.6763 L170.678,84.6763 L170.682,84.3828 L171.254,84.3955 L171.261,84.1147 L172.118,84.1275 L172.114,84.4083 L173.259,84.4306 L173.25,85.005 L173.535,85.0146 L173.527,85.589 L173.81,85.589 L173.805,85.8794 L174.95,85.8922 L174.954,85.6113 L175.527,85.6241 L175.535,85.3337 L175.246,85.3337 L175.263,84.4689 L174.976,84.4689 L174.991,83.6041 L174.703,83.5914 L174.716,83.0201 L174.427,83.0201 L174.431,82.7265 L174.148,82.7265 L174.15,82.4362 L174.439,82.4457 L174.444,82.1553 L174.727,82.1553 L174.752,80.732 L174.467,80.7193 L174.471,80.4385 L174.188,80.4257 L174.191,80.1449 L173.903,80.1353 L173.908,79.8545 L173.622,79.8417 L173.644,78.696 L173.929,78.696 L173.944,77.844 L174.516,77.844 L174.52,77.5663 L175.093,77.5791 L175.088,77.8567 L175.948,77.8695 L175.942,78.1631 L176.229,78.1631 L176.225,78.4535 L177.082,78.4663 L177.078,78.7599 L177.65,78.7694 L177.652,78.479 L178.514,78.4918 L178.518,78.211 L181.95,78.2588 L181.946,78.5524 L183.09,78.5748 L183.086,78.8556 L184.231,78.8811 L184.226,79.1588 L185.656,79.1843 L185.648,79.7683 L185.935,79.7683 L185.907,81.2043 L186.194,81.2043 L186.171,82.6404 L186.456,82.6532 L186.439,83.7988 L186.722,83.7988 L186.699,85.2348 L186.986,85.2476 L186.967,86.39 L187.25,86.39 L187.239,87.2548 L186.95,87.2548 L186.945,87.5356 L186.373,87.5228 L186.369,87.8164 L186.082,87.8164 L186.077,88.094 L185.505,88.0845 L185.501,88.3748 L184.928,88.3621 L184.924,88.6557 L184.637,88.6429 L184.633,88.9365 L184.346,88.9237 L184.341,89.2141 L183.769,89.2045 L183.765,89.4949 L183.477,89.4821 L183.473,89.7757 L183.188,89.7757 L183.18,90.0565 L182.897,90.0565 L182.892,90.3341 L182.603,90.3341 L182.601,90.6277 L182.029,90.615 L182.024,90.8958 L181.735,90.8958 L181.731,91.1766 L181.443,91.1766 L181.439,91.467 L180.867,91.4542 L180.863,91.735 L180.575,91.735 L180.571,92.0286 L180.286,92.0158 L180.282,92.3062 L179.995,92.2966 L179.99,92.587 L179.703,92.587 L179.699,92.8678 L179.127,92.855 L179.122,93.1486 L178.55,93.1358 L178.546,93.4262 L177.973,93.4135 L177.965,93.6943 L177.393,93.6943 L177.388,93.9751 L177.105,93.9751 L177.097,94.2559 L176.814,94.2559 L176.81,94.5462 L176.52,94.5335 L176.516,94.8271 L175.944,94.8143 L175.942,95.1079 L175.652,95.0951 L175.644,95.6663 L175.356,95.6663 L175.352,95.9471 L175.067,95.9471 L175.061,96.2374 L174.776,96.2279 L174.771,96.5182 L174.484,96.5055 L174.48,96.799 L173.908,96.7863"/>
<path vector-effect="none" fill-rule="evenodd" d="M189.609,99.3549 L189.611,99.0614 L189.324,99.0614 L189.337,98.4902 L189.047,98.4775 L189.084,96.4704 L188.796,96.4704 L188.809,95.8992 L188.52,95.8864 L188.524,95.6056 L188.241,95.5929 L188.25,95.0217 L187.965,95.0217 L187.973,94.4505 L187.684,94.4378 L187.701,93.5858 L187.418,93.573 L187.428,92.7083 L187.145,92.7083 L187.165,91.5659 L186.877,91.5531 L186.892,90.7011 L186.605,90.6883 L186.626,89.5428 L186.337,89.5332 L186.354,88.6812 L186.069,88.6684 L186.082,87.8164 L185.799,87.8036 L185.818,86.658 L185.531,86.6453 L185.537,86.0741 L187.543,86.1124 L187.548,85.8315 L190.979,85.8794 L190.975,86.173 L195.841,86.256 L195.832,86.8304 L196.117,86.8304 L196.109,87.4143 L196.394,87.4143 L196.39,87.7047 L196.677,87.7047 L196.668,87.9983 L196.958,87.9983 L196.954,88.2887 L197.237,88.2887 L197.226,89.1535 L197.509,89.1535 L197.492,90.0182 L197.209,90.0055 L197.213,89.7278 L196.641,89.7151 L196.645,89.4215 L195.215,89.3992 L195.213,89.6896 L194.637,89.6768 L194.632,89.9704 L194.347,89.9576 L194.343,90.2512 L194.056,90.2512 L194.007,93.1103 L194.292,93.1231 L194.283,93.6943 L194.566,93.6943 L194.556,94.559 L194.839,94.559 L194.834,94.8526 L195.124,94.8526 L195.111,95.4365 L195.398,95.4365 L195.388,96.0077 L195.675,96.0205 L195.671,96.3013 L195.956,96.3108 L195.951,96.5916 L196.524,96.6044 L196.52,96.8948 L196.802,96.8948 L196.798,97.1883 L197.66,97.2011 L197.651,97.4819 L197.366,97.4819 L197.347,98.6242 L197.062,98.6242 L197.051,99.1954 L196.479,99.1858 L196.475,99.4762 L193.041,99.4156 L193.045,99.1252 L191.328,99.0997 L191.324,99.3805 L189.609,99.3549"/>
<path vector-effect="none" fill-rule="evenodd" d="M197.664,96.9075 L197.668,96.6299 L197.956,96.6299 L197.947,96.9203 L197.664,96.9075"/>
<path vector-effect="none" fill-rule="evenodd" d="M197.956,96.6299 L197.968,95.7652 L198.256,95.778 L198.26,95.4844 L198.832,95.4971 L198.828,95.778 L198.541,95.778 L198.536,96.0683 L198.247,96.0556 L198.239,96.6299 L197.956,96.6299"/>
<path vector-effect="none" fill-rule="evenodd" d="M198.317,92.0381 L198.326,91.7605 L198.036,91.7478 L198.049,91.1766 L197.76,91.1766 L197.773,90.5894 L198.058,90.6022 L198.054,90.883 L198.336,90.8958 L198.328,91.467 L198.613,91.467 L198.609,91.7605 L198.896,91.7605 L198.894,92.0509 L198.317,92.0381"/>
<path vector-effect="none" fill-rule="evenodd" d="M179.718,108.375 L179.727,108.082 L178.867,108.069 L178.871,107.779 L178.299,107.779 L178.307,107.485 L178.018,107.485 L178.022,107.195 L177.45,107.182 L177.454,106.901 L177.169,106.888 L177.173,106.611 L174.886,106.56 L174.882,106.853 L174.593,106.853 L174.588,107.134 L173.733,107.121 L173.725,107.412 L172.58,107.389 L172.576,107.68 L170.576,107.645 L170.58,107.351 L169.435,107.338 L169.44,107.048 L168.58,107.035 L168.587,106.745 L167.444,106.732 L167.446,106.438 L166.876,106.426 L166.878,106.148 L166.591,106.135 L166.604,105.564 L166.314,105.564 L166.323,105.271 L165.75,105.258 L165.755,104.977 L165.182,104.968 L165.178,105.245 L163.746,105.223 L163.751,104.942 L163.465,104.942 L163.47,104.648 L163.182,104.648 L163.191,104.358 L164.046,104.371 L164.05,104.09 L165.767,104.116 L165.776,103.822 L166.348,103.835 L166.353,103.554 L166.923,103.554 L166.927,103.273 L167.212,103.273 L167.227,102.421 L167.516,102.421 L167.525,101.85 L167.812,101.85 L167.821,101.279 L168.104,101.279 L168.116,100.705 L168.401,100.717 L168.41,100.427 L168.98,100.44 L168.984,100.146 L169.557,100.159 L169.561,99.8782 L169.85,99.8782 L169.855,99.5879 L170.138,99.5974 L170.15,99.0263 L170.433,99.0263 L170.437,98.7327 L170.727,98.7455 L170.737,97.8808 L171.027,97.8808 L171.035,97.3096 L171.323,97.3224 L171.331,96.7512 L171.618,96.7512 L171.65,94.7409 L171.94,94.7409 L171.971,92.7338 L172.261,92.7465 L172.288,91.017 L176.01,91.0777 L176.014,90.7968 L177.441,90.8224 L177.45,90.5288 L178.307,90.5416 L178.31,90.2607 L179.454,90.2863 L179.463,89.9959 L180.32,90.0055 L180.324,89.7278 L181.184,89.7374 L181.188,89.447 L181.76,89.4598 L181.756,89.7502 L182.043,89.7502 L182.035,90.0438 L182.324,90.0438 L182.32,90.3341 L182.603,90.3341 L182.597,90.9085 L182.88,90.9181 L182.875,91.1989 L183.165,91.2117 L183.156,91.4925 L183.443,91.4925 L183.439,91.7829 L183.724,91.7829 L183.72,92.0764 L184.003,92.0764 L184.001,92.3668 L184.288,92.3668 L184.284,92.6604 L184.569,92.6604 L184.565,92.954 L184.848,92.954 L184.843,93.2443 L185.133,93.2443 L185.124,93.5379 L185.411,93.5379 L185.407,93.8283 L185.692,93.8283 L185.688,94.1219 L185.975,94.1219 L185.969,94.4122 L186.541,94.425 L186.537,94.7058 L187.109,94.7186 L187.105,95.0089 L187.392,95.0089 L187.384,95.3025 L187.673,95.3025 L187.66,95.8737 L187.947,95.8864 L187.941,96.4576 L188.224,96.4576 L188.207,97.3224 L189.352,97.3479 L189.345,97.919 L189.633,97.919 L189.616,98.7838 L189.901,98.7838 L189.896,99.0741 L190.184,99.0741 L190.179,99.3677 L189.892,99.3549 L189.888,99.6485 L189.601,99.6485 L189.592,100.22 L189.303,100.207 L189.292,101.072 L189.003,101.072 L188.999,101.352 L188.716,101.352 L188.694,102.495 L188.407,102.495 L188.403,102.776 L188.116,102.776 L188.103,103.64 L187.813,103.627 L187.803,104.492 L187.513,104.492 L187.503,105.344 L187.213,105.344 L187.205,105.915 L186.918,105.915 L186.909,106.486 L186.337,106.477 L186.328,106.767 L185.473,106.745 L185.469,107.035 L184.897,107.022 L184.888,107.316 L184.316,107.303 L184.311,107.597 L183.739,107.584 L183.737,107.865 L183.165,107.852 L183.16,108.142 L182.016,108.12 L182.012,108.41 L179.718,108.375"/>
<path vector-effect="none" fill-rule="evenodd" d="M189.609,99.3549 L189.611,99.0614 L189.324,99.0614 L189.337,98.4902 L189.047,98.4775 L189.084,96.4704 L188.796,96.4704 L188.809,95.8992 L188.52,95.8864 L188.524,95.6056 L188.241,95.5929 L188.25,95.0217 L187.965,95.0217 L187.973,94.4505 L187.684,94.4378 L187.701,93.5858 L187.418,93.573 L187.428,92.7083 L187.145,92.7083 L187.165,91.5659 L186.877,91.5531 L186.892,90.7011 L186.605,90.6883 L186.626,89.5428 L186.337,89.5332 L186.354,88.6812 L186.069,88.6684 L186.082,87.8164 L185.799,87.8036 L185.818,86.658 L185.531,86.6453 L185.537,86.0741 L187.543,86.1124 L187.548,85.8315 L190.979,85.8794 L190.975,86.173 L195.841,86.256 L195.832,86.8304 L196.117,86.8304 L196.109,87.4143 L196.394,87.4143 L196.39,87.7047 L196.677,87.7047 L196.668,87.9983 L196.958,87.9983 L196.954,88.2887 L197.237,88.2887 L197.226,89.1535 L197.509,89.1535 L197.492,90.0182 L197.209,90.0055 L197.213,89.7278 L196.641,89.7151 L196.645,89.4215 L195.215,89.3992 L195.213,89.6896 L194.637,89.6768 L194.632,89.9704 L194.347,89.9576 L194.343,90.2512 L194.056,90.2512 L194.007,93.1103 L194.292,93.1231 L194.283,93.6943 L194.566,93.6943 L194.556,94.559 L194.839,94.559 L194.834,94.8526 L195.124,94.8526 L195.111,95.4365 L195.398,95.4365 L195.388,96.0077 L195.675,96.0205 L195.671,96.3013 L195.956,96.3108 L195.951,96.5916 L196.524,96.6044 L196.52,96.8948 L196.802,96.8948 L196.798,97.1883 L197.66,97.2011 L197.651,97.4819 L197.366,97.4819 L197.347,98.6242 L197.062,98.6242 L197.051,99.1954 L196.479,99.1858 L196.475,99.4762 L193.041,99.4156 L193.045,99.1252 L191.328,99.0997 L191.324,99.3805 L189.609,99.3549"/>
<path vector-effect="none" fill-rule="evenodd" d="M197.664,96.9075 L197.668,96.6299 L197.956,96.6299 L197.947,96.9203 L197.664,96.9075"/>
<path vector-effect="none" fill-rule="evenodd" d="M197.956,96.6299 L197.968,95.7652 L198.256,95.778 L198.26,95.4844 L198.832,95.4971 L198.828,95.778 L198.541,95.778 L198.536,96.0683 L198.247,96.0556 L198.239,96.6299 L197.956,96.6299"/>
<path vector-effect="none" fill-rule="evenodd" d="M198.317,92.0381 L198.326,91.7605 L198.036,91.7478 L198.049,91.1766 L197.76,91.1766 L197.773,90.5894 L198.058,90.6022 L198.054,90.883 L198.336,90.8958 L198.328,91.467 L198.613,91.467 L198.609,91.7605 L198.896,91.7605 L198.894,92.0509 L198.317,92.0381"/>
<path vector-effect="none" fill-rule="evenodd" d="M176.359,120.946 L176.363,120.656 L176.078,120.656 L176.082,120.362 L175.795,120.362 L175.803,120.072 L175.514,120.072 L175.518,119.778 L175.235,119.778 L175.239,119.488 L174.667,119.488 L174.671,119.194 L174.099,119.182 L174.103,118.901 L173.246,118.879 L173.25,118.598 L172.678,118.585 L172.682,118.295 L172.11,118.295 L172.114,118.001 L171.542,117.988 L171.55,117.711 L170.978,117.698 L170.982,117.405 L170.41,117.392 L170.414,117.114 L169.842,117.102 L169.846,116.808 L168.989,116.795 L168.993,116.518 L168.421,116.505 L168.425,116.211 L167.565,116.202 L167.574,115.921 L167.001,115.908 L167.006,115.615 L166.433,115.605 L166.438,115.324 L165.58,115.312 L165.589,114.728 L165.299,114.728 L165.308,114.434 L165.021,114.434 L165.033,113.863 L164.744,113.85 L164.748,113.573 L165.321,113.582 L165.325,113.292 L166.47,113.314 L166.478,113.024 L167.333,113.037 L167.338,112.756 L167.91,112.769 L167.918,112.475 L167.346,112.462 L167.37,111.027 L167.082,111.027 L167.11,109.301 L166.827,109.301 L166.831,109.007 L166.542,109.007 L166.55,108.717 L166.263,108.717 L166.299,106.707 L166.01,106.707 L166.031,105.551 L165.742,105.551 L165.75,105.258 L166.036,105.271 L166.044,104.7 L166.331,104.7 L166.336,104.406 L166.908,104.419 L166.912,104.138 L167.199,104.138 L167.187,104.709 L167.476,104.722 L167.472,105.003 L167.755,105.015 L167.748,105.587 L168.031,105.587 L168.027,105.88 L168.599,105.88 L168.595,106.17 L169.167,106.183 L169.159,106.754 L169.444,106.754 L169.431,107.619 L169.716,107.632 L169.708,108.203 L169.991,108.203 L169.986,108.496 L170.272,108.496 L170.267,108.787 L170.557,108.787 L170.544,109.361 L170.831,109.374 L170.808,110.81 L171.091,110.81 L171.086,111.087 L171.376,111.1 L171.372,111.381 L171.944,111.394 L171.935,111.684 L172.795,111.697 L172.791,111.99 L173.363,111.99 L173.357,112.281 L173.929,112.293 L173.925,112.574 L174.497,112.587 L174.493,112.877 L174.78,112.877 L174.771,113.171 L175.344,113.184 L175.339,113.461 L175.629,113.474 L175.616,114.045 L175.903,114.045 L175.899,114.339 L176.184,114.339 L176.18,114.629 L176.465,114.629 L176.456,115.203 L176.739,115.216 L176.735,115.493 L177.024,115.506 L177.02,115.787 L177.593,115.8 L177.584,116.09 L178.156,116.09 L178.152,116.384 L179.869,116.406 L179.873,116.128 L181.305,116.151 L181.309,115.86 L181.882,115.873 L181.899,115.009 L182.182,115.021 L182.195,114.447 L182.477,114.447 L182.507,112.721 L183.08,112.73 L183.086,112.453 L183.658,112.462 L183.663,112.172 L183.948,112.172 L183.956,111.891 L184.239,111.891 L184.252,111.32 L184.824,111.333 L184.828,111.039 L185.111,111.052 L185.12,110.759 L185.405,110.759 L185.411,110.188 L185.701,110.2 L185.705,109.907 L186.277,109.92 L186.279,109.629 L186.569,109.639 L186.573,109.348 L186.86,109.361 L186.869,108.777 L187.156,108.787 L187.145,109.361 L187.433,109.361 L187.418,110.226 L187.701,110.235 L187.692,110.81 L187.982,110.81 L187.973,111.1 L188.26,111.1 L188.256,111.394 L188.541,111.394 L188.513,113.12 L188.796,113.12 L188.792,113.413 L188.22,113.4 L188.216,113.681 L187.928,113.681 L187.924,113.962 L187.639,113.962 L187.637,114.252 L187.348,114.24 L187.343,114.533 L187.056,114.52 L187.052,114.814 L186.767,114.814 L186.756,115.385 L186.471,115.372 L186.458,115.956 L186.175,115.943 L186.162,116.518 L185.879,116.518 L185.862,117.382 L185.579,117.37 L185.562,118.234 L185.277,118.234 L185.262,119.086 L184.973,119.086 L184.969,119.364 L183.826,119.354 L183.822,119.632 L181.248,119.596 L181.241,119.877 L179.239,119.852 L179.235,120.132 L178.09,120.107 L178.084,120.4 L177.512,120.388 L177.507,120.678 L176.935,120.668 L176.931,120.959 L176.359,120.946"/>
<path vector-effect="none" fill-rule="evenodd" d="M185.054,131.146 L185.071,130.281 L185.356,130.281 L185.367,129.71 L185.652,129.71 L185.639,130.574 L185.924,130.587 L185.916,131.158 L185.054,131.146"/>
<path vector-effect="none" fill-rule="evenodd" d="M176.797,128.699 L176.82,127.263 L176.537,127.263 L176.614,122.675 L176.331,122.662 L176.359,120.946 L176.071,120.933 L176.082,120.362 L176.939,120.375 L176.948,120.094 L177.52,120.107 L177.522,119.817 L178.095,119.826 L178.099,119.536 L178.671,119.549 L178.675,119.268 L179.535,119.281 L179.539,118.987 L180.112,119 L180.116,118.706 L180.978,118.732 L180.98,118.438 L181.552,118.451 L181.556,118.161 L182.129,118.174 L182.133,117.893 L182.705,117.893 L182.709,117.612 L183.569,117.625 L183.573,117.331 L184.146,117.344 L184.15,117.063 L184.722,117.063 L184.731,116.786 L185.014,116.786 L185.009,117.076 L185.294,117.076 L185.282,117.941 L185.567,117.941 L185.554,118.805 L185.839,118.805 L185.831,119.389 L186.114,119.389 L186.103,120.254 L186.386,120.254 L186.377,120.825 L186.662,120.838 L186.65,121.689 L186.935,121.702 L186.926,122.273 L187.209,122.273 L187.201,122.857 L187.486,122.857 L187.477,123.431 L187.762,123.441 L187.754,124.015 L187.182,124.002 L187.177,124.293 L186.89,124.283 L186.886,124.574 L186.601,124.561 L186.592,124.854 L186.309,124.842 L186.305,125.135 L186.018,125.135 L186.014,125.413 L185.724,125.413 L185.72,125.693 L185.437,125.693 L185.428,125.987 L185.143,125.974 L185.141,126.264 L184.852,126.255 L184.843,126.826 L184.556,126.826 L184.565,126.545 L182.848,126.51 L182.839,126.8 L181.984,126.778 L181.98,127.068 L181.118,127.056 L181.114,127.336 L180.541,127.336 L180.539,127.617 L179.967,127.604 L179.963,127.895 L179.39,127.885 L179.382,128.175 L178.527,128.163 L178.522,128.443 L177.378,128.421 L177.369,128.711 L176.797,128.699"/>
<path vector-effect="none" fill-rule="evenodd" d="M177.812,136.464 L177.816,136.183 L176.959,136.17 L176.963,135.88 L176.103,135.867 L176.112,135.577 L175.25,135.564 L175.254,135.283 L174.399,135.258 L174.403,134.98 L173.259,134.955 L173.263,134.674 L172.406,134.652 L172.414,134.077 L172.703,134.09 L172.714,133.226 L173.003,133.226 L173.014,132.374 L173.303,132.374 L173.308,132.083 L173.591,132.096 L173.603,131.522 L173.886,131.522 L173.899,130.951 L174.184,130.951 L174.188,130.67 L174.476,130.67 L174.484,130.099 L174.771,130.099 L174.776,129.818 L175.065,129.818 L175.067,129.538 L175.352,129.538 L175.365,128.967 L175.648,128.967 L175.661,128.396 L175.944,128.396 L175.948,128.115 L176.237,128.115 L176.242,127.834 L176.529,127.834 L176.533,127.556 L176.818,127.556 L176.829,126.982 L177.114,126.982 L177.118,126.705 L177.405,126.705 L177.41,126.411 L179.127,126.449 L179.131,126.156 L180.275,126.181 L180.28,125.888 L181.139,125.913 L181.143,125.62 L182.003,125.633 L182.007,125.352 L182.865,125.365 L182.871,125.071 L185.16,125.109 L185.124,127.116 L185.411,127.129 L185.38,128.845 L185.667,128.858 L185.626,131.146 L185.343,131.146 L185.339,131.439 L185.052,131.426 L185.048,131.717 L184.758,131.704 L184.754,131.997 L184.471,131.985 L184.463,132.278 L183.89,132.265 L183.886,132.559 L183.603,132.546 L183.599,132.836 L183.026,132.824 L183.014,133.398 L182.731,133.398 L182.722,133.688 L182.437,133.675 L182.433,133.969 L181.86,133.956 L181.854,134.237 L181.569,134.237 L181.565,134.53 L181.278,134.518 L181.273,134.808 L180.988,134.795 L180.98,135.089 L180.697,135.089 L180.692,135.369 L180.405,135.369 L180.401,135.647 L180.112,135.647 L180.107,135.94 L179.824,135.928 L179.82,136.221 L178.675,136.196 L178.667,136.489 L177.812,136.464"/>
<path vector-effect="none" fill-rule="evenodd" d="M187.128,143.801 L187.137,143.23 L187.424,143.242 L187.454,141.513 L187.169,141.513 L187.177,140.93 L186.892,140.93 L186.896,140.636 L186.609,140.636 L186.618,140.359 L186.328,140.346 L186.333,140.065 L186.05,140.052 L186.054,139.775 L185.482,139.762 L185.486,139.469 L184.914,139.456 L184.918,139.178 L184.346,139.166 L184.352,138.872 L183.782,138.872 L183.784,138.582 L182.641,138.556 L182.646,138.276 L181.501,138.253 L181.505,137.972 L180.075,137.947 L180.08,137.657 L178.363,137.631 L178.367,137.341 L178.084,137.341 L178.09,136.757 L177.807,136.757 L177.816,136.183 L177.531,136.17 L177.535,135.893 L177.82,135.893 L177.824,135.612 L178.397,135.625 L178.403,135.331 L178.688,135.331 L178.693,135.054 L179.265,135.063 L179.271,134.773 L179.556,134.773 L179.561,134.492 L180.133,134.505 L180.137,134.211 L180.709,134.224 L180.718,133.934 L181.001,133.943 L181.005,133.653 L181.578,133.666 L181.586,133.372 L182.158,133.385 L182.163,133.104 L182.446,133.104 L182.454,132.814 L182.737,132.824 L182.741,132.533 L183.314,132.546 L183.318,132.253 L183.607,132.265 L183.609,131.972 L184.182,131.985 L184.186,131.704 L184.475,131.704 L184.48,131.414 L184.767,131.426 L184.775,130.852 L185.058,130.852 L185.067,130.562 L185.352,130.574 L185.356,130.281 L185.643,130.294 L185.639,130.574 L185.924,130.587 L185.92,130.865 L187.065,130.89 L187.06,131.171 L187.916,131.193 L187.911,131.474 L189.056,131.5 L189.052,131.777 L190.196,131.803 L190.192,132.096 L191.337,132.106 L191.328,132.399 L191.618,132.399 L191.596,133.545 L191.886,133.554 L191.847,135.564 L192.137,135.564 L192.066,139.58 L191.779,139.58 L191.775,139.871 L191.488,139.858 L191.484,140.151 L191.198,140.139 L191.19,140.432 L190.622,140.419 L190.615,140.71 L190.33,140.7 L190.326,140.99 L190.039,140.99 L190.03,141.561 L189.741,141.552 L189.739,141.842 L189.45,141.829 L189.445,142.123 L189.162,142.123 L189.15,142.694 L188.864,142.681 L188.862,142.974 L188.573,142.974 L188.56,143.826 L187.128,143.801"/>
<path vector-effect="none" fill-rule="evenodd" d="M185.054,131.146 L185.071,130.281 L185.356,130.281 L185.367,129.71 L185.652,129.71 L185.639,130.574 L185.924,130.587 L185.916,131.158 L185.054,131.146"/>
<path vector-effect="none" fill-rule="evenodd" d="M176.797,128.699 L176.82,127.263 L176.537,127.263 L176.614,122.675 L176.331,122.662 L176.359,120.946 L176.071,120.933 L176.082,120.362 L176.939,120.375 L176.948,120.094 L177.52,120.107 L177.522,119.817 L178.095,119.826 L178.099,119.536 L178.671,119.549 L178.675,119.268 L179.535,119.281 L179.539,118.987 L180.112,119 L180.116,118.706 L180.978,118.732 L180.98,118.438 L181.552,118.451 L181.556,118.161 L182.129,118.174 L182.133,117.893 L182.705,117.893 L182.709,117.612 L183.569,117.625 L183.573,117.331 L184.146,117.344 L184.15,117.063 L184.722,117.063 L184.731,116.786 L185.014,116.786 L185.009,117.076 L185.294,117.076 L185.282,117.941 L185.567,117.941 L185.554,118.805 L185.839,118.805 L185.831,119.389 L186.114,119.389 L186.103,120.254 L186.386,120.254 L186.377,120.825 L186.662,120.838 L186.65,121.689 L186.935,121.702 L186.926,122.273 L187.209,122.273 L187.201,122.857 L187.486,122.857 L187.477,123.431 L187.762,123.441 L187.754,124.015 L187.182,124.002 L187.177,124.293 L186.89,124.283 L186.886,124.574 L186.601,124.561 L186.592,124.854 L186.309,124.842 L186.305,125.135 L186.018,125.135 L186.014,125.413 L185.724,125.413 L185.72,125.693 L185.437,125.693 L185.428,125.987 L185.143,125.974 L185.141,126.264 L184.852,126.255 L184.843,126.826 L184.556,126.826 L184.565,126.545 L182.848,126.51 L182.839,126.8 L181.984,126.778 L181.98,127.068 L181.118,127.056 L181.114,127.336 L180.541,127.336 L180.539,127.617 L179.967,127.604 L179.963,127.895 L179.39,127.885 L179.382,128.175 L178.527,128.163 L178.522,128.443 L177.378,128.421 L177.369,128.711 L176.797,128.699"/>
<path vector-effect="none" fill-rule="evenodd" d="M179.641,146.55 L179.646,146.26 L177.073,146.212 L177.078,145.932 L174.503,145.884 L174.508,145.603 L172.503,145.565 L172.512,145.274 L172.223,145.274 L172.227,144.981 L171.944,144.981 L171.948,144.691 L171.663,144.691 L171.667,144.397 L171.38,144.397 L171.384,144.107 L171.099,144.107 L171.108,143.533 L170.823,143.523 L170.831,142.949 L170.259,142.936 L170.272,142.365 L169.984,142.365 L169.986,142.075 L169.703,142.075 L169.712,141.501 L169.427,141.491 L169.431,141.21 L169.148,141.198 L169.152,140.917 L168.863,140.904 L168.867,140.627 L168.584,140.614 L168.591,140.043 L168.308,140.043 L168.312,139.749 L168.027,139.749 L168.031,139.456 L167.744,139.456 L167.759,138.595 L168.044,138.595 L168.059,137.743 L168.344,137.743 L168.361,136.878 L168.648,136.891 L168.657,136.317 L168.94,136.317 L168.952,135.746 L169.238,135.746 L169.248,135.175 L169.533,135.175 L169.546,134.601 L169.829,134.613 L169.833,134.323 L170.406,134.333 L170.414,134.042 L171.269,134.068 L171.274,133.774 L172.133,133.787 L172.137,133.506 L172.995,133.519 L173.003,133.226 L173.859,133.238 L173.863,132.958 L174.722,132.97 L174.718,133.264 L175.291,133.264 L175.284,133.554 L175.571,133.554 L175.567,133.848 L176.139,133.86 L176.135,134.138 L176.42,134.151 L176.416,134.431 L176.988,134.444 L176.984,134.735 L177.556,134.747 L177.548,135.028 L178.407,135.041 L178.403,135.331 L178.975,135.344 L178.967,135.625 L179.829,135.647 L179.799,137.363 L179.512,137.363 L179.488,138.799 L179.203,138.789 L179.122,143.376 L179.41,143.389 L179.403,143.96 L179.686,143.96 L179.682,144.25 L180.254,144.263 L180.25,144.544 L180.822,144.557 L180.814,144.847 L181.103,144.847 L181.09,145.421 L180.805,145.421 L180.803,145.699 L180.514,145.699 L180.509,145.992 L180.227,145.979 L180.218,146.273 L179.933,146.26 L179.929,146.55 L179.641,146.55"/>
<path vector-effect="none" fill-rule="evenodd" d="M187.128,143.801 L187.137,143.23 L187.424,143.242 L187.454,141.513 L187.169,141.513 L187.177,140.93 L186.892,140.93 L186.896,140.636 L186.609,140.636 L186.618,140.359 L186.328,140.346 L186.333,140.065 L186.05,140.052 L186.054,139.775 L185.482,139.762 L185.486,139.469 L184.914,139.456 L184.918,139.178 L184.346,139.166 L184.352,138.872 L183.782,138.872 L183.784,138.582 L182.641,138.556 L182.646,138.276 L181.501,138.253 L181.505,137.972 L180.075,137.947 L180.08,137.657 L178.363,137.631 L178.367,137.341 L178.084,137.341 L178.09,136.757 L177.807,136.757 L177.816,136.183 L177.531,136.17 L177.535,135.893 L177.82,135.893 L177.824,135.612 L178.397,135.625 L178.403,135.331 L178.688,135.331 L178.693,135.054 L179.265,135.063 L179.271,134.773 L179.556,134.773 L179.561,134.492 L180.133,134.505 L180.137,134.211 L180.709,134.224 L180.718,133.934 L181.001,133.943 L181.005,133.653 L181.578,133.666 L181.586,133.372 L182.158,133.385 L182.163,133.104 L182.446,133.104 L182.454,132.814 L182.737,132.824 L182.741,132.533 L183.314,132.546 L183.318,132.253 L183.607,132.265 L183.609,131.972 L184.182,131.985 L184.186,131.704 L184.475,131.704 L184.48,131.414 L184.767,131.426 L184.775,130.852 L185.058,130.852 L185.067,130.562 L185.352,130.574 L185.356,130.281 L185.643,130.294 L185.639,130.574 L185.924,130.587 L185.92,130.865 L187.065,130.89 L187.06,131.171 L187.916,131.193 L187.911,131.474 L189.056,131.5 L189.052,131.777 L190.196,131.803 L190.192,132.096 L191.337,132.106 L191.328,132.399 L191.618,132.399 L191.596,133.545 L191.886,133.554 L191.847,135.564 L192.137,135.564 L192.066,139.58 L191.779,139.58 L191.775,139.871 L191.488,139.858 L191.484,140.151 L191.198,140.139 L191.19,140.432 L190.622,140.419 L190.615,140.71 L190.33,140.7 L190.326,140.99 L190.039,140.99 L190.03,141.561 L189.741,141.552 L189.739,141.842 L189.45,141.829 L189.445,142.123 L189.162,142.123 L189.15,142.694 L188.864,142.681 L188.862,142.974 L188.573,142.974 L188.56,143.826 L187.128,143.801"/>
<path vector-effect="none" fill-rule="evenodd" d="M179.184,156.579 L179.19,156.299 L178.903,156.286 L178.952,153.428 L179.239,153.428 L179.337,147.683 L179.05,147.683 L179.073,146.247 L178.79,146.247 L178.805,145.383 L179.09,145.383 L179.095,145.102 L179.382,145.102 L179.386,144.825 L180.241,144.837 L180.25,144.544 L181.107,144.569 L181.103,144.847 L183.103,144.885 L183.112,144.592 L183.684,144.605 L183.688,144.324 L184.26,144.324 L184.265,144.046 L184.548,144.046 L184.556,143.766 L185.701,143.778 L185.705,143.498 L186.56,143.51 L186.565,143.217 L187.424,143.242 L187.428,142.949 L188.001,142.962 L188.005,142.671 L188.294,142.681 L188.29,142.962 L188.573,142.974 L188.564,143.546 L188.85,143.546 L188.841,144.117 L189.126,144.129 L189.118,144.703 L189.401,144.703 L189.392,145.274 L189.677,145.287 L189.669,145.858 L189.958,145.858 L189.945,146.442 L190.233,146.442 L190.192,148.742 L189.905,148.729 L189.892,149.594 L189.605,149.581 L189.592,150.445 L189.303,150.445 L189.292,151.31 L189.003,151.297 L188.988,152.161 L188.703,152.149 L188.688,153.013 L188.403,153.013 L188.382,154.158 L188.099,154.158 L188.082,155.01 L187.794,155.01 L187.79,155.3 L182.641,155.205 L182.637,155.495 L181.492,155.472 L181.488,155.763 L180.916,155.75 L180.912,156.043 L180.339,156.031 L180.335,156.311 L179.763,156.311 L179.754,156.592 L179.184,156.579 M186.662,154.413 L186.667,154.133 L187.239,154.133 L187.243,153.852 L187.53,153.852 L187.558,152.136 L187.275,152.126 L187.279,151.846 L186.418,151.833 L186.439,150.678 L186.726,150.688 L186.735,150.117 L185.59,150.094 L185.586,150.385 L185.871,150.385 L185.867,150.678 L186.154,150.678 L186.135,151.82 L185.562,151.807 L185.558,152.101 L185.271,152.101 L185.262,152.672 L184.973,152.659 L184.963,153.523 L185.245,153.536 L185.237,154.107 L185.809,154.107 L185.801,154.401 L186.662,154.413"/>
<path vector-effect="none" fill-rule="evenodd" d="M171.031,165.048 L171.035,164.767 L170.746,164.767 L170.759,164.183 L170.469,164.183 L170.486,163.319 L170.203,163.319 L170.206,163.029 L169.918,163.029 L169.931,162.455 L169.642,162.442 L169.646,162.164 L169.363,162.152 L169.372,161.581 L169.086,161.581 L169.091,161.287 L168.804,161.287 L168.81,160.994 L168.523,160.994 L168.535,160.423 L168.246,160.41 L168.25,160.133 L167.967,160.12 L167.972,159.839 L167.687,159.826 L167.695,159.255 L167.406,159.255 L167.423,158.391 L167.71,158.391 L167.723,157.539 L168.012,157.539 L168.018,156.968 L168.308,156.968 L168.316,156.397 L168.599,156.407 L168.612,155.823 L168.895,155.836 L168.908,155.265 L169.193,155.265 L169.204,154.691 L169.489,154.691 L169.506,153.839 L169.789,153.839 L169.784,154.12 L171.501,154.158 L171.497,154.436 L179.22,154.57 L179.224,154.292 L180.656,154.315 L180.62,156.324 L180.335,156.311 L180.28,159.476 L179.707,159.463 L179.703,159.753 L179.131,159.743 L179.127,160.021 L178.841,160.021 L178.835,160.314 L178.55,160.302 L178.546,160.595 L178.258,160.582 L178.25,161.153 L177.961,161.153 L177.959,161.447 L177.673,161.434 L177.661,162.005 L177.378,162.005 L177.365,162.576 L177.082,162.576 L177.069,163.15 L176.784,163.137 L176.78,163.428 L176.493,163.428 L176.484,164.002 L176.197,163.989 L176.188,164.573 L175.616,164.56 L175.612,164.841 L175.325,164.841 L175.32,165.131 L171.031,165.048"/>
<path vector-effect="none" fill-rule="evenodd" d="M179.184,156.579 L179.19,156.299 L178.903,156.286 L178.952,153.428 L179.239,153.428 L179.337,147.683 L179.05,147.683 L179.073,146.247 L178.79,146.247 L178.805,145.383 L179.09,145.383 L179.095,145.102 L179.382,145.102 L179.386,144.825 L180.241,144.837 L180.25,144.544 L181.107,144.569 L181.103,144.847 L183.103,144.885 L183.112,144.592 L183.684,144.605 L183.688,144.324 L184.26,144.324 L184.265,144.046 L184.548,144.046 L184.556,143.766 L185.701,143.778 L185.705,143.498 L186.56,143.51 L186.565,143.217 L187.424,143.242 L187.428,142.949 L188.001,142.962 L188.005,142.671 L188.294,142.681 L188.29,142.962 L188.573,142.974 L188.564,143.546 L188.85,143.546 L188.841,144.117 L189.126,144.129 L189.118,144.703 L189.401,144.703 L189.392,145.274 L189.677,145.287 L189.669,145.858 L189.958,145.858 L189.945,146.442 L190.233,146.442 L190.192,148.742 L189.905,148.729 L189.892,149.594 L189.605,149.581 L189.592,150.445 L189.303,150.445 L189.292,151.31 L189.003,151.297 L188.988,152.161 L188.703,152.149 L188.688,153.013 L188.403,153.013 L188.382,154.158 L188.099,154.158 L188.082,155.01 L187.794,155.01 L187.79,155.3 L182.641,155.205 L182.637,155.495 L181.492,155.472 L181.488,155.763 L180.916,155.75 L180.912,156.043 L180.339,156.031 L180.335,156.311 L179.763,156.311 L179.754,156.592 L179.184,156.579 M186.662,154.413 L186.667,154.133 L187.239,154.133 L187.243,153.852 L187.53,153.852 L187.558,152.136 L187.275,152.126 L187.279,151.846 L186.418,151.833 L186.439,150.678 L186.726,150.688 L186.735,150.117 L185.59,150.094 L185.586,150.385 L185.871,150.385 L185.867,150.678 L186.154,150.678 L186.135,151.82 L185.562,151.807 L185.558,152.101 L185.271,152.101 L185.262,152.672 L184.973,152.659 L184.963,153.523 L185.245,153.536 L185.237,154.107 L185.809,154.107 L185.801,154.401 L186.662,154.413"/>
<path vector-effect="none" fill-rule="evenodd" d="M183.916,164.413 L183.918,164.123 L183.635,164.123 L183.639,163.829 L183.354,163.829 L183.358,163.539 L182.786,163.539 L182.79,163.246 L182.507,163.246 L182.512,162.955 L182.222,162.955 L182.235,162.372 L181.946,162.372 L181.95,162.078 L181.667,162.078 L181.671,161.785 L181.386,161.785 L181.39,161.495 L181.103,161.495 L181.112,161.201 L180.822,161.201 L180.826,160.924 L180.541,160.911 L180.546,160.63 L180.263,160.617 L180.267,160.337 L179.978,160.327 L179.982,160.047 L179.699,160.034 L179.703,159.753 L179.418,159.743 L179.422,159.463 L179.135,159.45 L179.141,159.169 L178.854,159.157 L178.867,158.586 L178.578,158.586 L178.616,156.579 L178.327,156.567 L178.344,155.702 L178.627,155.715 L178.631,155.421 L178.92,155.434 L178.927,154.863 L179.216,154.863 L179.22,154.57 L179.503,154.583 L179.512,154.292 L179.797,154.302 L179.807,153.718 L180.092,153.731 L180.097,153.441 L180.384,153.45 L180.392,152.866 L182.109,152.905 L182.105,153.182 L184.677,153.233 L184.673,153.523 L184.963,153.523 L184.954,153.817 L185.241,153.817 L185.237,154.107 L185.522,154.107 L185.518,154.401 L186.945,154.426 L186.954,154.133 L187.239,154.133 L187.243,153.852 L188.103,153.865 L188.099,154.158 L188.382,154.158 L188.379,154.449 L188.662,154.449 L188.658,154.742 L188.947,154.742 L188.939,155.032 L189.511,155.032 L189.507,155.326 L189.794,155.326 L189.786,155.616 L190.358,155.629 L190.354,155.909 L190.643,155.922 L190.635,156.2 L190.922,156.212 L190.915,156.787 L191.198,156.787 L191.184,157.648 L191.471,157.661 L191.458,158.235 L191.747,158.235 L191.743,158.525 L192.026,158.525 L192.022,158.818 L192.594,158.818 L192.59,159.109 L193.162,159.121 L193.158,159.402 L193.443,159.415 L193.435,159.986 L193.72,159.986 L193.711,160.57 L193.994,160.57 L193.99,160.863 L194.275,160.863 L194.271,161.153 L194.558,161.153 L194.552,161.434 L194.839,161.447 L194.843,161.153 L195.415,161.166 L195.42,160.885 L195.707,160.885 L195.692,161.75 L195.979,161.75 L195.966,162.321 L195.394,162.308 L195.39,162.601 L194.82,162.589 L194.815,162.882 L194.526,162.869 L194.522,163.16 L193.666,163.15 L193.671,162.857 L191.098,162.821 L191.09,163.099 L190.233,163.089 L190.228,163.367 L189.656,163.367 L189.652,163.648 L188.792,163.635 L188.788,163.928 L188.216,163.916 L188.211,164.196 L187.352,164.183 L187.348,164.474 L185.348,164.439 L185.352,164.145 L184.49,164.136 L184.486,164.426 L183.916,164.413"/>
<path vector-effect="none" fill-rule="evenodd" d="M190.407,169.695 L190.411,169.402 L189.839,169.392 L189.843,169.111 L189.271,169.099 L189.284,168.528 L188.996,168.515 L188.999,168.234 L188.716,168.221 L188.72,167.944 L188.43,167.931 L188.439,167.651 L188.152,167.638 L188.156,167.36 L187.871,167.348 L187.888,166.496 L187.599,166.483 L187.607,165.912 L187.324,165.912 L187.328,165.619 L187.043,165.619 L187.048,165.329 L186.76,165.329 L186.767,165.035 L186.479,165.035 L186.484,164.742 L186.199,164.742 L186.203,164.451 L185.92,164.451 L185.924,164.158 L185.635,164.158 L185.643,163.868 L185.928,163.88 L185.931,163.587 L186.22,163.587 L186.224,163.306 L187.941,163.332 L187.945,163.051 L188.233,163.051 L188.237,162.761 L188.52,162.77 L188.524,162.48 L189.096,162.493 L189.105,162.212 L189.39,162.212 L189.392,161.919 L189.964,161.932 L189.969,161.651 L190.258,161.651 L190.262,161.361 L190.835,161.373 L190.837,161.093 L191.126,161.093 L191.13,160.799 L191.703,160.812 L191.707,160.535 L192.849,160.544 L192.854,160.267 L193.143,160.267 L193.139,160.557 L193.711,160.57 L193.703,160.85 L193.99,160.863 L193.988,161.141 L194.271,161.153 L194.266,161.434 L194.839,161.447 L194.834,161.724 L195.12,161.737 L195.115,162.018 L195.403,162.03 L195.39,162.601 L195.107,162.601 L195.094,163.172 L194.811,163.16 L194.798,163.746 L194.515,163.734 L194.503,164.305 L194.217,164.305 L194.207,164.876 L193.922,164.876 L193.913,165.45 L193.626,165.437 L193.609,166.301 L193.326,166.301 L193.322,166.579 L193.032,166.579 L193.022,167.443 L192.732,167.43 L192.713,168.588 L192.428,168.575 L192.409,169.72 L190.407,169.695"/>
<path vector-effect="none" fill-rule="evenodd" d="M183.916,164.413 L183.918,164.123 L183.635,164.123 L183.639,163.829 L183.354,163.829 L183.358,163.539 L182.786,163.539 L182.79,163.246 L182.507,163.246 L182.512,162.955 L182.222,162.955 L182.235,162.372 L181.946,162.372 L181.95,162.078 L181.667,162.078 L181.671,161.785 L181.386,161.785 L181.39,161.495 L181.103,161.495 L181.112,161.201 L180.822,161.201 L180.826,160.924 L180.541,160.911 L180.546,160.63 L180.263,160.617 L180.267,160.337 L179.978,160.327 L179.982,160.047 L179.699,160.034 L179.703,159.753 L179.418,159.743 L179.422,159.463 L179.135,159.45 L179.141,159.169 L178.854,159.157 L178.867,158.586 L178.578,158.586 L178.616,156.579 L178.327,156.567 L178.344,155.702 L178.627,155.715 L178.631,155.421 L178.92,155.434 L178.927,154.863 L179.216,154.863 L179.22,154.57 L179.503,154.583 L179.512,154.292 L179.797,154.302 L179.807,153.718 L180.092,153.731 L180.097,153.441 L180.384,153.45 L180.392,152.866 L182.109,152.905 L182.105,153.182 L184.677,153.233 L184.673,153.523 L184.963,153.523 L184.954,153.817 L185.241,153.817 L185.237,154.107 L185.522,154.107 L185.518,154.401 L186.945,154.426 L186.954,154.133 L187.239,154.133 L187.243,153.852 L188.103,153.865 L188.099,154.158 L188.382,154.158 L188.379,154.449 L188.662,154.449 L188.658,154.742 L188.947,154.742 L188.939,155.032 L189.511,155.032 L189.507,155.326 L189.794,155.326 L189.786,155.616 L190.358,155.629 L190.354,155.909 L190.643,155.922 L190.635,156.2 L190.922,156.212 L190.915,156.787 L191.198,156.787 L191.184,157.648 L191.471,157.661 L191.458,158.235 L191.747,158.235 L191.743,158.525 L192.026,158.525 L192.022,158.818 L192.594,158.818 L192.59,159.109 L193.162,159.121 L193.158,159.402 L193.443,159.415 L193.435,159.986 L193.72,159.986 L193.711,160.57 L193.994,160.57 L193.99,160.863 L194.275,160.863 L194.271,161.153 L194.558,161.153 L194.552,161.434 L194.839,161.447 L194.843,161.153 L195.415,161.166 L195.42,160.885 L195.707,160.885 L195.692,161.75 L195.979,161.75 L195.966,162.321 L195.394,162.308 L195.39,162.601 L194.82,162.589 L194.815,162.882 L194.526,162.869 L194.522,163.16 L193.666,163.15 L193.671,162.857 L191.098,162.821 L191.09,163.099 L190.233,163.089 L190.228,163.367 L189.656,163.367 L189.652,163.648 L188.792,163.635 L188.788,163.928 L188.216,163.916 L188.211,164.196 L187.352,164.183 L187.348,164.474 L185.348,164.439 L185.352,164.145 L184.49,164.136 L184.486,164.426 L183.916,164.413"/>
<path vector-effect="none" fill-rule="evenodd" d="M180.035,173.819 L180.039,173.529 L179.467,173.516 L179.475,173.235 L179.186,173.223 L179.19,172.945 L178.618,172.932 L178.627,172.639 L178.339,172.639 L178.344,172.349 L178.058,172.349 L178.063,172.055 L177.78,172.055 L177.784,171.762 L177.495,171.762 L177.507,171.191 L177.218,171.178 L177.231,170.607 L176.944,170.607 L176.95,170.036 L176.667,170.023 L176.684,169.172 L176.395,169.159 L176.412,168.308 L176.122,168.295 L176.139,167.43 L175.852,167.43 L175.863,166.86 L175.576,166.847 L175.588,166.276 L175.299,166.276 L175.312,165.705 L174.739,165.692 L174.744,165.399 L174.454,165.399 L174.463,165.108 L173.603,165.096 L173.616,164.525 L174.188,164.538 L174.191,164.244 L174.476,164.257 L174.48,163.963 L174.767,163.963 L174.771,163.686 L175.061,163.686 L175.065,163.405 L175.348,163.405 L175.361,162.831 L175.644,162.831 L175.656,162.26 L175.942,162.273 L175.948,161.689 L176.237,161.702 L176.256,160.544 L176.542,160.557 L176.554,159.986 L176.837,159.986 L176.854,159.121 L177.137,159.134 L177.15,158.563 L177.433,158.563 L177.446,157.989 L177.731,157.989 L177.735,157.712 L178.022,157.712 L178.027,157.431 L178.599,157.431 L178.603,157.15 L178.89,157.15 L178.895,156.87 L179.752,156.882 L179.744,157.453 L180.027,157.453 L180.018,158.04 L180.303,158.04 L180.299,158.318 L180.586,158.33 L180.575,158.901 L180.863,158.901 L180.85,159.485 L181.139,159.485 L181.126,160.059 L181.416,160.072 L181.412,160.35 L181.695,160.362 L181.69,160.643 L181.975,160.656 L181.963,161.507 L182.248,161.52 L182.243,161.798 L182.531,161.81 L182.518,162.381 L182.807,162.381 L182.803,162.675 L183.086,162.675 L183.08,163.246 L183.652,163.258 L183.643,163.552 L183.931,163.552 L183.926,163.842 L184.211,163.842 L184.194,164.707 L183.911,164.694 L183.894,165.558 L183.609,165.558 L183.607,165.839 L183.318,165.839 L183.314,166.129 L183.031,166.116 L183.018,166.69 L182.733,166.69 L182.722,167.261 L182.437,167.261 L182.422,168.113 L182.137,168.113 L182.12,168.977 L181.837,168.965 L181.82,169.829 L181.533,169.829 L181.524,170.4 L181.241,170.387 L181.224,171.251 L180.937,171.251 L180.924,172.103 L180.635,172.103 L180.624,172.967 L180.335,172.955 L180.324,173.819 L180.035,173.819"/>
<path vector-effect="none" fill-rule="evenodd" d="M180.035,173.819 L180.039,173.529 L179.467,173.516 L179.475,173.235 L179.186,173.223 L179.19,172.945 L178.618,172.932 L178.627,172.639 L178.339,172.639 L178.344,172.349 L178.058,172.349 L178.063,172.055 L177.78,172.055 L177.784,171.762 L177.495,171.762 L177.507,171.191 L177.218,171.178 L177.231,170.607 L176.944,170.607 L176.95,170.036 L176.667,170.023 L176.684,169.172 L176.395,169.159 L176.412,168.308 L176.122,168.295 L176.139,167.43 L175.852,167.43 L175.863,166.86 L175.576,166.847 L175.588,166.276 L175.299,166.276 L175.312,165.705 L174.739,165.692 L174.744,165.399 L174.454,165.399 L174.463,165.108 L173.603,165.096 L173.616,164.525 L174.188,164.538 L174.191,164.244 L174.476,164.257 L174.48,163.963 L174.767,163.963 L174.771,163.686 L175.061,163.686 L175.065,163.405 L175.348,163.405 L175.361,162.831 L175.644,162.831 L175.656,162.26 L175.942,162.273 L175.948,161.689 L176.237,161.702 L176.256,160.544 L176.542,160.557 L176.554,159.986 L176.837,159.986 L176.854,159.121 L177.137,159.134 L177.15,158.563 L177.433,158.563 L177.446,157.989 L177.731,157.989 L177.735,157.712 L178.022,157.712 L178.027,157.431 L178.599,157.431 L178.603,157.15 L178.89,157.15 L178.895,156.87 L179.752,156.882 L179.744,157.453 L180.027,157.453 L180.018,158.04 L180.303,158.04 L180.299,158.318 L180.586,158.33 L180.575,158.901 L180.863,158.901 L180.85,159.485 L181.139,159.485 L181.126,160.059 L181.416,160.072 L181.412,160.35 L181.695,160.362 L181.69,160.643 L181.975,160.656 L181.963,161.507 L182.248,161.52 L182.243,161.798 L182.531,161.81 L182.518,162.381 L182.807,162.381 L182.803,162.675 L183.086,162.675 L183.08,163.246 L183.652,163.258 L183.643,163.552 L183.931,163.552 L183.926,163.842 L184.211,163.842 L184.194,164.707 L183.911,164.694 L183.894,165.558 L183.609,165.558 L183.607,165.839 L183.318,165.839 L183.314,166.129 L183.031,166.116 L183.018,166.69 L182.733,166.69 L182.722,167.261 L182.437,167.261 L182.422,168.113 L182.137,168.113 L182.12,168.977 L181.837,168.965 L181.82,169.829 L181.533,169.829 L181.524,170.4 L181.241,170.387 L181.224,171.251 L180.937,171.251 L180.924,172.103 L180.635,172.103 L180.624,172.967 L180.335,172.955 L180.324,173.819 L180.035,173.819"/>
<path vector-effect="none" fill-rule="evenodd" d="M171.031,165.048 L171.035,164.767 L170.746,164.767 L170.759,164.183 L170.469,164.183 L170.486,163.319 L170.203,163.319 L170.206,163.029 L169.918,163.029 L169.931,162.455 L169.642,162.442 L169.646,162.164 L169.363,162.152 L169.372,161.581 L169.086,161.581 L169.091,161.287 L168.804,161.287 L168.81,160.994 L168.523,160.994 L168.535,160.423 L168.246,160.41 L168.25,160.133 L167.967,160.12 L167.972,159.839 L167.687,159.826 L167.695,159.255 L167.406,159.255 L167.423,158.391 L167.71,158.391 L167.723,157.539 L168.012,157.539 L168.018,156.968 L168.308,156.968 L168.316,156.397 L168.599,156.407 L168.612,155.823 L168.895,155.836 L168.908,155.265 L169.193,155.265 L169.204,154.691 L169.489,154.691 L169.506,153.839 L169.789,153.839 L169.784,154.12 L171.501,154.158 L171.497,154.436 L179.22,154.57 L179.224,154.292 L180.656,154.315 L180.62,156.324 L180.335,156.311 L180.28,159.476 L179.707,159.463 L179.703,159.753 L179.131,159.743 L179.127,160.021 L178.841,160.021 L178.835,160.314 L178.55,160.302 L178.546,160.595 L178.258,160.582 L178.25,161.153 L177.961,161.153 L177.959,161.447 L177.673,161.434 L177.661,162.005 L177.378,162.005 L177.365,162.576 L177.082,162.576 L177.069,163.15 L176.784,163.137 L176.78,163.428 L176.493,163.428 L176.484,164.002 L176.197,163.989 L176.188,164.573 L175.616,164.56 L175.612,164.841 L175.325,164.841 L175.32,165.131 L171.031,165.048"/>
<path vector-effect="none" fill-rule="evenodd" d="M158.917,170.582 L158.925,170.304 L158.066,170.279 L158.07,169.998 L157.498,169.988 L157.504,169.695 L156.644,169.682 L156.649,169.402 L156.076,169.392 L156.085,169.099 L155.513,169.099 L155.517,168.808 L155.8,168.808 L155.812,168.234 L156.098,168.247 L156.102,167.954 L156.389,167.954 L156.398,167.383 L156.685,167.395 L156.693,166.824 L156.981,166.824 L156.989,166.25 L157.278,166.25 L157.283,165.973 L157.566,165.973 L157.578,165.399 L157.861,165.399 L157.866,165.121 L158.155,165.121 L158.161,164.547 L158.451,164.547 L158.459,163.976 L158.746,163.989 L158.755,163.405 L159.038,163.418 L159.051,162.844 L159.336,162.844 L159.346,162.273 L159.632,162.273 L159.636,161.992 L159.923,161.992 L159.931,161.421 L160.219,161.421 L160.227,160.85 L160.517,160.863 L160.521,160.57 L161.093,160.582 L161.095,160.289 L161.953,160.302 L161.961,160.021 L162.534,160.034 L162.538,159.743 L163.393,159.753 L163.397,159.476 L163.97,159.476 L163.978,159.195 L164.833,159.208 L164.838,158.927 L165.41,158.927 L165.414,158.646 L165.987,158.659 L165.995,158.369 L167.14,158.391 L167.142,158.101 L168.572,158.123 L168.567,158.417 L168.855,158.417 L168.844,158.988 L169.131,159 L169.114,159.852 L169.399,159.865 L169.391,160.436 L169.68,160.436 L169.663,161.3 L169.946,161.3 L169.94,161.884 L170.227,161.884 L170.218,162.177 L170.508,162.177 L170.491,163.038 L170.778,163.038 L170.763,163.903 L171.05,163.903 L171.035,164.767 L171.318,164.767 L171.314,165.061 L171.031,165.048 L171.014,165.912 L170.731,165.912 L170.718,166.483 L170.433,166.483 L170.423,167.054 L170.138,167.041 L170.129,167.615 L169.842,167.615 L169.833,168.186 L169.546,168.186 L169.538,168.757 L169.248,168.757 L169.238,169.609 L168.948,169.609 L168.944,169.902 L168.657,169.89 L168.652,170.183 L168.367,170.17 L168.365,170.46 L167.793,170.448 L167.784,170.741 L166.355,170.716 L166.359,170.425 L165.214,170.4 L165.219,170.119 L164.078,170.097 L164.082,169.816 L160.651,169.756 L160.646,170.036 L159.785,170.023 L159.783,170.317 L159.497,170.304 L159.489,170.594 L158.917,170.582"/>
<path vector-effect="none" fill-rule="evenodd" d="M162.525,177.251 L162.529,176.957 L161.957,176.948 L161.965,176.667 L160.821,176.642 L160.829,176.071 L160.544,176.071 L160.561,174.913 L160.276,174.913 L160.285,174.342 L160.002,174.329 L160.008,173.758 L159.725,173.758 L159.734,173.187 L159.449,173.175 L159.457,172.604 L159.172,172.604 L159.18,172.03 L158.893,172.02 L158.906,171.446 L158.617,171.446 L158.629,170.862 L158.34,170.862 L158.349,170.572 L158.061,170.572 L158.07,169.998 L157.785,169.988 L157.802,169.137 L157.512,169.124 L157.517,168.843 L157.806,168.843 L157.81,168.563 L158.093,168.563 L158.102,168.272 L158.385,168.282 L158.393,167.711 L159.255,167.724 L159.257,167.43 L162.119,167.481 L162.114,167.772 L163.259,167.784 L163.255,168.078 L163.823,168.087 L163.819,168.368 L164.68,168.394 L164.676,168.674 L165.531,168.684 L165.527,168.977 L166.672,169.003 L166.667,169.28 L168.669,169.319 L168.652,170.183 L168.367,170.17 L168.34,171.896 L168.052,171.886 L168.008,174.476 L168.295,174.476 L168.291,174.769 L168.576,174.769 L168.572,175.06 L168.855,175.06 L168.844,175.924 L168.555,175.911 L168.559,175.634 L168.276,175.621 L168.278,175.34 L167.995,175.328 L167.999,175.047 L167.71,175.037 L167.718,174.757 L166.859,174.744 L166.855,175.025 L166.57,175.025 L166.563,175.305 L166.278,175.305 L166.274,175.583 L165.987,175.583 L165.982,175.876 L165.695,175.863 L165.691,176.157 L165.119,176.144 L165.114,176.434 L164.829,176.425 L164.821,176.715 L164.248,176.702 L164.246,176.996 L163.674,176.983 L163.67,177.263 L162.525,177.251"/>
<path vector-effect="none" fill-rule="evenodd" d="M146.443,180.985 L146.447,180.705 L145.875,180.692 L145.879,180.414 L145.306,180.402 L145.311,180.108 L144.738,180.099 L144.747,179.818 L144.458,179.805 L144.541,174.938 L144.828,174.938 L144.832,174.648 L145.115,174.658 L145.124,174.368 L145.409,174.38 L145.413,174.087 L145.985,174.1 L145.996,173.529 L146.281,173.529 L146.292,172.955 L146.577,172.955 L146.585,172.384 L146.872,172.396 L146.881,171.813 L147.168,171.826 L147.177,171.251 L147.466,171.251 L147.47,170.961 L147.753,170.974 L147.766,170.4 L148.049,170.4 L148.053,170.11 L148.343,170.119 L148.347,169.829 L148.63,169.842 L148.643,169.268 L148.926,169.268 L148.934,168.977 L149.219,168.99 L149.223,168.697 L149.796,168.709 L149.798,168.416 L151.804,168.454 L151.808,168.174 L153.523,168.199 L153.527,167.906 L158.389,167.992 L158.385,168.282 L158.957,168.295 L158.953,168.575 L159.238,168.588 L159.234,168.869 L159.521,168.878 L159.51,169.453 L159.797,169.453 L159.778,170.594 L160.061,170.607 L160.044,171.752 L160.329,171.762 L160.306,173.187 L160.593,173.2 L160.572,174.342 L160.857,174.355 L160.834,175.777 L161.121,175.79 L161.108,176.361 L161.397,176.361 L161.393,176.654 L161.104,176.654 L161.095,177.225 L160.808,177.212 L160.795,178.077 L160.508,178.077 L160.504,178.357 L160.219,178.357 L160.212,178.638 L159.927,178.638 L159.923,178.928 L159.636,178.919 L159.627,179.49 L159.34,179.49 L159.336,179.78 L159.051,179.77 L159.038,180.341 L158.755,180.341 L158.742,180.912 L154.17,180.839 L154.174,180.548 L152.172,180.51 L152.176,180.233 L149.315,180.182 L149.313,180.462 L147.596,180.437 L147.592,180.717 L147.019,180.717 L147.015,180.998 L146.443,180.985"/>
<path vector-effect="none" fill-rule="evenodd" d="M153.693,192.02 L153.698,191.726 L153.41,191.726 L153.423,191.156 L153.134,191.143 L153.147,190.572 L152.859,190.572 L152.862,190.279 L152.579,190.279 L152.583,189.988 L152.298,189.988 L152.302,189.695 L152.015,189.695 L152.028,189.124 L151.738,189.111 L151.747,188.834 L151.459,188.821 L151.462,188.541 L151.179,188.528 L151.183,188.247 L150.898,188.238 L150.902,187.957 L150.615,187.944 L150.619,187.664 L150.334,187.651 L150.338,187.373 L150.055,187.361 L150.057,187.08 L149.77,187.067 L149.779,186.79 L149.489,186.777 L149.494,186.496 L149.211,186.484 L149.215,186.206 L148.93,186.193 L148.934,185.913 L148.647,185.913 L148.657,185.329 L148.37,185.329 L148.374,185.036 L148.089,185.036 L148.094,184.745 L147.811,184.745 L147.815,184.452 L147.526,184.452 L147.53,184.162 L147.247,184.162 L147.251,183.868 L146.966,183.868 L146.97,183.578 L146.683,183.578 L146.689,183.298 L146.402,183.285 L146.406,183.004 L146.121,182.991 L146.126,182.714 L145.843,182.701 L145.847,182.421 L145.558,182.408 L145.562,182.13 L145.279,182.118 L145.283,181.837 L144.998,181.824 L145.002,181.543 L144.715,181.534 L144.721,181.253 L144.434,181.241 L144.438,180.96 L144.153,180.95 L144.158,180.67 L143.875,180.657 L143.894,179.222 L144.183,179.234 L144.211,177.506 L144.498,177.519 L144.528,175.79 L144.811,175.803 L144.828,174.938 L145.111,174.938 L145.115,174.658 L145.404,174.658 L145.409,174.38 L145.981,174.38 L145.985,174.1 L146.555,174.112 L146.56,173.819 L146.849,173.819 L146.853,173.538 L147.14,173.538 L147.145,173.261 L147.43,173.261 L147.432,172.967 L147.721,172.98 L147.73,172.409 L148.017,172.409 L148.021,172.129 L148.306,172.129 L148.313,171.835 L148.598,171.848 L148.602,171.558 L148.889,171.567 L148.894,171.277 L149.179,171.277 L149.185,170.996 L149.47,170.996 L149.438,173.006 L149.721,173.015 L149.713,173.589 L149.998,173.589 L149.989,174.16 L150.274,174.173 L150.266,174.744 L150.553,174.744 L150.538,175.608 L150.821,175.608 L150.817,175.898 L151.106,175.898 L151.102,176.192 L151.385,176.192 L151.381,176.485 L151.666,176.485 L151.662,176.775 L151.949,176.775 L151.942,177.069 L152.23,177.069 L152.225,177.359 L152.51,177.359 L152.506,177.653 L153.079,177.665 L153.074,177.943 L153.357,177.956 L153.353,178.236 L153.642,178.249 L153.634,178.526 L154.493,178.539 L154.489,178.833 L155.061,178.845 L155.053,179.123 L155.625,179.136 L155.621,179.429 L157.055,179.451 L157.046,179.732 L157.334,179.745 L157.338,179.451 L158.768,179.477 L158.774,179.196 L159.059,179.196 L159.063,178.906 L159.351,178.919 L159.355,178.625 L159.64,178.638 L159.649,178.345 L159.931,178.345 L159.923,178.928 L159.636,178.919 L159.627,179.49 L159.34,179.49 L159.323,180.631 L159.606,180.644 L159.591,181.496 L159.878,181.508 L159.874,181.789 L160.159,181.802 L160.155,182.079 L160.442,182.092 L160.436,182.373 L160.723,182.385 L160.719,182.663 L161.291,182.676 L161.283,182.969 L161.572,182.969 L161.568,183.259 L162.14,183.272 L162.131,183.553 L162.704,183.565 L162.699,183.843 L163.272,183.856 L163.268,184.149 L164.123,184.162 L164.119,184.452 L165.553,184.478 L165.544,184.758 L167.833,184.793 L167.838,184.513 L168.125,184.513 L168.108,185.377 L168.397,185.377 L168.38,186.241 L168.097,186.241 L168.089,186.522 L167.804,186.522 L167.797,187.093 L167.508,187.093 L167.504,187.373 L167.216,187.373 L167.212,187.651 L166.927,187.651 L166.923,187.944 L166.636,187.931 L166.627,188.505 L166.34,188.505 L166.336,188.796 L166.046,188.783 L166.044,189.076 L165.759,189.064 L165.755,189.357 L165.467,189.344 L165.459,189.928 L165.17,189.915 L165.167,190.208 L164.882,190.196 L164.874,190.486 L164.591,190.486 L164.582,191.06 L164.293,191.047 L164.291,191.337 L164.002,191.337 L163.993,191.911 L163.71,191.899 L163.702,192.189 L153.693,192.02"/>
<path vector-effect="none" fill-rule="evenodd" d="M159.931,178.345 L159.936,178.064 L160.223,178.064 L160.219,178.357 L159.931,178.345"/>
<path vector-effect="none" fill-rule="evenodd" d="M149.515,202.275 L149.519,201.995 L148.947,201.982 L148.955,201.692 L148.383,201.679 L148.387,201.399 L147.815,201.386 L147.819,201.096 L147.534,201.096 L147.538,200.802 L147.823,200.815 L147.851,199.087 L147.566,199.087 L147.583,198.222 L147.296,198.222 L147.306,197.652 L147.019,197.639 L147.028,197.068 L146.743,197.068 L146.751,196.497 L146.466,196.484 L146.47,196.204 L146.187,196.191 L146.196,195.62 L145.906,195.62 L145.919,195.037 L145.632,195.037 L145.638,194.743 L145.351,194.743 L145.355,194.453 L145.07,194.453 L145.075,194.172 L144.792,194.16 L144.8,193.589 L144.511,193.589 L144.519,193.295 L144.232,193.295 L144.234,193.005 L143.951,193.005 L143.955,192.712 L143.383,192.702 L143.387,192.422 L143.102,192.409 L143.107,192.128 L142.824,192.116 L142.828,191.838 L142.256,191.825 L142.26,191.532 L141.402,191.522 L141.407,191.242 L140.547,191.216 L140.543,191.51 L139.398,191.484 L139.394,191.777 L138.822,191.765 L138.817,192.055 L138.53,192.045 L138.526,192.336 L138.241,192.336 L138.237,192.616 L137.664,192.603 L137.668,192.323 L137.381,192.313 L137.39,192.033 L137.1,192.02 L137.105,191.739 L136.822,191.726 L136.826,191.449 L136.254,191.436 L136.258,191.143 L135.973,191.143 L135.977,190.853 L135.69,190.853 L135.696,190.559 L135.409,190.559 L135.413,190.269 L134.841,190.269 L134.86,189.111 L135.149,189.124 L135.162,188.26 L135.449,188.26 L135.462,187.408 L135.749,187.408 L135.762,186.544 L136.049,186.557 L136.054,186.267 L136.339,186.276 L136.349,185.693 L136.634,185.705 L136.639,185.415 L136.926,185.425 L136.93,185.135 L137.22,185.135 L137.224,184.854 L137.507,184.854 L137.511,184.573 L137.798,184.573 L137.807,184.002 L138.096,184.002 L138.1,183.722 L138.383,183.722 L138.392,183.444 L138.675,183.444 L138.683,182.87 L138.973,182.87 L138.979,182.299 L139.268,182.299 L139.273,182.019 L139.556,182.019 L139.564,181.741 L139.849,181.741 L139.856,181.167 L140.145,181.167 L140.149,180.89 L140.436,180.89 L140.441,180.609 L140.726,180.609 L140.73,180.316 L141.017,180.328 L141.022,180.035 L141.309,180.048 L141.313,179.757 L141.598,179.757 L141.602,179.477 L141.89,179.477 L141.894,179.196 L142.181,179.196 L142.185,178.906 L142.758,178.919 L142.762,178.638 L143.047,178.638 L143.053,178.345 L143.338,178.357 L143.343,178.064 L143.63,178.077 L143.634,177.786 L143.919,177.799 L143.926,177.506 L144.498,177.519 L144.502,177.225 L144.787,177.238 L144.792,176.948 L145.364,176.957 L145.372,176.667 L145.655,176.68 L145.66,176.386 L145.947,176.386 L145.951,176.106 L146.236,176.106 L146.228,176.68 L146.515,176.689 L146.509,176.97 L146.796,176.983 L146.792,177.263 L147.077,177.276 L147.068,177.847 L147.351,177.847 L147.343,178.418 L147.628,178.431 L147.619,179.002 L147.904,179.002 L147.896,179.585 L148.179,179.585 L148.172,180.159 L148.46,180.169 L148.447,180.743 L148.736,180.743 L148.723,181.314 L149.011,181.327 L149,181.897 L149.287,181.897 L149.274,182.468 L149.564,182.481 L149.555,183.055 L149.838,183.055 L149.832,183.626 L150.115,183.639 L150.106,184.21 L150.391,184.21 L150.383,184.793 L150.668,184.793 L150.659,185.364 L150.942,185.377 L150.934,185.948 L151.223,185.948 L151.211,186.522 L151.5,186.535 L151.487,187.105 L151.774,187.105 L151.764,187.676 L152.051,187.689 L152.038,188.26 L152.328,188.26 L152.323,188.553 L152.606,188.553 L152.598,189.124 L152.883,189.137 L152.874,189.708 L153.159,189.708 L153.155,190.001 L153.442,190.001 L153.432,190.585 L153.719,190.585 L153.702,191.449 L153.991,191.449 L153.983,191.739 L154.555,191.739 L154.551,192.033 L154.266,192.033 L154.259,192.313 L153.974,192.313 L153.966,192.884 L153.679,192.884 L153.657,194.026 L153.374,194.026 L153.366,194.6 L153.079,194.587 L153.07,195.158 L152.781,195.158 L152.774,195.729 L152.485,195.729 L152.476,196.303 L152.189,196.303 L152.181,196.874 L151.898,196.861 L151.881,197.725 L151.596,197.725 L151.585,198.296 L151.3,198.286 L151.285,199.147 L151,199.147 L150.987,199.721 L150.704,199.708 L150.687,200.573 L150.404,200.573 L150.391,201.143 L150.106,201.143 L150.091,201.995 L149.806,201.995 L149.802,202.275 L149.515,202.275"/>
<path vector-effect="none" fill-rule="evenodd" d="M149.515,202.275 L149.519,201.995 L148.947,201.982 L148.955,201.692 L148.383,201.679 L148.387,201.399 L147.815,201.386 L147.819,201.096 L147.534,201.096 L147.538,200.802 L147.823,200.815 L147.851,199.087 L147.566,199.087 L147.583,198.222 L147.296,198.222 L147.306,197.652 L147.019,197.639 L147.028,197.068 L146.743,197.068 L146.751,196.497 L146.466,196.484 L146.47,196.204 L146.187,196.191 L146.196,195.62 L145.906,195.62 L145.919,195.037 L145.632,195.037 L145.638,194.743 L145.351,194.743 L145.355,194.453 L145.07,194.453 L145.075,194.172 L144.792,194.16 L144.8,193.589 L144.511,193.589 L144.519,193.295 L144.232,193.295 L144.234,193.005 L143.951,193.005 L143.955,192.712 L143.383,192.702 L143.387,192.422 L143.102,192.409 L143.107,192.128 L142.824,192.116 L142.828,191.838 L142.256,191.825 L142.26,191.532 L141.402,191.522 L141.407,191.242 L140.547,191.216 L140.543,191.51 L139.398,191.484 L139.394,191.777 L138.822,191.765 L138.817,192.055 L138.53,192.045 L138.526,192.336 L138.241,192.336 L138.237,192.616 L137.664,192.603 L137.668,192.323 L137.381,192.313 L137.39,192.033 L137.1,192.02 L137.105,191.739 L136.822,191.726 L136.826,191.449 L136.254,191.436 L136.258,191.143 L135.973,191.143 L135.977,190.853 L135.69,190.853 L135.696,190.559 L135.409,190.559 L135.413,190.269 L134.841,190.269 L134.86,189.111 L135.149,189.124 L135.162,188.26 L135.449,188.26 L135.462,187.408 L135.749,187.408 L135.762,186.544 L136.049,186.557 L136.054,186.267 L136.339,186.276 L136.349,185.693 L136.634,185.705 L136.639,185.415 L136.926,185.425 L136.93,185.135 L137.22,185.135 L137.224,184.854 L137.507,184.854 L137.511,184.573 L137.798,184.573 L137.807,184.002 L138.096,184.002 L138.1,183.722 L138.383,183.722 L138.392,183.444 L138.675,183.444 L138.683,182.87 L138.973,182.87 L138.979,182.299 L139.268,182.299 L139.273,182.019 L139.556,182.019 L139.564,181.741 L139.849,181.741 L139.856,181.167 L140.145,181.167 L140.149,180.89 L140.436,180.89 L140.441,180.609 L140.726,180.609 L140.73,180.316 L141.017,180.328 L141.022,180.035 L141.309,180.048 L141.313,179.757 L141.598,179.757 L141.602,179.477 L141.89,179.477 L141.894,179.196 L142.181,179.196 L142.185,178.906 L142.758,178.919 L142.762,178.638 L143.047,178.638 L143.053,178.345 L143.338,178.357 L143.343,178.064 L143.63,178.077 L143.634,177.786 L143.919,177.799 L143.926,177.506 L144.498,177.519 L144.502,177.225 L144.787,177.238 L144.792,176.948 L145.364,176.957 L145.372,176.667 L145.655,176.68 L145.66,176.386 L145.947,176.386 L145.951,176.106 L146.236,176.106 L146.228,176.68 L146.515,176.689 L146.509,176.97 L146.796,176.983 L146.792,177.263 L147.077,177.276 L147.068,177.847 L147.351,177.847 L147.343,178.418 L147.628,178.431 L147.619,179.002 L147.904,179.002 L147.896,179.585 L148.179,179.585 L148.172,180.159 L148.46,180.169 L148.447,180.743 L148.736,180.743 L148.723,181.314 L149.011,181.327 L149,181.897 L149.287,181.897 L149.274,182.468 L149.564,182.481 L149.555,183.055 L149.838,183.055 L149.832,183.626 L150.115,183.639 L150.106,184.21 L150.391,184.21 L150.383,184.793 L150.668,184.793 L150.659,185.364 L150.942,185.377 L150.934,185.948 L151.223,185.948 L151.211,186.522 L151.5,186.535 L151.487,187.105 L151.774,187.105 L151.764,187.676 L152.051,187.689 L152.038,188.26 L152.328,188.26 L152.323,188.553 L152.606,188.553 L152.598,189.124 L152.883,189.137 L152.874,189.708 L153.159,189.708 L153.155,190.001 L153.442,190.001 L153.432,190.585 L153.719,190.585 L153.702,191.449 L153.991,191.449 L153.983,191.739 L154.555,191.739 L154.551,192.033 L154.266,192.033 L154.259,192.313 L153.974,192.313 L153.966,192.884 L153.679,192.884 L153.657,194.026 L153.374,194.026 L153.366,194.6 L153.079,194.587 L153.07,195.158 L152.781,195.158 L152.774,195.729 L152.485,195.729 L152.476,196.303 L152.189,196.303 L152.181,196.874 L151.898,196.861 L151.881,197.725 L151.596,197.725 L151.585,198.296 L151.3,198.286 L151.285,199.147 L151,199.147 L150.987,199.721 L150.704,199.708 L150.687,200.573 L150.404,200.573 L150.391,201.143 L150.106,201.143 L150.091,201.995 L149.806,201.995 L149.802,202.275 L149.515,202.275"/>
</g>

<g fill="#ffffff" fill-opacity="1" stroke="none" transform="matrix(11.8081,0,0,11.8081,0,0)"
font-family="MS Shell Dlg 2" font-size="32.5" font-weight="400" font-style="normal" 
>
</g>

<g fill="#ffffff" fill-opacity="1" stroke="none" transform="matrix(11.8081,0,0,11.8081,0,0)"
font-family="MS Shell Dlg 2" font-size="32.5" font-weight="400" font-style="normal" 
>
</g>

<g fill="#ffffff" fill-opacity="1" stroke="none" transform="matrix(11.8081,0,0,11.8081,0,0)"
font-family="MS Shell Dlg 2" font-size="32.5" font-weight="400" font-style="normal" 
>
</g>

<g fill="#ffffff" fill-opacity="1" stroke="none" transform="matrix(1,0,0,1,0,0)"
font-family="MS Shell Dlg 2" font-size="32.5" font-weight="400" font-style="normal" 
>
</g>

<g fill="none" stroke="#000000" stroke-opacity="1" stroke-width="1" stroke-linecap="square" stroke-linejoin="bevel" transform="matrix(11.8081,0,0,11.8081,0,0)"
font-family="MS Shell Dlg 2" font-size="32.5" font-weight="400" font-style="normal" 
>
</g>

<g fill="none" stroke="#000000" stroke-opacity="1" stroke-width="1" stroke-linecap="square" stroke-linejoin="bevel" transform="matrix(11.8081,0,0,11.8081,0,0)"
font-family="MS Shell Dlg 2" font-size="32.5" font-weight="400" font-style="normal" 
>
</g>

<g fill="none" stroke="#000000" stroke-opacity="1" stroke-width="1" stroke-linecap="square" stroke-linejoin="bevel" transform="matrix(11.8081,0,0,11.8081,0,0)"
font-family="MS Shell Dlg 2" font-size="32.5" font-weight="400" font-style="normal" 
>
</g>

<g fill="none" stroke="#000000" stroke-opacity="1" stroke-width="1" stroke-linecap="square" stroke-linejoin="bevel" transform="matrix(11.8081,0,0,11.8081,0,0)"
font-family="MS Shell Dlg 2" font-size="32.5" font-weight="400" font-style="normal" 
>
</g>

<g fill="none" stroke="#000000" stroke-opacity="1" stroke-width="1" stroke-linecap="square" stroke-linejoin="bevel" transform="matrix(11.8081,0,0,11.8081,0,0)"
font-family="MS Shell Dlg 2" font-size="32.5" font-weight="400" font-style="normal" 
>
</g>

<g fill="none" stroke="#000000" stroke-opacity="1" stroke-width="1" stroke-linecap="square" stroke-linejoin="bevel" transform="matrix(11.8081,0,0,11.8081,0,0)"
font-family="MS Shell Dlg 2" font-size="32.5" font-weight="400" font-style="normal" 
>
</g>

<g fill="none" stroke="#000000" stroke-opacity="1" stroke-width="1" stroke-linecap="square" stroke-linejoin="bevel" transform="matrix(1,0,0,1,0,0)"
font-family="MS Shell Dlg 2" font-size="32.5" font-weight="400" font-style="normal" 
>
</g>
</g>
</svg>
