<?xml version="1.0" encoding="UTF-8" standalone="no"?>
<!-- Created with Inkscape (http://www.inkscape.org/) -->

<svg
   xmlns:dc="http://purl.org/dc/elements/1.1/"
   xmlns:cc="http://creativecommons.org/ns#"
   xmlns:rdf="http://www.w3.org/1999/02/22-rdf-syntax-ns#"
   xmlns:svg="http://www.w3.org/2000/svg"
   xmlns="http://www.w3.org/2000/svg"
   xmlns:sodipodi="http://sodipodi.sourceforge.net/DTD/sodipodi-0.dtd"
   xmlns:inkscape="http://www.inkscape.org/namespaces/inkscape"
   width="511.36826"
   height="208.73109"
   id="svg5815"
   version="1.1"
   inkscape:version="0.48.4 r"
   sodipodi:docname="New document 5">
  <defs
     id="defs5817">
    <inkscape:path-effect
       effect="spiro"
       id="path-effect4079"
       is_visible="true" />
    <inkscape:path-effect
       effect="spiro"
       id="path-effect4083"
       is_visible="true" />
  </defs>
  <sodipodi:namedview
     id="base"
     pagecolor="#ffffff"
     bordercolor="#666666"
     borderopacity="1.0"
     inkscape:pageopacity="0.0"
     inkscape:pageshadow="2"
     inkscape:zoom="0.35"
     inkscape:cx="1140.318"
     inkscape:cy="87.225014"
     inkscape:document-units="px"
     inkscape:current-layer="layer1"
     showgrid="false"
     fit-margin-top="0"
     fit-margin-left="0"
     fit-margin-right="0"
     fit-margin-bottom="0"
     inkscape:window-width="1920"
     inkscape:window-height="1017"
     inkscape:window-x="-9"
     inkscape:window-y="-9"
     inkscape:window-maximized="1" />
  <metadata
     id="metadata5820">
    <rdf:RDF>
      <cc:Work
         rdf:about="">
        <dc:format>image/svg+xml</dc:format>
        <dc:type
           rdf:resource="http://purl.org/dc/dcmitype/StillImage" />
        <dc:title></dc:title>
      </cc:Work>
    </rdf:RDF>
  </metadata>
  <g
     inkscape:label="Layer 1"
     inkscape:groupmode="layer"
     id="layer1"
     transform="translate(765.31796,-410.8561)">
    <g
       id="g3017"
       font-style="normal"
       font-weight="400"
       font-size="32.5"
       transform="matrix(0.29992483,0,0,0.29992483,-904.76784,536.66519)"
       style="font-size:32.5px;font-style:normal;font-weight:400;fill:#2b5693;fill-opacity:0.6;stroke:#000000;stroke-width:3.07086992;stroke-linecap:square;stroke-linejoin:bevel;stroke-opacity:0.6;font-family:MS Shell Dlg 2">
      <g
         id="g5772">
        <path
           style="fill:#12cabc;fill-opacity:0.4982818;fill-rule:evenodd"
           inkscape:connector-curvature="0"
           vector-effect="none"
           d="m 737.91136,-139.18877 -0.02,-1.8 -18.28,0.17 -0.01,-1.88 -9.14,0.08 -0.01,-1.85 -21.96,0.14 0,-1.79 -1.83,0 0.02,1.87 -7.32,0 0.01,1.88 -5.49,0 -0.01,-1.8 -7.32,0 -0.01,-1.79 -9.14,0.08 -0.01,-1.88 -7.32,0.09 -0.02,-1.86 -10.96,0.06 -0.01,-1.77 -5.49,0 -0.02,-1.8 -7.3,0 -0.02,-1.79 -5.5,0 -0.01,-1.77 -3.66,0 -0.02,-1.8 -10.95,0.08 -0.02,-1.87 -3.65,0 -0.03,-1.8 -5.47,0 -0.02,-1.77 -1.83,0 -0.02,-1.87 -1.82,0.08 -0.01,-1.88 -1.85,0 0,-1.77 -1.83,0 -0.01,-1.88 -1.83,0 -0.01,-1.79 -1.83,0 -0.02,-1.86 -1.83,0.06 -0.01,-1.85 -1.83,0 -0.01,-1.79 -1.83,0 -0.02,-1.86 -1.81,0 -0.01,-1.79 -1.85,0 -0.01,-1.88 -1.82,0.08 -0.04,-3.73 -1.81,0.08 -0.02,-1.87 -1.84,0 -0.02,-1.78 -1.81,0 -0.01,-1.87 -1.85,0 -0.01,-1.8 -1.82,0 -0.02,-3.65 -1.83,0 -0.02,-1.87 -1.83,0.08 -0.02,-1.86 -1.82,0 -0.01,-1.79 -1.85,0 -0.01,-1.88 -1.82,0 -0.01,-1.77 -1.83,0 -0.03,-3.67 -1.83,0 -0.01,-1.85 -1.83,0.08 -0.01,-1.88 -1.83,0 0,-1.79 -1.85,0 -0.01,-1.86 -1.82,0 -0.04,-3.65 -1.83,0 -0.01,-1.79 -1.83,0 -0.01,-1.88 -1.82,0.08 -0.03,-3.73 -1.84,0.09 -0.03,-3.74 -1.81,0.07 -0.05,-3.74 -1.82,0.09 -0.03,-5.53 -1.85,0 -0.04,-5.52 -1.83,0 -0.02,-3.65 -1.82,0 -0.03,-3.65 -1.84,0 -0.03,-3.65 3.66,0 0.02,1.85 1.84,-0.08 0.01,1.88 3.65,0 0.01,1.79 1.83,0 0.02,1.86 9.14,-0.09 0.02,1.8 3.66,0 -0.02,-1.86 9.14,-0.08 -0.01,-1.79 3.66,-0.08 -0.02,-1.8 1.83,0 -0.01,-1.85 3.66,0 -0.02,-1.88 1.83,0 -0.01,-1.85 3.66,0 -0.03,-1.88 1.83,0 -0.01,-1.77 1.83,0 -0.02,-1.88 3.66,0 -0.01,-1.88 1.83,0 -0.01,-1.85 3.66,0 0.02,3.65 1.83,0 0.02,1.79 1.83,0 0.02,3.65 1.82,0 0.01,1.88 1.85,0 0.01,1.77 1.82,0 0.02,1.88 1.83,0 0.02,1.79 1.83,0 0.01,1.78 1.82,0 0.01,1.87 1.84,0 0.02,1.8 1.81,0 0.02,1.85 3.66,-0.06 0.01,1.86 3.66,0 0.01,1.79 3.66,0 0.01,1.79 10.97,-0.08 0.01,1.86 5.51,-0.08 -0.02,-1.78 10.97,-0.08 -0.03,-1.88 7.32,-0.06 -0.01,-1.79 3.65,-0.08 -0.01,-1.8 1.84,0 -0.01,-1.85 3.66,0 -0.01,-1.88 1.81,0 -0.01,-1.85 1.83,0 -0.01,-1.8 1.83,0 -0.02,-1.87 1.83,0 -0.01,-1.86 1.83,0 -0.02,-1.87 1.83,0 -0.01,-1.8 1.83,-0.06 -0.04,-3.67 1.84,0 -0.01,-1.77 1.82,-0.08 -0.03,-3.65 1.84,0 -0.01,-1.88 1.81,0 -0.01,-1.79 1.84,0 -0.04,-3.74 1.83,0 -0.02,-3.64 1.83,0 -0.03,-3.65 1.83,-0.09 -0.03,-3.67 1.83,0 -0.04,-5.5 1.82,0 -0.03,-3.67 1.84,0 -0.04,-5.53 1.83,0 -0.05,-7.3 1.81,-0.08 -0.05,-7.32 1.84,0 -0.08,-9.17 1.83,0 -0.19,-25.65 -1.82,0 -0.05,-5.53 -1.83,0 -0.03,-5.44 -1.84,0 -0.03,-3.67 -1.81,0 -0.03,-3.65 1.82,-0.09 -0.02,-1.79 1.83,0 -0.01,-1.86 1.83,0 -0.03,-3.65 1.83,0 -0.01,-1.87 1.83,0 -0.03,-3.65 1.83,-0.08 -0.01,-1.8 1.83,0 -0.03,-1.85 1.84,0 -0.02,-3.67 1.81,0 -0.01,-1.86 1.84,0 -0.01,-1.88 1.81,0 -0.01,-3.65 1.83,0 -0.01,-1.87 1.81,0 -0.01,-1.86 1.84,0 -0.04,-3.65 1.83,0 0,-1.87 1.82,0 -0.03,-3.65 1.83,0 0,-1.88 1.82,0 -0.02,-1.85 1.83,0 0,-1.8 9.14,-0.08 0.01,1.79 32.92,-0.24 0.02,1.87 12.8,-0.08 0.02,1.8 10.96,-0.08 0.02,1.87 5.5,-0.08 0.01,1.86 1.82,0 0.05,7.32 1.83,0 0.06,7.32 1.83,0 0.05,7.3 1.83,0 0.07,9.17 1.83,0 0.07,9.18 1.81,0 0.06,5.44 1.83,0 0.04,7.32 1.84,0 0.05,7.38 1.82,-0.06 0.08,9.18 1.82,0 0.05,7.38 1.83,-0.08 0.06,7.4 1.83,-0.08 0.06,7.38 1.82,0 0.04,5.44 1.83,0 0.05,7.41 1.83,-0.09 0.04,7.39 1.85,0 0.08,10.96 1.83,0 0.03,3.65 1.81,0 0.02,1.8 1.84,0 0.03,3.65 -3.66,0.08 0.01,1.79 -1.84,0.09 0.01,1.79 -1.82,0 0.02,1.85 -1.83,0 0.01,1.88 -1.83,0 0.02,1.77 -1.83,0.09 0.02,3.67 -1.83,0 0.03,3.65 -1.83,0 0.03,3.65 -1.83,0.08 0.02,3.65 -1.83,0 0.02,1.87 -1.82,0 0.03,5.45 -1.83,0.08 0.01,1.77 -1.81,0 0.01,3.73 -1.83,0 0.03,3.67 -1.83,0 0.03,3.65 -1.82,0 0.03,3.73 -1.85,0 0.03,3.65 -1.82,0 0.02,1.88 -1.85,0 0.05,5.52 -1.82,0 0.01,1.8 -1.83,0 0.03,3.73 -1.83,0 0.03,3.65 -1.83,0 0.02,3.65 -1.83,0.08 0.03,3.65 -1.83,0 0.03,3.67 -1.82,0 0.02,3.65 -1.83,0.08 0.02,3.65 -1.83,0 0.03,3.65 -1.83,0 0.06,5.52 -1.85,0 0.03,3.65 -1.82,0 0.03,3.75 -1.84,0 0.02,3.65 -1.81,0 0.03,3.65 -1.83,0 0.02,3.73 -1.83,0 0.03,5.53 -1.82,0 0.03,3.65 -1.83,0 0.03,3.66 -1.83,0 0.03,3.74 -1.83,0 0.04,5.52 -1.83,0 0.01,1.77 -21.94,0.17"
           id="path3127" />
        <path
           style="fill:#12cabc;fill-opacity:0.4982818;fill-rule:evenodd"
           inkscape:connector-curvature="0"
           vector-effect="none"
           d="m 906.51883,-78.204129 -0.02,-1.88 -7.32,0.08 -0.01,-1.87 -7.32,0.08 -0.01,-1.86 -10.97,0.06 -0.01,-1.77 -5.5,0 0,-1.79 -7.32,0 -0.02,-1.8 -7.32,0 -0.01,-1.79 -7.32,0 -0.01,-1.78 -9.14,0.09 -0.01,-1.88 -7.32,0.08 -0.01,-1.87 -7.31,0.08 -0.01,-1.88 -7.32,0.08 -0.01,-1.85 -7.32,0.08 -0.02,-1.790001 -7.32,0 -0.01,-1.8 -7.3,0 -0.02,-1.79 -12.79,0.08 0.01,1.87 -7.32,0 -0.01,-1.79 -1.84,0 -0.03,-3.65 -1.82,0 -0.07,-9.17 -1.82,0 -0.03,-3.67 -1.83,0 -0.03,-3.65 -1.83,0 -0.03,-3.65 -1.83,0 -0.02,-3.67 -1.83,0 -0.03,-5.51 -1.84,0.06 -0.03,-3.73 -1.82,0.08 -0.02,-3.73 -1.85,0.08 -0.01,-1.87 -1.82,0 -0.04,-3.65 -1.81,0 -0.04,-5.53 -1.85,0.08 -0.01,-3.73 -1.83,0.08 -0.03,-3.73 -1.83,0.06 -0.01,-1.85 -1.83,0 -0.05,-5.53 -1.82,0.08 -0.03,-3.73 -1.83,0.06 -0.02,-3.73 -1.83,0.08 -0.03,-3.73 -1.83,0.08 -0.01,-1.87 -1.82,0 -0.03,-3.65 -1.84,0 -0.03,-3.65 -1.81,0 -0.04,-3.67 -1.82,0 -0.03,-3.65 -1.84,0 -0.03,-3.65 -1.81,0 -0.03,-3.65 -1.85,0 -0.01,-3.67 -1.83,0 -0.03,-3.65 -1.83,0 -0.02,-3.65 -1.85,0 -0.01,-3.67 -1.83,0 -0.03,-3.65 -1.83,0 -0.01,-1.8 1.83,0 -0.01,-1.85 1.83,0 -0.02,-1.88 1.83,0 -0.01,-1.86 1.83,0 -0.03,-3.67 1.82,0 -0.02,-1.85 1.85,0 -0.02,-1.8 1.82,-0.08 -0.01,-1.77 1.84,0 -0.01,-1.88 1.81,0 -0.01,-1.87 1.84,0 -0.01,-1.78 1.81,-0.08 -0.01,-1.79 1.84,0 -0.02,-3.74 3.66,0 -0.02,-1.79 1.82,-0.06 -0.01,-1.8 1.84,0 -0.01,-1.87 1.81,0 -0.01,-1.86 1.83,0 -0.02,-1.87 1.83,0 -0.01,-1.8 1.83,0 -0.01,-1.85 1.83,0 -0.02,-1.88 1.83,0 -0.01,-1.856 1.83,0 -0.01,-1.795 1.83,0 -0.02,-1.876 1.83,0 -0.01,-1.856 1.83,0 -0.02,-1.876 1.83,0 -0.01,-1.774 1.83,0 -0.01,-1.876 1.83,0 -0.02,-1.856 1.83,0 -0.01,-1.876 1.83,0 -0.02,-1.794 1.83,-0.082 -0.01,-1.774 1.83,0 -0.03,-1.876 1.85,0 -0.02,-1.856 1.82,0 -0.01,-1.794 1.84,-0.082 -0.01,-1.794 1.81,0 -0.01,-1.856 1.83,0 0,-1.876 1.81,0 -0.01,-1.795 3.66,-0.061 -0.01,-1.795 1.83,0 -0.02,-1.876 1.83,0 -0.01,-1.856 1.83,0 -0.02,-1.876 1.83,0 -0.01,-1.794 1.83,-0.061 -0.03,-3.671 1.83,0 -0.2,-29.326 1.82,0 -0.02,-1.856 9.15,-0.081 -0.01,-1.795 1.83,-0.082 0.01,1.877 5.49,0 0.01,1.794 1.83,0 0.03,3.651 1.83,0 -0.01,-1.876 1.81,0 -0.01,-1.775 1.84,-0.081 -0.02,-3.671 1.81,0 0,-1.856 1.83,0 -0.01,-1.795 1.81,0 -0.01,-3.732 1.83,0 -0.03,-3.65 1.83,0 -0.01,-1.876 1.83,0 -0.01,-1.775 -5.49,0 -0.06,-7.321 -1.84,0 0,-1.876 1.83,0 -0.03,-3.651 1.83,0 -0.01,-1.856 1.83,0 -0.02,-1.876 3.66,0 -0.02,-3.651 1.81,0 -0.02,-5.527 1.82,0 -0.01,-1.876 1.83,0 -0.04,-5.527 1.83,0 -0.04,-5.506 1.83,0 -0.01,-1.795 -1.83,0 -0.02,-1.877 1.83,0 -0.01,-1.774 3.66,-0.081 0.01,1.855 7.31,-0.061 0.01,1.856 7.32,-0.081 0.01,1.876 31.11,-0.245 -0.02,-1.856 10.98,-0.081 0.02,1.876 5.48995,-0.082 0.01,1.856 3.66,-0.081 0.01,1.876 1.83,0 0.02,1.795 3.65,0 0.02,1.856 1.81,-0.082 0.02,1.876 1.84,0 0.01,1.795 1.82,0 0.04,3.651 1.82,0 0.01,1.876 1.84,0 0.03,3.651 1.82,0 0.01,1.794 1.83,0 0.03,3.651 1.83,0 0.01,1.876 1.83,0 0.03,3.651 3.66,-0.082 0.01,1.877 3.66,0 0.01,1.774 1.82,0 0.01,1.876 12.81004,-0.163 0.02,1.876 7.31,-0.081 0.02,1.855 27.43998,-0.224 -0.01,-1.795 18.28,-0.142 -0.01,-1.795 5.49,-0.082 -0.01,-3.65 1.81,0 -0.02,-3.651 10.97,-0.081 0.03,3.65 1.83,0 0.03,3.651 3.66,-0.082 0.01,1.877 10.98,-0.082 0.01,1.876 1.83,-0.081 0.12,16.559 1.82,-0.061 0.01,1.856 -1.83,0 0.02,1.876 -3.65,0 0,1.856 -1.83,0 0.03,3.671 -1.82,0 0,1.856 1.83,0 0.02,1.794 1.83,0 0.01,1.856 1.83,-0.061 0.01,1.856 1.83,0 0.06,7.321 1.81,0 0.06,7.301 1.84,0 0.01,1.876 1.82,0 0.01,1.795 3.66,0 0.02,1.774 1.83,0 0.02,3.67 1.83,0 0.04,5.527 1.83,0 0.02,1.774 1.81,0 0.02,1.876 1.84,0 0.03,3.651 1.81,0 0.04,5.444 -1.83,0.082 0.02,1.794 -1.83,0 0.01,1.856 -1.81,0 0,1.876 -1.83,0 0.01,1.795 -1.82,0.061 0.02,3.671 -1.83,0 0.01,1.774 -3.66,0.081 0.01,1.795 -1.81,0.081 0.01,1.775 -3.66,0 0.02,1.872 -3.66,0 0.01,1.88 -5.5,0 0.01,1.86 -1.81,0 0.01,1.87 -3.66,0 0.01,1.86 -1.84,0 0.03,3.67 -1.82,0 0.03,3.65 -1.85,0.08 0.09,10.97 1.83,0 0.01,1.77 1.83,0 0.01,1.88 1.83,0 0.02,1.79 1.83,0 0.01,1.86 5.49,-0.08 -0.02,-1.78 3.66,-0.08 -0.01,-1.79 3.66,-0.08 -0.01,-1.8 1.81,0 -0.01,-1.85 1.84,0 -0.04,-5.53 1.82,0 -0.03,-5.53 1.83,0 -0.01,-1.85 1.81,0 0,-1.8 3.65,-0.08 -0.02,-1.79 7.32,-0.06 0.02,1.85 7.32,-0.08 0.31,44.03 -3.66,0 0.01,1.87 -1.83,0 0.03,3.65 -1.83,0 0.04,5.53 -1.83,0 0.07,9.17 1.83,0 0.03,3.67 5.48,0 0.05,5.51 1.81,-0.06 0.03,3.73 1.83,-0.08 0.01,1.85 3.66,0 0.03,3.67 1.83,0 0.01,1.78 1.83,0 0.04,5.52 1.82,0 0.04,5.45 1.84,0 0.04,7.4 1.83,-0.08 0.02,1.85 1.83,0 0.01,1.8 -18.28,0.16 -0.03,-3.65 -1.83,0 -0.01,-1.87 -1.83,0.08 -0.02,-1.88 -12.81,0.08 -0.01,-1.79 -3.66,0 -0.01,-1.86 -1.82,0.08 -0.01,-1.87 -1.85,0 -0.01,-1.8 -5.47,0 -0.02,-1.85 -14.62,0.14 0.01,1.8 -5.5,0.08 0.01,1.79 -3.66,0.06 0.02,1.8 -1.82,0.08 0.01,1.79 -1.84,0 0.01,1.86 -1.81,0 0.01,1.87 -1.84,0 0.01,1.8 -1.81,0.06 0.01,1.79 -1.84,0 0.09,12.85 1.83,0 0.03,3.65 1.83,0 0.01,1.86 3.66,-0.07 0.01,1.86 -9.15,0.08 0.02,1.8 -9.14,0.08 0.02,1.85 -12.80998,0.08 0.01,1.86 -21.94,0.16 -0.01,-1.87 -7.32,0.08 -0.02,-1.86 -10.98004,0.08 0.02,1.86 -5.48,0 0.02,1.88 -5.51,0 0.02,1.85 -1.82,0 0.01,1.88 -3.65,0 0.01,1.85 -12.8,0.08 -0.01,-1.85 -20.12995,0.14 0.02,1.88 -10.98,0.08 0.01,1.77 -9.13,0.08 0.01,1.88 -7.32,0 0.02,1.86 -5.49,0.08 0.04,3.65 -1.85,0 0.03,3.67 -1.82,0 0.03,3.65 5.48,0 0.01,1.79 3.66,0 0.01,1.860001 3.66,-0.09 0.02,1.88 1.83,0 0.01,1.79 1.82,0 0.01,1.86 5.5,-0.08 0.02,1.87 5.47,-0.08 0.02,1.88 3.65,0 0.02,1.77 20.10995,-0.14 0.02,1.85 3.65,-0.06 0,1.86 -1.81,0 0.01,1.87 -1.83,0 0.02,1.86 -3.65,0 0.01,1.88 -10.96995,0.08"
           id="path3135" />
        <path
           transform="matrix(3.3341688,0,0,3.3341688,51.929282,-1194.9958)"
           inkscape:connector-curvature="0"
           inkscape:original-d="m 124.28571,330.93361 c 28.17394,-4.20475 56.94309,-0.59323 80,17.14286 13.14601,10.11231 25.45145,19.65633 42.85715,22.14285 14.42944,2.06135 27.67472,-1.78501 41.42857,-4.28571 14.03285,-2.55143 26.93694,-5.97536 38.57143,-14.28571"
           inkscape:path-effect="#path-effect4079"
           id="path4077"
           d="m 124.28571,330.93361 c 27.57839,-2.74537 55.96806,3.33813 80,17.14286 14.01878,8.05285 27.03267,18.83218 42.85715,22.14285 13.73466,2.87345 27.98366,-0.26923 41.42857,-4.28571 13.14607,-3.92721 26.03878,-8.70228 38.57143,-14.28571"
           style="fill:none;stroke:#000000;stroke-width:8;stroke-linecap:butt;stroke-linejoin:miter;stroke-miterlimit:4;stroke-opacity:1;stroke-dasharray:none;stroke-dashoffset:0" />
        <path
           transform="matrix(0.6062125,0,0,0.6062125,704.69024,-340.07386)"
           d="m 129.28571,174.1479 c 0,15.18783 -12.31217,27.5 -27.5,27.5 -15.187827,0 -27.499997,-12.31217 -27.499997,-27.5 0,-15.18783 12.31217,-27.5 27.499997,-27.5 15.18783,0 27.5,12.31217 27.5,27.5 z"
           sodipodi:ry="27.5"
           sodipodi:rx="27.5"
           sodipodi:cy="174.1479"
           sodipodi:cx="101.78571"
           id="path5730"
           style="fill:#a90000;fill-opacity:1;stroke:none"
           sodipodi:type="arc" />
        <path
           transform="matrix(0.6062125,0,0,0.6062125,647.53307,-152.40478)"
           d="m 129.28571,174.1479 c 0,15.18783 -12.31217,27.5 -27.5,27.5 -15.187827,0 -27.499997,-12.31217 -27.499997,-27.5 0,-15.18783 12.31217,-27.5 27.499997,-27.5 15.18783,0 27.5,12.31217 27.5,27.5 z"
           sodipodi:ry="27.5"
           sodipodi:rx="27.5"
           sodipodi:cy="174.1479"
           sodipodi:cx="101.78571"
           id="path5730-9"
           style="font-size:32.5px;font-style:normal;font-weight:400;fill:#a90000;fill-opacity:1;stroke:none;font-family:MS Shell Dlg 2"
           sodipodi:type="arc" />
      </g>
      <g
         id="g5779"
         transform="translate(0,37.979014)">
        <path
           style="fill:#12cabc;fill-opacity:0.4982818;fill-rule:evenodd"
           inkscape:connector-curvature="0"
           vector-effect="none"
           d="m 1534.0354,-124.05483 -0.02,-3.65 -1.83,0.08 -0.03,-3.75 -1.84,0.08 -0.05,-5.52 1.85,0 -0.06,-5.51 -1.81,0 -0.26,-31.19 -1.83,0 -0.16,-20.14 -1.83,0 -0.15,-20.15 -1.84,0 -0.09,-11.05 -1.83,0.08 -0.01,-1.87 -1.83,0 -0.11,-12.83 -1.81,0 -0.07,-7.32 -1.83,0 -0.03,-3.65 -1.83,0 -0.02,-3.64 -1.83,0 -0.03,-3.65 -1.83,0 -0.01,-1.8 -1.83,0 -0.06,-5.52 -1.82,0 -0.01,-1.8 -1.84,0 -0.02,-3.65 -1.83,0 -0.04,-3.65 -1.81,0 -0.04,-3.67 -1.83,0 -0.03,-5.5 -1.84,0 -0.04,-5.47 -1.83,0 -0.03,-3.65 -1.84,0 -0.03,-5.52 3.66,0 -0.01,-1.86 5.47,0 -0.01,-1.87 3.66,0 -0.02,-1.86 1.83,0 -0.02,-1.88 1.84,0 -0.01,-1.85 7.31,0 -0.01,-1.88 25.59,-0.22 -0.01,-1.8 20.12,-0.16 -0.01,-1.85 32.91,-0.25 -0.02,-1.85 7.32,0 -0.01,-1.88 3.66,0 -0.01,-1.86 3.65,0 -0.01,-1.87 3.66,0 -0.01,-1.88 1.81,0 -0.01,-1.85 3.66,0 -0.03,-3.65 1.83,0 -0.05,-7.4 1.81,0 -0.1,-14.71 1.82,0 -0.04,-5.52 1.83,0 -0.01,-1.78 1.82,0 -0.03,-3.73 1.84,0 -0.01,-1.79 1.82,-0.08 -0.02,-1.8 3.66,-0.08 -0.01,-1.77 3.66,-0.08 -0.02,-1.8 12.8,-0.08 0.01,1.79 7.32,-0.08 0.01,1.88 1.83,0 0,-1.88 1.82,0 -0.01,-1.85 3.66,0 -0.02,-1.8 1.83,-0.08 -0.03,-1.79 3.66,-0.07 -0.01,-1.79 1.84,0 -0.01,-1.88 1.82,0 -0.02,-1.85 1.85,0 -0.02,-1.88 3.66,0 -0.04,-3.65 1.83,0 -0.01,-1.87 1.83,0 -0.03,-3.65 1.82,0 -0.04,-7.39 1.83,0 -0.03,-1.79 1.84,-0.08 -0.01,-1.8 1.81,0 -0.01,-1.85 1.83,0 0,-1.88 3.65,0 -0.02,-1.85 1.83,0 -0.01,-1.8 1.82,-0.08 0,-1.79 1.82,0 -0.01,-1.86 9.14,-0.08 0.01,1.88 5.49,-0.09 0.01,1.86 1.83,-0.06 0.03,1.85 1.82,0 0.01,1.8 3.66,0 0.03,3.65 1.83,0 0.02,3.65 -1.81,0 0.02,3.75 -1.84,0 0.04,3.65 -3.66,0 0.02,1.86 -3.66,0 0.01,1.87 -1.83,0 0.01,1.86 -3.66,0 0.02,1.87 -1.83,0 0.01,1.8 -1.82,0.08 0.02,1.77 -1.83,0 0.01,3.67 -1.81,0.07 0.04,5.44 1.83,0 0.02,3.67 1.83,0 0.03,3.65 3.66,0 0.01,1.88 3.66,-0.09 0.02,1.86 1.83,0 0.01,1.79 3.65,0 0.02,1.8 1.83,0 0.02,1.85 3.66,-0.06 0.01,1.86 1.83,0 0.01,1.79 3.66,0 0.02,1.86 1.81,-0.06 0.03,1.85 1.83,0 0.01,1.8 1.83,0 0.01,1.85 1.83,0 0,1.8 1.85,0 0.01,1.87 1.82,-0.08 0.02,1.86 3.66,0 0.02,1.79 1.83,0 0,1.88 3.66,-0.08 0.01,1.85 3.66,-0.06 -0.01,-1.79 14.63,-0.17 -0.01,-1.77 27.45,-0.25 -0.03,-1.85 10.96,-0.08 -0.01,-1.8 3.66,-0.08 -0.01,-1.79 3.66,0 -0.02,-1.86 1.85,0 -0.02,-1.87 1.82,0 -0.02,-1.86 1.83,0 -0.01,-1.79 1.83,-0.09 -0.01,-1.79 1.83,0 -0.03,-3.65 3.66,-0.08 -0.01,-1.78 1.81,-0.08 -0.01,-1.79 3.66,-0.08 0.01,1.87 1.83,0 0.01,1.8 1.85,0 0.02,3.65 1.82,0 0.03,3.65 1.84,0 0.01,3.65 1.85,0 0.01,1.87 1.82,0 0.01,1.8 1.84,0 0.02,1.85 1.81,-0.08 0.02,1.88 1.83,0 0.01,1.79 1.84,0 0.02,1.86 3.66,-0.06 0.01,1.85 3.65,0 0.01,1.8 3.66,0 0.01,1.79 5.49,0 0.12,16.48 -1.81,0 0.04,5.52 -1.84,0 0.04,3.65 -1.83,0.08 0.02,3.65 -1.83,0 0.09,10.97 3.65,0 0.02,1.88 1.83,-0.08 0.01,1.87 1.82,0 0.03,1.78 1.82,0 0.02,1.87 1.83,0 0.01,1.8 3.66,0 0.01,1.77 1.82,0 0.01,1.88 1.85,0 0.01,1.79 7.32,0 0.01,1.77 5.48,0 0.01,1.8 3.66,0 0.03,1.79 3.65,0 0.04,5.53 -1.83,0 0.01,1.85 -1.83,0 0.01,1.8 -1.83,0.08 0.03,1.79 -1.84,0 0.07,9.18 -1.82,0 0.07,11.03 -10.95,0.08 -0.04,-3.65 -1.83,0 -0.02,-1.88 -5.49,0.09 -0.01,-1.86 -10.97,0.06 0.02,1.88 -1.83,0 0.01,1.87 -1.81,0 0,1.86 -1.83,0 0.02,3.65 -1.83,0 0.07,9.19 -10.95,0.06 0.01,1.88 -3.66,0 0.02,1.86 -5.51,0 0.02,1.87 -3.66,0 0.03,1.88 -3.66,0 0.01,1.85 -3.66,0 0.01,1.88 -5.49,0 0.02,1.85 -18.29,0.17 0.02,1.79 -3.65,0 0.02,1.86 -3.66,0 0.01,1.87 -5.49,0.08 0.01,1.78 -3.65,0.08 0.01,1.79 -7.32,0.08 0.01,1.78 -1.81,0.08 0.01,1.79 -1.84,0 0.02,3.73 -1.81,0 0.03,3.65 -1.83,0 0.01,1.88 -7.31,0 -0.09,-10.97 5.49,-0.08 -0.02,-1.79 1.83,0 -0.05,-7.38 1.82,0 -0.02,-1.86 3.66,0 -0.01,-1.79 3.66,-0.09 -0.02,-1.79 1.83,-0.08 -0.01,-1.78 1.83,0 -0.03,-1.87 7.32,-0.08 -0.01,-1.78 3.66,-0.08 -0.02,-1.79 1.83,0 0,-1.88 3.64,0 -0.02,-1.85 5.51,0 -0.02,-1.88 -1.84,0 -0.03,-5.52 -1.84,0.08 -0.03,-3.73 -3.66,0.08 -0.01,-1.88 -3.65,0.08 -0.01,-1.85 -3.66,0 -0.01,-1.8 -3.66,0 -0.02,-1.79 -3.66,0 -0.01,-1.86 -9.13,0.09 -0.03,-1.8 -16.46,0.08 -0.01,-1.79 -18.3,0.14 0.02,1.8 -5.48,0.08 0.01,1.79 -1.82,0 0.02,3.73 -1.83,0 0.03,3.65 -1.83,0 0.01,1.88 -1.81,0 0.04,5.52 -1.85,0 0.06,5.51 -1.83,0 0.08,10.97 -1.83,0 0.04,3.73 -1.84,0 0.03,3.67 -1.82,0 0.04,5.52 -1.83,0 0.03,3.65 -3.66,0.08 0.01,1.78 -9.13,0.08 0.01,1.88 -14.64,0.08 -0.01,-1.8 -10.97,0.08 -0.01,-1.87 -7.32,0.08 -0.01,-1.88 -7.32,0.09 -0.01,-1.86 -14.63,0.14 -0.01,-1.85 -5.49,0.06 0.01,1.87 -9.15,0 0.02,1.88 -1.82,0 0.01,1.86 -1.83,0 0.02,1.87 -1.83,0 0.01,1.78 -1.83,0.08 0.02,1.79 -1.83,0 0.04,3.65 -1.85,0.08 0.02,1.8 -1.82,0 0.01,1.85 -3.66,0 0.02,1.88 -1.83,0 0.03,3.65 -1.83,0.08 0.02,1.79 -1.84,0 0.01,1.86 -5.47,0 0.01,1.87 -3.66,0 0.02,1.86 -3.66,0 0.01,1.87 -3.66,0 0.01,1.88 -3.64,0 0.01,1.85 -7.32,0.09 0.02,1.79 -7.32,0.06 0.01,1.8 -9.13,0.08 0.01,1.87 -5.49,0.06 0.03,1.8 -1.85,0 0.03,3.73 -1.82,0 0.02,1.79 -1.83,0 0.05,7.38 -1.83,0 0.14,16.5 -5.49,0.08 0.03,1.79 -3.66,0.06 0.01,1.8 -10.98,0.08"
           id="path3129" />
        <path
           sodipodi:nodetypes="ccccccccccccccccccccccccccccccccccccccccccccccccccccccccccccccccccccccccccccccccccccccccccccccccccccccccccccccccccccccccccccccccccccccccccccccccccccccccccccccccccccccccccccccccccccccccccccccccccccccccccccccccccccccccccccccccccccccccccccccccccccccccccccccccccccccccccccccccccccccccccccccccccccccccccccccccccccccccccccccccccccccccccccccccccccccccccc"
           style="fill:#12cabc;fill-opacity:0.4982818;fill-rule:evenodd"
           inkscape:connector-curvature="0"
           vector-effect="none"
           d="m 2125.5414,-122.6599 -0.01,-1.79 -9.15,0.08 -0.01,-1.85 -5.48,0.08 -0.01,-1.88 -3.66,0 -0.02,-1.79 -3.66,0 -0.01,-1.78 -3.66,0 -0.01,-1.87 -1.83,0.08 -0.02,-1.88 -1.82,0 -0.02,-1.79 -3.64,0 -0.02,-1.86 -1.84,0.09 -0.01,-1.88 -3.66,0 -0.02,-1.79 -1.81,0 -0.03,-1.86 -1.82,0.08 -0.01,-1.87 -1.84,0 -0.02,-1.8 -1.81,0 -0.02,-1.85 -1.84,0 -0.01,-1.8 -1.82,0 -0.01,-1.85 -16.47,0.14 0.01,1.88 -7.3,0 -0.03,-1.8 -9.14,0.08 -0.01,-1.87 -5.47,0.08 -0.03,-1.86 -1.83,0 -0.01,-1.79 -1.83,0 -0.02,-1.88 -3.66,0.09 -0.02,-3.74 -1.82,0.09 -0.05,-5.53 -1.83,0 -0.02,-3.65 -1.84,0 -0.03,-3.67 -7.32,0.08 -0.01,-1.85 -7.31,0.06 0.02,1.79 -3.66,0.08 0.01,1.8 -3.66,0.08 0.02,1.77 -1.83,0 -0.02,-1.77 -7.3,0 -0.02,-1.79 -1.84,0 -0.01,-1.8 -1.82,0 -0.01,-1.85 -3.66,0 -0.02,-1.8 -1.83,0 -0.01,-1.87 -5.49,0.08 -0.01,-1.88 3.66,0 -0.03,-1.85 1.84,0 -0.02,-3.65 1.81,0 -0.01,-1.88 1.84,0 -0.07,-7.3 1.83,0 -0.02,-3.67 -5.49,0 -0.02,-1.85 -1.81,0.06 0.01,1.79 -1.84,0 0.01,1.88 -1.81,0 0.01,1.85 -3.66,0 0.01,1.88 -12.79,0.08 -0.03,-1.88 -3.66,0.09 -0.01,-1.88 -1.83,0 -0.08,-10.95 5.49,-0.08 -0.02,-1.79 7.32,-0.09 -0.01,-1.85 20.11,-0.17 -0.01,-1.79 5.47,-0.08 -0.01,-1.77 3.66,-0.09 -0.01,-1.79 1.84,0 -0.04,-3.73 1.83,0 -0.06,-7.32 1.83,0 -0.16,-20.21 1.84,0 -0.08,-9.17 1.85,0 -0.04,-3.67 1.83,0 -0.02,-1.86 1.83,0 -0.01,-1.88 3.66,0 -0.02,-1.85 3.65,0 0,-1.88 3.65,0 -0.02,-1.79 1.83,-0.08 -0.01,-1.78 1.83,0 -0.03,-3.73 1.83,0 -0.03,-3.67 1.83,0 -0.06,-9.17 1.83,0 -0.03,-1.86 -1.82,0 -0.09,-10.97 -1.82,0 -0.03,-3.67 -1.84,0 -0.04,-5.51 1.84,0 -0.06,-7.32 3.66,-0.08 -0.02,-1.79 1.83,0 0,-1.86 1.82,0 -0.02,-1.88 1.83,0 -0.01,-1.77 1.83,-0.08 0.01,1.85 1.82,0 0.04,3.68 1.83,0 0.08,10.97 1.83,0 0.11,12.82 3.65,0 0.01,1.8 18.3,-0.09 -0.02,-1.87 3.66,0 -0.01,-1.86 3.66,0 -0.02,-1.87 3.66,0 -0.02,-1.86 5.49,0 -0.02,-1.87 3.66,0 -0.01,-1.86 1.81,0 0,-1.88 1.83,0 -0.08,-9.17 1.85,0 -0.03,-3.65 -1.84,0 -0.09,-12.85 1.82,0 -0.01,-1.85 1.84,0 -0.01,-1.8 3.64,-0.08 0,-0.9 -0.01,-0.9 1.825,-0.03 1.825,-0.03 0,-0.895 0,-0.895 3.65,-0.04 3.65,-0.04 0,-0.94 -0.01,-0.94 10.975,-0.07 10.975,-0.07 0.015,0.925 0.015,0.925 0.91,0 0.91,0 0.02,2.725 0.02,2.725 0.915,0 0.915,0 0.01,1.835 0.01,1.835 0.915,0 0.915,0 0.03,2.755 0.03,2.755 0.905,0 0.905,0 0.015,1.835 0.015,1.835 0.915,0 0.915,0 0.015,1.825 0.015,1.825 0.915,0 0.915,0 0.02,1.825 0.02,1.825 0.905,0 0.905,0 0.025,2.72 0.025,2.72 0.915,0 0.915,0 0.01,1.835 0.01,1.835 0.915,0 0.915,0 0.02,1.825 0.02,1.825 0.91,0 0.91,0 0.015,1.825 0.015,1.825 0.915,0 0.915,0 0.02,2.765 0.02,2.765 0.915,0 0.915,0 0.02,1.825 0.02,1.825 0.905,0 0.905,0 0.015,1.835 0.015,1.835 0.915,0 0.915,0 0.015,1.825 0.015,1.825 0.915,0 0.915,0 0.01,1.825 0.01,1.825 0.915,0 0.915,0 0.015,1.835 0.015,1.835 0.915,0 0.915,0 0.02,2.72 0.02,2.72 0.915,0 0.915,0 0.025,2.755 0.025,2.755 0.91,0 0.91,0 0.015,1.835 0.015,1.835 0.915,0 0.915,0 0,0.885 0.01,0.885 0.915,0 0.915,0 0.015,1.835 0.015,1.835 -0.915,0.04 -0.915,0.04 0.015,1.825 0.015,1.825 -0.915,0 -0.915,0 0.025,3.65 0.025,3.65 -0.915,0 -0.915,0 0.02,2.765 0.02,2.765 -0.915,0 -0.915,0 0.03,3.7 0.03,3.7 -0.91,0 -0.91,0 0.05,7.3 -1.83,0 0.06,7.4 -1.85,0 0.09,9.18 -1.83,0 0.05,7.3 -1.83,0 0.07,9.19 -1.83,0.06 0.07,9.18 -1.82,0 0.07,9.19 -1.83,0 0.07,9.18 -1.85,0 0.08,9.17 -1.83,0 0.07,9.18 -1.83,0 0.1,11.05 -1.85,0 0.03,3.65 -1.81,0 0.01,1.87 -1.84,0 0.01,1.78 -1.82,0.08 0.02,1.79 -1.83,0 0.01,1.86 -1.83,0 0.01,1.87 -1.83,0 0.02,1.8 -1.83,0.06 0.01,1.79 -1.83,0"
           id="path3131" />
        <path
           transform="matrix(3.3341688,0,0,3.3341688,51.929282,-1194.9958)"
           inkscape:connector-curvature="0"
           inkscape:original-d="m 445.71429,346.6479 c 32.59708,-11.95903 66.12301,-25.7754 102.14285,-18.57143 15.20538,3.04107 26.1971,13.53836 41.42857,15.71428 12.28927,1.75561 26.10408,0 38.57143,0"
           inkscape:path-effect="#path-effect4083"
           id="path4081"
           d="m 445.71429,346.6479 c 28.08438,-22.65799 67.88025,-29.89361 102.14285,-18.57143 14.03605,4.63826 27.08695,12.13071 41.42857,15.71428 12.59916,3.14818 25.97227,3.14818 38.57143,0"
           style="fill:none;stroke:#000000;stroke-width:8;stroke-linecap:butt;stroke-linejoin:miter;stroke-miterlimit:4;stroke-opacity:1;stroke-dasharray:none" />
        <path
           transform="matrix(0.6062125,0,0,0.6062125,1862.1231,-331.02097)"
           d="m 129.28571,174.1479 c 0,15.18783 -12.31217,27.5 -27.5,27.5 -15.187827,0 -27.499997,-12.31217 -27.499997,-27.5 0,-15.18783 12.31217,-27.5 27.499997,-27.5 15.18783,0 27.5,12.31217 27.5,27.5 z"
           sodipodi:ry="27.5"
           sodipodi:rx="27.5"
           sodipodi:cy="174.1479"
           sodipodi:cx="101.78571"
           id="path5730-3"
           style="font-size:32.5px;font-style:normal;font-weight:400;fill:#a90000;fill-opacity:1;stroke:none;font-family:MS Shell Dlg 2"
           sodipodi:type="arc" />
        <path
           transform="matrix(0.6062125,0,0,0.6062125,1817.3501,-208.13303)"
           d="m 129.28571,174.1479 c 0,15.18783 -12.31217,27.5 -27.5,27.5 -15.187827,0 -27.499997,-12.31217 -27.499997,-27.5 0,-15.18783 12.31217,-27.5 27.499997,-27.5 15.18783,0 27.5,12.31217 27.5,27.5 z"
           sodipodi:ry="27.5"
           sodipodi:rx="27.5"
           sodipodi:cy="174.1479"
           sodipodi:cx="101.78571"
           id="path5730-6"
           style="font-size:32.5px;font-style:normal;font-weight:400;fill:#a90000;fill-opacity:1;stroke:none;font-family:MS Shell Dlg 2"
           sodipodi:type="arc" />
      </g>
      <text
         xml:space="preserve"
         style="font-size:60.01503754px;font-style:normal;font-variant:normal;font-weight:normal;font-stretch:normal;line-height:125%;letter-spacing:0px;word-spacing:0px;fill:#000000;fill-opacity:1;stroke:none;font-family:Times New Roman;-inkscape-font-specification:Times New Roman"
         x="771.17993"
         y="263.64072"
         id="text5764"
         sodipodi:linespacing="125%"><tspan
           sodipodi:role="line"
           id="tspan5766"
           x="771.17993"
           y="263.64072">(a)</tspan></text>
      <text
         xml:space="preserve"
         style="font-size:60.01503754px;font-style:normal;font-variant:normal;font-weight:normal;font-stretch:normal;line-height:125%;letter-spacing:0px;word-spacing:0px;fill:#000000;fill-opacity:1;stroke:none;font-family:Times New Roman;-inkscape-font-specification:Times New Roman"
         x="1796.3048"
         y="263.64072"
         id="text5768"
         sodipodi:linespacing="125%"><tspan
           sodipodi:role="line"
           id="tspan5770"
           x="1796.3048"
           y="263.64072">(b)</tspan></text>
    </g>
  </g>
</svg>
