<?xml version="1.0" encoding="UTF-8" standalone="no"?>
<!-- Created with Inkscape (http://www.inkscape.org/) -->

<svg
   xmlns:dc="http://purl.org/dc/elements/1.1/"
   xmlns:cc="http://creativecommons.org/ns#"
   xmlns:rdf="http://www.w3.org/1999/02/22-rdf-syntax-ns#"
   xmlns:svg="http://www.w3.org/2000/svg"
   xmlns="http://www.w3.org/2000/svg"
   xmlns:sodipodi="http://sodipodi.sourceforge.net/DTD/sodipodi-0.dtd"
   xmlns:inkscape="http://www.inkscape.org/namespaces/inkscape"
   width="389.17123"
   height="392.30304"
   id="svg3048"
   version="1.1"
   inkscape:version="0.48.4 r9939"
   sodipodi:docname="New document 2">
  <defs
     id="defs3050" />
  <sodipodi:namedview
     id="base"
     pagecolor="#ffffff"
     bordercolor="#666666"
     borderopacity="1.0"
     inkscape:pageopacity="0.0"
     inkscape:pageshadow="2"
     inkscape:zoom="0.35"
     inkscape:cx="92.442755"
     inkscape:cy="279.00867"
     inkscape:document-units="px"
     inkscape:current-layer="layer1"
     showgrid="false"
     fit-margin-top="0"
     fit-margin-left="0"
     fit-margin-right="0"
     fit-margin-bottom="0"
     inkscape:window-width="1920"
     inkscape:window-height="1017"
     inkscape:window-x="-9"
     inkscape:window-y="-9"
     inkscape:window-maximized="1" />
  <metadata
     id="metadata3053">
    <rdf:RDF>
      <cc:Work
         rdf:about="">
        <dc:format>image/svg+xml</dc:format>
        <dc:type
           rdf:resource="http://purl.org/dc/dcmitype/StillImage" />
        <dc:title></dc:title>
      </cc:Work>
    </rdf:RDF>
  </metadata>
  <g
     inkscape:label="Layer 1"
     inkscape:groupmode="layer"
     id="layer1"
     transform="translate(-282.55724,-419.0678)">
    <g
       id="layer1-8"
       inkscape:label="Layer 1"
       transform="translate(274.44847,412.3992)">
      <path
         sodipodi:nodetypes="csssssssssssssssssssssssssc"
         id="path3135"
         d="m 521.27787,308.70657 c 1.46859,14.52197 -5.00943,29.37269 -9.99609,42.39849 -4.95715,12.94872 -25.97537,62.78455 -31.10737,75.24722 -5.22684,12.69299 -17.64798,20.12458 -25.24042,31.15186 -8.61664,12.51483 -10.74568,37.55962 -21.89462,44.88824 -18.33741,12.05387 -30.55376,0.98458 -43.79443,0.22983 -13.9959,-0.7978 -28.05569,5.45479 -41.68014,7.16536 -16.38561,2.05724 -27.66473,-3.1386 -41.6304,-0.20874 -14.25889,2.99137 -22.08872,14.7505 -37.28395,14.16603 -16.37497,-0.62984 -23.68305,-16.51996 -40.23133,-21.12265 -15.38135,-4.27813 -43.71171,-3.17768 -55.36397,3.28797 -14.66594,8.1379 -70.80415,46.43093 -90.361714,25.8846 -20.564547,-21.60422 12.094678,-70.86595 17.147969,-88.046 3.807875,-12.94591 19.344415,-68.9935 14.645855,-92.64372 -2.72239,-13.70317 -10.83721,-29.37221 -12.3058,-42.39849 -1.62653,-14.42718 3.81301,-71.49131 8.29918,-84.82749 4.34999,-12.93135 4.93666,-23.97263 14.49826,-36.55743 7.22527,-9.50977 58.12753,-45.19581 68.33869,-53.11876 11.78041,-9.14055 61.1699,-26.6327 73.88404,-31.68131 12.78982,-5.078661 27.39179,-5.052425 41.6304,-4.278324 14.25889,0.775203 40.02886,11.875534 53.69499,13.196854 13.44844,1.30027 32.43001,-5.51917 44.81562,1.09817 12.53621,6.6978 14.08663,13.66215 24.34679,21.97682 10.38345,8.41458 13.19028,16.64522 23.24456,25.39391 10.08523,8.77562 27.19285,12.25532 35.37164,22.89734 15.48627,20.15031 19.79736,63.35808 20.97615,83.50173 0.89075,15.22156 9.26179,27.12868 9.99609,42.39849 z"
         style="fill:none;stroke:#0000c0;stroke-width:5.58128643;stroke-linecap:round;stroke-linejoin:round;stroke-miterlimit:4;stroke-opacity:1;stroke-dasharray:none;stroke-dashoffset:0"
         transform="matrix(0.7232619,0,0,0.7101593,-23.366445,-19.230837)"
         inkscape:connector-curvature="0" />
      <path
         sodipodi:nodetypes="cssssssssssssssssssssssssc"
         id="path3140"
         d="m 324.55207,200 c 4.2487,9.12519 3.50881,16.92438 2.18353,25.09141 -1.66004,10.22996 -30.72092,54.8786 -38.67728,62.96692 -7.43756,7.56091 -30.39857,22.86807 -39.592,26.70085 -9.92752,4.13883 -38.81005,7.66855 -48.46632,9.7929 -8.39338,1.84652 -17.34166,0.66574 -25.61534,0.61172 -10.22997,-0.0668 -16.9402,-4.88182 -22.85099,-10.40462 -5.48114,-5.12136 -12.13082,-10.25086 -18.53664,-15.15555 -7.42724,-5.68675 -19.81589,-4.97491 -25.45186,-10.07979 -5.90744,-5.35077 -3.68287,-10.61918 -10.816354,-19.90117 C 91.855287,263.2813 81.23313,236.38355 77.979826,225.09141 75.689267,217.14094 71.985828,210.71845 72.516916,200 c 0.425306,-8.58356 7.466623,-14.86143 9.126673,-25.0914 1.325289,-8.16702 -0.08658,-15.39406 3.597237,-23.37492 3.390199,-7.34474 21.064884,-33.95601 26.700864,-39.59199 5.63597,-5.63598 10.79199,-8.45452 17.91171,-12.097852 8.7509,-4.478042 34.69505,-24.35537 42.95945,-23.959739 9.69887,0.464302 18.53616,2.892584 26.13928,6.898957 8.063,4.248705 12.36232,4.186861 14.45533,12.19161 2.79474,10.688534 -7.54174,41.870844 8.67977,50.351884 15.3641,8.03276 38.28704,-24.95119 44.87999,-29.47856 6.62657,-4.55046 13.17594,-4.84372 21.0911,-3.9063 7.22923,0.85619 13.84321,9.40025 17.86831,16.31131 4.47803,7.68872 6.14723,15.64996 8.83254,23.28068 2.62163,7.44977 0.35631,15.18017 1.49769,23.37492 1.12896,8.10562 5.10868,16.49731 8.29521,25.0914 z"
         style="fill:none;stroke:#008000;stroke-width:4;stroke-linecap:round;stroke-linejoin:round;stroke-miterlimit:4;stroke-opacity:1;stroke-dasharray:none;stroke-dashoffset:0"
         inkscape:connector-curvature="0" />
      <path
         sodipodi:open="true"
         sodipodi:end="6.8513377"
         sodipodi:start="3.3543482"
         transform="matrix(1.3981914,0,0,1.3862919,-177.15155,28.076508)"
         d="m 224.98311,71.091516 c 7.21532,-33.687072 40.14083,-55.096467 73.54121,-47.819221 33.40037,7.277245 54.62756,40.485386 47.41224,74.172459 -1.55177,7.244986 -4.37089,14.153196 -8.32523,20.400836"
         sodipodi:ry="62.402851"
         sodipodi:rx="61.871761"
         sodipodi:cy="84.268135"
         sodipodi:cx="285.45984"
         id="path3160"
         style="fill:none;stroke:#000000;stroke-width:1.43654537;stroke-linecap:round;stroke-linejoin:round;stroke-miterlimit:4;stroke-opacity:1;stroke-dasharray:none;stroke-dashoffset:0"
         sodipodi:type="arc" />
      <path
         transform="matrix(1.3449477,0,0,1.3449477,-75.166915,-53.796625)"
         d="m 224.65026,147.73315 c 0,2.05319 -1.66443,3.71762 -3.71761,3.71762 -2.05319,0 -3.71762,-1.66443 -3.71762,-3.71762 0,-2.05318 1.66443,-3.71761 3.71762,-3.71761 2.05318,0 3.71761,1.66443 3.71761,3.71761 z"
         sodipodi:ry="3.7176166"
         sodipodi:rx="3.7176166"
         sodipodi:cy="147.73315"
         sodipodi:cx="220.93265"
         id="path3162"
         style="fill:#000000;fill-opacity:1;stroke:none"
         sodipodi:type="arc" />
      <path
         transform="matrix(1.3449477,0,0,1.3449477,-261.46928,159.33772)"
         d="m 224.65026,147.73315 c 0,2.05319 -1.66443,3.71762 -3.71761,3.71762 -2.05319,0 -3.71762,-1.66443 -3.71762,-3.71762 0,-2.05318 1.66443,-3.71761 3.71762,-3.71761 2.05318,0 3.71761,1.66443 3.71761,3.71761 z"
         sodipodi:ry="3.7176166"
         sodipodi:rx="3.7176166"
         sodipodi:cy="147.73315"
         sodipodi:cx="220.93265"
         id="path3164"
         style="fill:#000000;fill-opacity:1;stroke:none"
         sodipodi:type="arc" />
      <path
         transform="matrix(1.3449477,0,0,1.3449477,-61.018718,-139.4428)"
         d="m 224.65026,147.73315 c 0,2.05319 -1.66443,3.71762 -3.71761,3.71762 -2.05319,0 -3.71762,-1.66443 -3.71762,-3.71762 0,-2.05318 1.66443,-3.71761 3.71762,-3.71761 2.05318,0 3.71761,1.66443 3.71761,3.71761 z"
         sodipodi:ry="3.7176166"
         sodipodi:rx="3.7176166"
         sodipodi:cy="147.73315"
         sodipodi:cx="220.93265"
         id="path3166"
         style="fill:#000000;fill-opacity:1;stroke:none"
         sodipodi:type="arc" />
      <path
         id="path3168"
         d="M 236.06897,59.011494 222.2046,145.1954"
         style="fill:none;stroke:#000000;stroke-width:2;stroke-linecap:butt;stroke-linejoin:miter;stroke-miterlimit:4;stroke-opacity:1;stroke-dasharray:2, 4;stroke-dashoffset:0"
         inkscape:connector-curvature="0" />
      <path
         sodipodi:open="true"
         sodipodi:end="6.5900072"
         sodipodi:start="4.4419473"
         transform="matrix(1.6071166,0,0,1.593439,-423.09367,223.75495)"
         d="m 268.93036,24.133441 c 32.92882,-9.20734 67.02341,10.251855 76.15239,43.46333 3.20289,11.652196 2.98031,23.991938 -0.64067,35.518929"
         sodipodi:ry="62.402851"
         sodipodi:rx="61.871761"
         sodipodi:cy="84.268135"
         sodipodi:cx="285.45984"
         id="path3170"
         style="fill:none;stroke:#000000;stroke-width:1.24979436;stroke-linecap:round;stroke-linejoin:round;stroke-miterlimit:4;stroke-opacity:1;stroke-dasharray:none;stroke-dashoffset:0"
         sodipodi:type="arc" />
      <path
         transform="matrix(1.3449477,0,0,1.3449477,-189.99573,90.45376)"
         d="m 224.65026,147.73315 c 0,2.05319 -1.66443,3.71762 -3.71761,3.71762 -2.05319,0 -3.71762,-1.66443 -3.71762,-3.71762 0,-2.05318 1.66443,-3.71761 3.71762,-3.71761 2.05318,0 3.71761,1.66443 3.71761,3.71761 z"
         sodipodi:ry="3.7176166"
         sodipodi:rx="3.7176166"
         sodipodi:cy="147.73315"
         sodipodi:cx="220.93265"
         id="path3172"
         style="fill:#000000;fill-opacity:1;stroke:none"
         sodipodi:type="arc" />
      <path
         id="path3174"
         d="M 107.21724,289.12069 35.806897,358.49655"
         style="fill:none;stroke:#000000;stroke-width:2;stroke-linecap:butt;stroke-linejoin:miter;stroke-miterlimit:4;stroke-opacity:1;stroke-dasharray:2, 4;stroke-dashoffset:0"
         inkscape:connector-curvature="0" />
      <path
         id="path3314"
         d="m 100.32171,190.97228 c -2.450352,-3e-5 -3.046872,0.10105 -3.046872,0.42188 0,0.21862 0.257235,0.46563 0.5625,0.5625 1.008105,0.31995 0.596715,1.10167 -2.015625,3.70312 l -2.578125,2.57813 -1.359375,-2.8125 c -1.29522,-2.70058 -1.34202,-2.87001 -0.84375,-3.23438 0.28635,-0.20941 0.75516,-0.375 1.03125,-0.375 0.27609,-3e-5 0.515625,-0.1885 0.515625,-0.42187 0,-0.36321 -0.528465,-0.39439 -3.65625,-0.32813 -2.619795,0.0555 -3.71427,0.17321 -3.796875,0.42188 -0.07001,0.21069 0.169125,0.32581 0.5625,0.32812 1.605495,0.009 1.76577,0.23045 3.65625,4.26563 1.012695,2.16159 1.831725,4.06394 1.828125,4.21875 -0.0036,0.15482 -1.61649,1.85985 -3.5625,3.79687 -3.47373,3.45763 -5.15718,4.62602 -6.65625,4.64063 -0.36729,0.004 -0.609375,0.177 -0.609375,0.42187 0,0.34585 0.535785,0.42186 3.1875,0.42188 2.53215,-3e-5 3.1875,-0.0704 3.1875,-0.375 0,-0.21117 -0.25725,-0.43579 -0.5625,-0.51563 -1.04208,-0.27253 -0.49296,-1.16893 2.53125,-4.35937 l 3,-3.1875 1.546875,3.1875 c 0.84744,1.75358 1.545465,3.36436 1.546875,3.60937 0.0015,0.2618 -0.381885,0.55723 -0.890625,0.70313 -1.806225,0.518 -0.890985,0.81362 2.765625,0.89062 3.148185,0.0662 3.656247,-0.0117 3.656247,-0.375 0,-0.28007 -0.23556,-0.42189 -0.749997,-0.42187 -0.428715,-3e-5 -1.013985,-0.13735 -1.265625,-0.32813 -0.251655,-0.19083 -1.377675,-2.33917 -2.53125,-4.78125 l -2.109375,-4.45312 3.421875,-3.375 c 2.84535,-2.80806 3.614042,-3.43974 4.640622,-3.70313 1.8375,-0.47146 1.9695,-0.53918 1.78125,-0.84375 -0.0989,-0.16011 -1.4485,-0.28123 -3.1875,-0.28125 z"
         style="fill:#008000;fill-opacity:1"
         inkscape:connector-curvature="0" />
      <path
         id="path3319"
         d="m 309.10916,308.54532 c -0.52259,0.0496 -0.65625,0.19341 -0.65625,0.375 0,0.28005 0.23554,0.42188 0.75,0.42188 0.4287,1e-5 0.97596,0.13734 1.21875,0.32812 0.24282,0.19082 1.34169,2.48469 2.4375,5.10938 l 2.01562,4.78125 -0.65625,2.85937 c -0.71022,3.18095 -1.14922,3.84375 -2.57812,3.84375 -0.9415,2e-5 -1.43921,0.29522 -1.07813,0.65625 0.30168,0.3017 7.73438,0.0769 7.73438,-0.23437 0,-0.15261 -0.49725,-0.32711 -1.07813,-0.375 -0.58087,-0.0478 -1.09507,-0.26861 -1.17187,-0.46875 -0.19905,-0.51873 0.98129,-5.4156 1.5,-6.23438 0.23887,-0.37704 2.14899,-2.56404 4.26562,-4.875 3.65204,-3.98731 4.60201,-4.83015 6.375,-5.34375 1.59212,-0.46117 0.89587,-0.7654 -1.92187,-0.84375 -2.30779,-0.0641 -2.85938,0.009 -2.85938,0.32813 0,0.21649 0.25724,0.43579 0.5625,0.51562 0.30526,0.0799 0.5625,0.3681 0.5625,0.60938 0,0.40032 -6.86693,8.20311 -7.21875,8.20312 -0.0835,2e-5 -0.91807,-1.90512 -1.875,-4.21875 -1.85521,-4.48551 -1.86758,-4.63179 -0.23437,-4.64062 0.50415,-0.003 0.73013,-0.15258 0.65625,-0.375 -0.0826,-0.24867 -1.13023,-0.36638 -3.75,-0.42188 -1.5639,-0.0331 -2.47742,-0.0496 -3,0 z"
         style="fill:#0000c0;fill-opacity:1;stroke:none"
         inkscape:connector-curvature="0" />
      <g
         transform="translate(156.15117,37.616504)"
         id="g3328">
        <path
           style="fill:#ffffff;fill-opacity:1"
           d="m 31.402461,311.91227 c -5.830618,3.0661 -7.634141,10.92659 -7.46875,16.65625 -3.433137,-1.73234 1.400636,-7.96184 1.1875,-11.46875 2.457984,-5.02301 -2.13661,-4.06582 -5.8125,-3.4375 -2.460531,0.38347 -2.564675,3.94042 -0.4375,4.71875 -0.03967,3.3037 -4.991629,0.95342 -6.53125,3.90625 -4.7289422,3.4894 -5.2157802,14.18204 2.15625,14.3125 1.980853,-0.66844 3.247315,-1.00771 5.21875,-0.0937 2.514436,0.72646 4.339741,-2.55843 4.75,-3.875 1.189551,4.08904 3.429256,10.13053 8.375,10.4375 3.538347,-3.28515 -2.766314,-6.27382 -2.6875,-10.125 -1.501866,-6.24865 -0.446355,-13.33105 3.9375,-18.25 0.268594,-1.55395 -0.958916,-3.3886 -2.6875,-2.78125 z m 43.46875,0.3125 c -2.785758,3.28033 3.218504,6.13707 3.03125,9.84375 1.702321,6.56257 0.130976,13.39573 -4.09375,18.5625 1.125786,5.05645 6.248787,0.69345 7.40625,-2.125 4.688414,-8.19226 3.98688,-21.26763 -4.5625,-26.59375 -0.577779,-0.0282 -1.4806,-0.41281 -1.78125,0.3125 z m -77.6250002,0.96875 c -4.105365,-0.0225 -5.609862,4.68778 -5.84375,7.4375 -1.8213848,0.35186 -1.5412118,3.16694 -2.9374998,0.6875 -2.652902,-2.24884 -5.932767,-0.12795 -8.71875,-1.15625 -1.867779,-0.98431 -5.176452,2.89229 -4.28125,-0.28125 -1.997625,0.54132 1.729683,-3.05185 -0.59375,-4.3125 -3.457854,-4.39565 -8.220481,2.76872 -4.71875,4.78125 -2.967461,-0.24516 -3.265534,4.65611 -0.375,4.9375 2.38e-4,3.04698 0.759659,6.00209 -1.875,7.75 -0.543016,5.00967 6.17582,2.60329 9.125,3.0625 4.895615,0.12677 9.979134,-0.0448 14.7187498,0 -3.0472988,0.45033 -2.0569058,4.36183 0.375,4.59375 3.456564,3.82645 -2.7518358,7.30976 -5.8124998,7.9375 -1.90597,-0.21893 -7.792829,-0.26897 -2.34375,-0.40625 3.414178,1.37292 6.5458648,-3.79295 2.34375,-4.78125 -1.129064,-0.18521 -7.229782,-0.0539 -3.375,-0.375 2.84112,0.9645 7.5369758,-1.63486 4.40625,-4.53125 -4.045003,-1.48002 -9.442713,0.0557 -11.59375,3.25 -2.045729,-2.59763 -5.227136,-0.60412 -7.8125,-1.40625 -3.003773,0.38843 -5.373937,4.3177 -3.90625,6.53125 -2.953506,3.51022 2.077089,6.81341 5.21875,5.25 2.684893,1.35983 5.522607,-1.14001 6.5,-2.90625 2.311636,4.76707 9.279402,5.15769 13,2.9375 2.7695418,0.62318 6.8961768,0.0894 6.2812498,-3.40625 1.236629,-1.55523 -1.155975,3.89045 2.25,3.34375 2.594719,0.91381 8.815593,-0.028 5.9375,-3.75 -3.305909,-1.29751 -3.908134,-6.02649 -0.15625,-7.625 3.31265,0.032 4.186913,-4.88511 0.4375,-4.8125 -1.930429,-0.97904 -5.353084,1.31458 -5.75,0.21875 3.168655,-0.004 2.877968,-4.79784 -0.15625,-4.75 0.283931,-2.67408 -1.329403,-6.36886 2.125,-6.65625 2.664856,-2.09195 -0.771598,-4.34971 -2.25,-4.65625 0.72016,-0.33589 4.044075,0.28904 4.46875,-2.09375 0.948313,-2.90403 -1.849594,-5.35351 -4.6875,-4.8125 z m -54.8749998,6.90625 c -1.596948,-0.50811 -5.167837,1.54442 -5.03125,-0.1875 -5.347727,1.16738 -9.76033,-0.29402 -14.9375,0.71875 -3.57403,1.03065 -3.55095,5.37121 -2.8125,7.9375 -1.34357,3.1364 -0.86357,9.49085 3.71875,7.71875 3.392787,1.45932 7.800329,-1.1742 8.34375,-3.9375 0.741431,5.28606 7.535597,4.25029 10.84375,4.15625 1.979585,-0.14928 5.343565,-1.2985 2.34375,0.78125 -1.728535,1.26019 -0.223828,3.89342 0.9375,4 -2.819172,-0.75735 -2.493524,3.122 -4.8125,2.21875 -3.337775,-0.37196 -7.237583,0.39765 -9.0625,3.5 -1.181386,-2.22236 -4.464856,-0.39606 -4.9375,0.25 -3.329455,-4.88981 -10.57465,2.90118 -5.9375,5.71875 0.812167,2.55678 -2.75332,5.27133 0.3125,7.4375 4.429602,3.17658 9.746349,-2.33504 9.78125,-6.71875 1.567081,4.92971 9.163207,7.00428 12.8125,3.65625 0.01803,-2.18229 2.096945,1.43304 3.8125,0.28125 2.928332,-0.0609 6.573436,0.44897 5.40625,-3.53125 -3.458905,-1.23889 1.774047,-4.71502 2.625,-6.21875 1.757105,-2.06901 7.293345,-3.66143 3.0625,-6.28125 -2.828845,-1.0041 -6.913834,-0.3521 -6.53125,3.21875 -3.116138,3.65264 1.06201,-2.99748 -2.21875,-3.21875 -2.013464,-0.53716 5.225407,0.57263 3.90625,-2.6875 0.601512,-1.73456 -3.831946,-2.65749 -0.625,-2.375 8.352592,0.2097 10.493995,-12.82955 2.96875,-15.75 -2.654973,-1.31165 -5.288694,0.15897 -7.90625,-0.59375 -2.612917,-0.062 -4.056653,1.63253 -4.870037,-0.213 l -0.995037,0.0995 -0.197426,0.0197 z m 102.40625,0.0937 c -2.648624,1.69548 -5.70737,-1.39988 -8.4375,1.03125 -2.760462,1.41525 -4.667635,8.15997 0.1875,7.1875 1.586327,-0.77815 2.676003,-4.75683 1.715391,-0.81388 0.492598,4.04704 -3.415338,0.34258 -4.934141,3.06388 -3.13447,3.85259 3.165204,7.94926 6.3125,5 4.217521,3.47917 11.812953,-3.47187 7.8125,-7.28125 -2.281203,-1.80991 -3.639184,2.89843 -4.0625,2.71875 0.388531,-3.19594 0.84958,-4.49526 3.9375,-3.9375 4.550869,-1.81554 1.752215,-7.8795 -2.53125,-6.96875 z m 19.34375,0 c -3.935632,0.62971 -6.853128,7.88371 -2.40625,8.78125 -0.968485,2.50165 1.282784,5.13022 -1.40625,6.65625 -2.421196,5.27942 5.3638,8.1298 8.75,4.59375 4.942038,-4.1147 4.963165,-11.43994 6.375,-17.25 -0.433673,-3.88662 -6.154948,-2.49207 -5.90625,1.0625 -0.360002,1.25266 -2.450216,10.19312 -2.21875,6.25 1.624551,-3.76379 3.274126,-10.46612 -3.1875,-10.09375 z m -88.34375,4.25 c 2.689037,0.89851 1.307762,5.19193 1.09375,7.0625 -2.856063,1.36071 -0.8752,-7.28338 -1.09375,-7.0625 z m -31.09375,0 c 2.835879,0.96022 1.157042,6.59028 1.125,7.625 -2.649061,-0.7373 -0.673789,-5.94165 -1.125,-7.625 z m 45.7187498,0.4375 c 2.914947,0.21576 1.17676,5.00811 1.0625,6.625 -2.1953188,1.32578 -1.100008,-7.55219 -1.0625,-6.625 z m -52.7812498,-0.125 c 1.914732,0.97061 1.542619,5.18517 0.40625,6.96875 -1.742521,0.71891 -0.0061,-4.59833 -0.6875,-5.40625 0.446097,0.13753 -0.571528,-2.45992 0.28125,-1.5625 z m -12.34375,-0.0625 c 2.038942,0.39565 -0.654337,0.32917 0,0 z m 59,0.125 c -0.25834,1.75851 1.472911,7.28057 -1.15625,6.65625 0.39873,-1.99074 -1.086176,-5.57448 1.15625,-6.65625 z m -31.25,0.0625 c 2.749391,0.57532 2.55551,6.88381 -0.3125,6.96875 -1.16792,-1.31077 -1.805464,-5.78584 0.125,-6.9375 0.07753,0.0532 0.118642,-0.0478 0.1875,-0.0312 z m 64.0625,0.0312 c -0.26915,1.81151 -0.740353,6.53217 -2.375,6.46875 0.302077,-2.23528 0.461863,-4.989 2.375,-6.46875 z m -85.96875,0.28125 c 0.76477,1.9388 0.622444,5.77968 -0.5625,2.0625 0.47536,-0.56649 0.410704,-1.54744 0.5625,-2.0625 z m 120.5,4.46875 c -3.548551,0.76979 -2.435672,5.35827 -0.625,6.625 -3.112519,2.30559 0.241721,7.50778 3.03125,3.875 2.811197,-2.88502 3.484041,-11.16314 -2.40625,-10.5 z m -126.3125,1.375 c 2.826964,0.55834 -1.185506,1.77619 -1.21875,-0.28125 l 0.974391,0.22486 0.244359,0.0564 z m 18.96875,14.6875 c 2.002481,2.24226 3.922076,7.33687 -0.03125,8.46875 -0.01642,2.4368 -2.136231,-1.47212 -3.96875,-0.34375 -2.194345,0.19905 -4.712301,-0.50581 -0.53125,-0.28125 3.614172,1.51127 6.562908,-4.18683 2.0625,-4.8125 -1.040748,-0.0512 -6.910807,-0.0275 -3.09375,-0.3125 2.206889,0.0481 5.565563,0.11143 5.5625,-2.71875 z"
           id="path3306"
           inkscape:connector-curvature="0" />
        <path
           style="fill:#000000"
           d="m 31.957576,313.82937 c -0.40522,-0.15588 -2.089389,1.50339 -3.249999,3.28125 -0.95262,1.45928 -1.84181,3.56449 -2.34375,5.5625 -0.23841,0.94902 -0.30918,2.07367 -0.3125,4.75 -0.0038,3.09717 0.05587,3.72042 0.4375,5.1875 0.77449,2.97732 2.20596,5.58096 4.062499,7.4375 0.92068,0.9207 1.5,1.23367 1.5,0.78125 0,-0.11077 -0.37899,-0.63108 -0.84375,-1.15625 -1.09783,-1.24057 -2.553979,-4.26011 -3.031249,-6.25 -0.20745,-0.8649 -0.47489,-2.57571 -0.59375,-3.8125 -0.52434,-5.45515 0.87467,-11.06389 3.531249,-14.25 0.52654,-0.6315 0.9375,-1.23753 0.9375,-1.34375 0,-0.10094 -0.03586,-0.16523 -0.09375,-0.1875 z m 44.0625,0 c -0.06918,0.0198 -0.125,0.0785 -0.125,0.1875 0,0.10621 0.442211,0.71224 0.96875,1.34375 0.52654,0.6315 1.319798,1.89672 1.75,2.8125 3.125493,6.65329 2.232104,16.81271 -1.875,21.5 -0.46017,0.52517 -0.843749,1.04547 -0.84375,1.15625 0,0.77882 2.019269,-1.005 3.28125,-2.90625 1.763674,-2.65708 2.631903,-5.64591 2.781253,-9.5 0.22607,-5.83455 -1.310239,-10.37274 -4.593753,-13.65625 -0.657473,-0.65747 -1.136225,-0.99676 -1.34375,-0.9375 z m -78.5624962,1.3125 c -1.28922,0.0932 -2.34849,0.71888 -3.09375,1.84375 -0.47961,0.72389 -0.50521,0.92591 -0.5625,3.15625 l -0.0625,2.375 -1.09375,0 c -0.97198,0 -1.09375,0.0467 -1.09375,0.375 0,0.32889 0.10707,0.375 1.09375,0.375 l 1.125,0 0,4.625 c 0,2.8428 -0.07008,4.78062 -0.1875,5 -0.10533,0.19682 -0.39964,0.34234 -0.625,0.34375 -0.77629,0.005 -1.21875,0.23978 -1.21875,0.59375 0,0.32757 0.16818,0.34376 3.125,0.34375 2.9826,0 3.15625,-0.005 3.15625,-0.34375 0,-0.29236 -0.18927,-0.39871 -1,-0.5 -0.54399,-0.068 -1.10717,-0.19309 -1.25,-0.28125 -0.21204,-0.1309 -0.25,-1.04181 -0.25,-4.9375 l 0,-4.75 1.53125,-0.0625 c 1.37418,-0.0484 1.531249,-0.0798 1.531249,-0.40625 0,-0.3316 -0.155359,-0.375 -1.593749,-0.375 l -1.5625,0 0,-1.90625 c 0,-2.95446 0.65158,-4.49513 2.0625,-4.84375 0.73678,-0.18205 0.916,0.009 0.5625,0.625 -0.24866,0.43327 -0.23957,0.61136 -0.0625,1 0.47346,1.0391 2.062496,0.70507 2.062496,-0.4375 0,-1.27939 -0.916167,-1.93386 -2.593746,-1.8125 z m 25.9687472,0.0937 -1.75,0.15625 c -2.14351,0.15866 -2.375,0.20738 -2.375,0.65625 0,0.29892 0.13539,0.37499 0.8125,0.375 0.44542,0 0.86991,0.0915 0.96875,0.21875 0.12159,0.15648 -0.07305,1.34036 -0.65625,3.65625 l -0.875,3.4375 -0.34375,-0.53125 c -1.31993,-2.01086 -4.74626,-1.04438 -6.75,1.90625 -1.04925,1.5451 -1.51593,2.81818 -1.625,4.53125 -0.14747,2.31626 0.39841,3.66204 1.875,4.5625 1.1797,0.7194 2.97279,0.33492 4.34375,-0.9375 0.69677,-0.64667 0.75,-0.69476 0.75,-0.3125 0,0.15102 0.24539,0.55506 0.53125,0.875 0.42193,0.47222 0.69293,0.5817 1.46875,0.65625 0.89566,0.0861 1.00043,0.0621 1.59375,-0.53125 0.43115,-0.43115 0.7663,-1.04847 1.03125,-1.90625 0.45918,-1.48667 0.49569,-1.9375 0.125,-1.9375 -0.17272,0 -0.39961,0.38786 -0.59375,1.0625 -0.6011,2.08876 -1.27958,2.97715 -2.09375,2.71875 -0.78676,-0.24972 -0.702,-1.01466 1.375,-9.46875 1.0959,-4.46068 2.04711,-8.33099 2.09375,-8.625 l 0.09375,-0.5625 z m -51.406247,1 c -0.26771,0.0442 -0.55404,0.1928 -0.78125,0.40625 -0.52953,0.49747 -0.53122,1.2446 -0.03125,1.78125 0.54688,0.58702 1.50464,0.536 2,-0.0937 0.48371,-0.61493 0.4837,-1.01007 0,-1.625 -0.30311,-0.38534 -0.74131,-0.54243 -1.1875,-0.46875 z m -36.718751,5.84375 -1.40625,0.125 c -0.7785,0.0658 -1.6476,0.125 -1.9375,0.125 -0.43891,0 -0.53125,0.0836 -0.53125,0.46875 0,0.40016 0.06412,0.46875 0.59375,0.46875 0.33668,0 0.77124,0.10578 0.96875,0.25 0.33329,0.24339 0.38289,0.59553 0.46875,4.6875 0.08992,4.2858 0.09946,4.42583 0.53125,5.03125 0.24431,0.34256 0.80169,0.77932 1.21875,0.96875 0.85439,0.38801 2.73427,0.47114 3.5625,0.15625 0.28574,-0.10865 0.84811,-0.59738 1.28125,-1.0625 l 0.8125,-0.84375 0,1.0625 0,1.09375 1.40625,-0.125 c 0.7785,-0.0658 1.60473,-0.12499 1.84375,-0.125 0.34023,0 0.4375,-0.10667 0.4375,-0.46875 0,-0.40525 -0.08888,-0.46874 -0.65625,-0.46875 -0.40083,0 -0.77094,-0.14593 -1,-0.375 -0.35278,-0.35278 -0.375,-0.60354 -0.375,-5.65625 l 0,-5.3125 -1.25,0.125 c -0.68682,0.0649 -1.55594,0.12427 -1.9375,0.125 -0.60616,10e-4 -0.6875,0.0544 -0.6875,0.4375 0,0.38414 0.09432,0.44676 0.84375,0.53125 0.47048,0.053 0.91239,0.20547 1,0.34375 0.08761,0.13827 0.18593,1.79778 0.1875,3.6875 0.0033,4.0077 -0.18558,4.79439 -1.3125,5.8125 -0.83923,0.7582 -1.76667,0.99148 -2.78125,0.6875 -1.23895,-0.3712 -1.28125,-0.59265 -1.28125,-6.53125 l 0,-5.21875 z m 38.125001,0 -1.25,0.125 c -0.68683,0.0649 -1.54429,0.12427 -1.875,0.125 -0.51766,10e-4 -0.593751,0.0706 -0.593751,0.46875 0,0.40525 0.08889,0.46875 0.656251,0.46875 0.40083,0 0.8022,0.14595 1.03125,0.375 0.34862,0.34862 0.34375,0.60443 0.34375,4.625 0,2.58774 -0.07137,4.40799 -0.1875,4.625 -0.10534,0.19682 -0.36839,0.34234 -0.59375,0.34375 -0.77629,0.005 -1.250001,0.23978 -1.250001,0.59375 0,0.32625 0.189971,0.34376 2.875001,0.34375 2.68504,0 2.875,-0.0175 2.875,-0.34375 0,-0.3557 -0.4631,-0.58904 -1.25,-0.59375 -0.28022,-0.002 -0.50486,-0.15278 -0.625,-0.46875 -0.10141,-0.2667 -0.15625,-2.69502 -0.15625,-5.5625 l 0,-5.125 z m -48.156251,0.0625 c -2.72368,0.002 -4.21875,1.18797 -4.21875,3.3125 0,1.45879 1.13229,2.76054 2.75,3.15625 0.3662,0.0896 1.25988,0.30276 1.96875,0.46875 2.05239,0.4806 2.99078,1.66917 2.5,3.15625 -0.27636,0.83734 -1.09807,1.49859 -2.03125,1.65625 -2.08634,0.35249 -3.54407,-0.6759 -4.25,-3 -0.25249,-0.83127 -0.49499,-1.34374 -0.65625,-1.34375 -0.20984,0 -0.28125,0.48039 -0.28125,2.5 0,2.04393 0.06446,2.50001 0.28125,2.5 0.1457,0 0.44041,-0.25938 0.65625,-0.5625 l 0.375,-0.53125 0.78125,0.5 c 0.69176,0.45735 0.90514,0.50001 2.4375,0.5 1.54163,0 1.75818,-0.0608 2.46875,-0.53125 1.87279,-1.23979 2.22868,-3.72214 0.75,-5.40625 -0.76282,-0.86881 -1.21218,-1.06452 -3.5,-1.625 -1.59924,-0.39178 -2.01719,-0.56704 -2.4375,-1.03125 -0.91221,-1.00744 -0.63463,-2.22638 0.65625,-2.8125 2.06527,-0.93771 4.37249,-0.0293 4.6875,1.84375 0.18571,1.10425 0.25254,1.31251 0.53125,1.3125 0.21399,0 0.28125,-0.3882 0.28125,-2.03125 0,-2.16498 -0.15213,-2.42047 -0.84375,-1.65625 -0.32589,0.3601 -0.32542,0.36011 -1.03125,0 -0.48388,-0.24685 -1.08274,-0.37572 -1.875,-0.375 z m 23.96875,0 c -0.33098,-0.0152 -0.87735,0.0486 -1.78125,0.125 -1.30326,0.11017 -1.4375,0.15282 -1.4375,0.53125 0,0.34311 0.13027,0.41268 0.78125,0.5 0.43102,0.0578 0.89985,0.25778 1.03125,0.4375 0.30482,0.41686 0.3329,13.78012 0.03125,14.34375 -0.10533,0.19681 -0.3684,0.34236 -0.59375,0.34375 -0.7763,0.005 -1.25,0.2398 -1.25,0.59375 0,0.32672 0.19312,0.34376 2.96875,0.34375 2.79762,0 2.96875,-0.0386 2.96875,-0.375 0,-0.2864 -0.18714,-0.37576 -0.96875,-0.5 l -0.96875,-0.15625 -0.0625,-2.65625 -0.0625,-2.65625 0.65625,0.5625 c 0.87394,0.76733 1.77256,1.01734 3.15625,0.90625 2.02732,-0.16273 3.73918,-1.39564 4.75,-3.4375 0.35667,-0.72051 0.43571,-1.13341 0.4375,-2.6875 0.0019,-1.61224 -0.07762,-2.00559 -0.5,-2.90625 -1.57359,-3.35553 -5.70965,-4.40069 -8.15625,-2.0625 l -0.5,0.5 0,-0.875 c 0,-0.62023 0.05163,-0.84958 -0.5,-0.875 z m 30.687501,0 c -0.33004,0.016 -0.78836,0.0728 -1.40625,0.125 -1.30326,0.11017 -1.40625,0.15282 -1.40625,0.53125 0,0.34311 0.13027,0.41268 0.78125,0.5 0.43101,0.0578 0.89984,0.25778 1.03125,0.4375 0.30118,0.41187 0.32752,8.60262 0.03125,9.15625 -0.10533,0.19682 -0.36838,0.34234 -0.59375,0.34375 -0.77629,0.005 -1.25,0.23978 -1.25,0.59375 0,0.32672 0.19314,0.34376 2.96875,0.34375 2.79762,0 2.93749,-0.007 2.9375,-0.34375 0,-0.28639 -0.18719,-0.40696 -0.96875,-0.53125 l -0.96875,-0.15625 -0.03125,-3.5 c -0.06002,-4.16264 0.07615,-4.8291 1.3125,-5.96875 1.3869,-1.2784 3.00252,-1.23819 3.6875,0.125 0.2873,0.57176 0.32342,1.16122 0.28125,5 l -0.0625,4.34375 -0.96875,0.15625 c -0.78155,0.12433 -0.96876,0.24487 -0.96875,0.53125 0,0.33636 0.17114,0.34376 2.96875,0.34375 2.8138498,0 2.9374998,-0.0312 2.9374998,-0.375 0,-0.27482 -0.16023,-0.38449 -0.6874998,-0.46875 -1.30931,-0.20917 -1.24187,0.0621 -1.34375,-4.84375 -0.08577,-4.12954 -0.11506,-4.49555 -0.46875,-4.96875 -0.73998,-0.99003 -1.29177,-1.27858 -2.71875,-1.34375 -1.64113,-0.0749 -2.68333,0.38675 -3.59375,1.59375 l -0.625,0.8125 0,-1.21875 c 0,-1.04696 0.11512,-1.2667 -0.875,-1.21875 z m 65.156246,0 c -0.91712,0.09 -1.81141,0.57003 -2.25,1.3125 -0.17591,0.29778 -0.35188,0.53191 -0.40625,0.53125 -0.05438,-6.4e-4 -0.23415,-0.22879 -0.40625,-0.53125 -1.04304,-1.83313 -4.08291,-1.68485 -5.46875,0.28125 -0.59507,0.84426 -1.15625,2.07496 -1.15625,2.5 0,0.72527 0.56854,0.30296 0.9375,-0.6875 0.45045,-1.20921 1.57098,-2.39042 2.5625,-2.6875 0.67809,-0.20316 0.83137,-0.17762 1.28125,0.15625 0.94155,0.69877 0.91154,1.26515 -0.125,5.40625 -1.00205,4.00326 -1.42128,4.95406 -2.4375,5.375 -0.31696,0.13129 -0.82697,0.16723 -1.21875,0.0937 l -0.65625,-0.125 0.46875,-0.4375 c 0.51337,-0.47577 0.63535,-1.33342 0.25,-1.71875 -0.62971,-0.6297 -2,0.14313 -2,1.125 0,0.71551 0.29719,1.20071 0.90625,1.53125 1.25141,0.67911 3.01326,0.17724 3.84375,-1.0625 0.19262,-0.28753 0.38662,-0.50036 0.4375,-0.5 0.05087,3.5e-4 0.23414,0.22875 0.40625,0.53125 1.0051,1.76644 3.86787,1.67981 5.3125,-0.15625 1.12058,-1.4242 1.67399,-3.07251 1,-2.9375 -0.16477,0.033 -0.43039,0.47759 -0.625,1 -0.62785,1.68542 -2.33957,3.01173 -3.53125,2.75 -0.61258,-0.13455 -1.09375,-0.88792 -1.09375,-1.71875 0,-0.8972 1.66317,-7.26514 2.09375,-8.03125 0.55192,-0.98202 1.45016,-1.49965 2.28125,-1.34375 0.7477,0.14027 0.739,0.16724 0.25,0.65625 -0.45621,0.45621 -0.49108,1.55428 -0.0625,1.71875 1.79542,0.68897 2.72182,-1.85961 1,-2.75 -0.47716,-0.24675 -1.04348,-0.33527 -1.59375,-0.28125 z m 19.5,0 c -0.69492,0 -0.85405,0.10642 -1.625,0.90625 -1.17793,1.22208 -2.14062,3.65072 -1.375,3.5 0.18227,-0.0359 0.484849,-0.49292 0.71875,-1.15625 0.48129,-1.3649 1.695471,-2.74883 2.34375,-2.65625 0.26875,0.0384 0.48548,0.25333 0.59375,0.5625 0.14,0.39978 -0.01197,1.03855 -0.8125,3.40625 -0.8582,2.53828 -0.989689,3.1233 -1,4.40625 -0.0094,1.16525 0.08369,1.60651 0.375,2.09375 0.79381,1.32772 2.935519,1.75162 4.46875,0.875 0.43245,-0.24727 0.781249,-0.36117 0.78125,-0.28125 0,0.0799 -0.145769,0.61206 -0.34375,1.1875 -0.74504,2.1655 -2.321639,3.89319 -3.75,4.125 -0.77557,0.12585 -1.90062,-0.30769 -2.1875,-0.84375 -0.18323,-0.34236 -0.154452,-0.40624 0.25,-0.40625 0.50348,0 1.218748,-0.74302 1.21875,-1.28125 0,-0.47153 -0.494739,-0.93751 -1.03125,-0.9375 -0.74711,0 -1.375,0.78454 -1.375,1.71875 0,0.9092 0.34966,1.50513 1.1875,2.03125 0.4586,0.28798 0.829889,0.33072 1.78125,0.28125 1.47776,-0.0768 2.670362,-0.62669 3.875,-1.8125 1.47365,-1.45058 1.8457,-2.48016 3.4375,-8.90625 1.23068,-4.96823 1.427639,-5.87331 1.21875,-6.125 -0.35622,-0.42922 -1.05848,-0.39345 -1.375,0.0937 -0.14874,0.22895 -0.79645,2.43293 -1.40625,4.875 l -1.09375,4.4375 -0.84375,0.78125 c -1.48523,1.35314 -2.899279,1.23892 -3.40625,-0.25 -0.34332,-1.00827 -0.07791,-2.76298 0.875,-5.5625 0.40957,-1.20325 0.749999,-2.49809 0.75,-2.875 0,-1.4358 -0.773341,-2.18749 -2.25,-2.1875 z m -47.406249,0.5625 c 0.97409,0 1.9375,1.20287 1.9375,2.40625 0,0.4927 -0.49849,2.68444 -1.3125,5.78125 -0.23402,0.89031 -1.49414,2.30483 -2.46875,2.75 -1.89031,0.86345 -2.82009,-0.17417 -2.625,-2.90625 0.10706,-1.49956 0.79764,-4.24471 1.34375,-5.3125 0.74135,-1.44956 2.19984,-2.71874 3.125,-2.71875 z m -64.218748,0.15625 c 0.94936,-0.0474 1.88867,0.32419 2.5625,1.125 1.30133,1.54654 1.73613,4.8948 0.90625,7.03125 -0.44475,1.14501 -1.48078,2.34354 -2.375,2.71875 -1.1673,0.48977 -2.3687,0.15686 -3.40625,-0.96875 l -0.71875,-0.8125 0,-3.53125 c 0,-3.52093 -8.5e-4,-3.57181 0.46875,-4.1875 0.66172,-0.86755 1.61314,-1.32755 2.5625,-1.375 z m 99.187497,8.71875 c -0.30543,0.0326 -0.55493,0.17237 -0.71875,0.40625 -0.40967,0.58487 -0.37111,1.3789 0.09375,1.84375 0.31948,0.31948 0.54,0.35775 1.21875,0.28125 l 0.8125,-0.0937 -0.125,0.96875 c -0.15429,1.16613 -0.668344,2.3906 -1.40625,3.3125 -0.30609,0.38242 -0.49986,0.77409 -0.4375,0.875 0.06236,0.1009 0.19456,0.18751 0.28125,0.1875 0.2844,0 1.167748,-1.18119 1.65625,-2.21875 0.40661,-0.86363 0.468641,-1.27829 0.46875,-2.71875 10e-5,-1.4348 -0.07778,-1.77663 -0.40625,-2.21875 -0.333781,-0.44929 -0.92845,-0.67925 -1.4375,-0.625 z m -50.2500002,6.28125 c -1.63357,0 -2.03125,0.0674 -2.03125,0.28125 0,0.14577 0.17149,0.31042 0.375,0.375 0.67207,0.21332 0.39781,0.73445 -1.343747,2.46875 l -1.718749,1.71875 -0.90625,-1.875 c -0.86348,-1.80037 -0.89468,-1.91334 -0.5625,-2.15625 0.1909,-0.13959 0.50344,-0.25 0.6875,-0.25 0.18406,0 0.34375,-0.12567 0.34375,-0.28125 0,-0.24212 -0.35231,-0.26293 -2.4375,-0.21875 -1.74653,0.037 -2.47618,0.11547 -2.53125,0.28125 -0.04667,0.14048 0.11275,0.21721 0.375,0.21875 1.07033,0.006 1.17718,0.15363 2.4375,2.84375 0.67513,1.44108 1.22115,2.70929 1.21875,2.8125 -0.00239,0.10323 -1.07766,1.2399 -2.375,2.53125 -2.31582,2.3051 -3.4381198,3.08401 -4.4374998,3.09375 -0.24486,0.002 -0.40625,0.118 -0.40625,0.28125 0,0.23058 0.35719,0.28124 2.1249998,0.28125 1.6881,0 2.125,-0.0469 2.125,-0.25 0,-0.14076 -0.1715,-0.29053 -0.375,-0.34375 -0.69472,-0.18167 -0.32864,-0.77929 1.6875,-2.90625 l 2,-2.125 1.03125,2.125 c 0.56496,1.16907 1.03031,2.24291 1.03125,2.40625 9.9e-4,0.17455 -0.25459,0.37148 -0.59375,0.46875 -1.20415,0.34535 -0.59399,0.54241 1.843749,0.59375 2.098787,0.0442 2.437497,-0.008 2.437497,-0.25 0,-0.1867 -0.15704,-0.28126 -0.5,-0.28125 -0.28581,0 -0.67599,-0.0916 -0.84375,-0.21875 -0.16777,-0.1272 -0.91845,-1.55945 -1.687497,-3.1875 l -1.406249,-2.96875 2.281246,-2.25 c 1.8969,-1.87202 2.40936,-2.29316 3.09375,-2.46875 1.225,-0.31429 1.313,-0.35946 1.1875,-0.5625 -0.06594,-0.10672 -0.96567,-0.18749 -2.125,-0.1875 z m -17.9999958,2.21875 c -2.72861,0 -3.853,0.32535 -5.1875,1.5 -3.25534,2.86548 -2.1127,8.02808 2.09375,9.53125 0.40882,0.1461 1.5869,0.24506 3.03125,0.25 2.00237,0.007 2.3725,-0.0305 2.46875,-0.28125 0.19213,-0.50068 -0.31885,-0.61783 -2.625,-0.625 -1.82647,-0.006 -2.34633,-0.0653 -3.03125,-0.375 -1.41205,-0.63844 -2.52917,-1.93614 -2.875,-3.375 l -0.09375,-0.5 4.25,0 c 3.73942,0 4.27533,-0.0528 4.375,-0.3125 0.06251,-0.16289 0.01703,-0.34758 -0.125,-0.4375 -0.14203,-0.0899 -2.11101,-0.18594 -4.375,-0.1875 -2.264,-0.002 -4.12499,-0.0467 -4.125,-0.0937 0,-0.51277 0.88907,-2.18521 1.4375,-2.71875 1.19502,-1.1626 2.02206,-1.4296 4.5625,-1.4375 2.30614,-0.007 2.81712,-0.12432 2.625,-0.625 -0.09582,-0.2497 -0.45756,-0.31249 -2.40625,-0.3125 z m -11.3125,2.21875 c -0.44773,0.036 -0.90275,0.23398 -1.3125,0.59375 -0.59995,0.52676 -0.68743,0.56058 -0.84375,0.28125 -0.4699,-0.83967 -2.032931,-1.10611 -3.125001,-0.53125 -0.6439,0.33894 -1.84374,1.88983 -1.84375,2.375 0,0.42723 0.57026,0.28523 0.75,-0.1875 0.30978,-0.81482 1.29489,-1.74858 1.96875,-1.875 0.74313,-0.13941 1.34374,0.26224 1.34375,0.90625 0,0.81171 -1.08917,4.81333 -1.4375,5.28125 -0.41461,0.55695 -1.13388,0.86397 -1.59375,0.6875 -0.28912,-0.11094 -0.2784,-0.12784 0,-0.40625 0.44293,-0.44293 0.28746,-1.26762 -0.25,-1.34375 -1.06427,-0.15074 -1.54138,1.30374 -0.65625,2 0.82393,0.64811 2.47884,0.36884 3,-0.5 0.18494,-0.30835 0.22129,-0.30835 0.40625,0 0.48186,0.80334 2.111651,1.13599 3.093751,0.625 1.12971,-0.5878 2.40074,-2.71875 1.625,-2.71875 -0.14356,0 -0.43644,0.38971 -0.65625,0.84375 -0.70088,1.44784 -2.28871,2.03624 -2.90625,1.09375 -0.29337,-0.44774 -0.2639,-0.59478 0.3125,-3 0.68006,-2.83784 1.1391,-3.56252 2.21875,-3.5625 0.62546,0 0.72284,0.19603 0.28125,0.5625 -0.15962,0.13249 -0.28094,0.45256 -0.25,0.71875 0.04194,0.36077 0.16508,0.4888 0.53125,0.53125 1.07081,0.12416 1.52056,-1.26428 0.625,-1.96875 -0.37692,-0.29648 -0.83352,-0.44226 -1.28125,-0.40625 z m -25.593751,0.96875 c -2.0852,-0.0442 -2.4375,0.008 -2.4375,0.25 0,0.18669 0.1883,0.28124 0.53125,0.28125 0.28581,0 0.65063,0.0916 0.8125,0.21875 0.16187,0.12718 0.89445,1.65644 1.625,3.40625 l 1.3125,3.1875 -0.40625,1.90625 c -0.47347,2.12062 -0.76616,2.56251 -1.71875,2.5625 -0.62769,0 -0.95946,0.19678 -0.71875,0.4375 0.20112,0.20111 5.12501,0.0513 5.125,-0.15625 0,-0.10175 -0.30026,-0.21808 -0.6875,-0.25 -0.38726,-0.0319 -0.76132,-0.17909 -0.8125,-0.3125 -0.13271,-0.34584 0.6542,-3.6104 1,-4.15625 0.15925,-0.25137 1.43265,-1.70935 2.84375,-3.25 2.4347,-2.65824 3.09926,-3.18886 4.28125,-3.53125 1.06142,-0.30747 0.566,-0.54151 -1.3125,-0.59375 -1.53852,-0.0428 -1.87501,0.006 -1.875,0.21875 0,0.14431 0.17148,0.32179 0.375,0.375 0.2035,0.0532 0.34374,0.21417 0.34375,0.375 0,0.26687 -4.57798,5.46874 -4.8125,5.46875 -0.05569,0 -0.61204,-1.23883 -1.25,-2.78125 -1.23681,-2.99033 -1.24504,-3.11914 -0.15625,-3.125 0.33613,-0.002 0.48675,-0.10172 0.4375,-0.25 -0.05507,-0.1658 -0.75348,-0.24423 -2.5,-0.28125 z m -7.3125,2.1875 c -2.72861,0 -3.85302,0.32533 -5.1875,1.5 -3.25534,2.86545 -2.1127,8.02806 2.09375,9.53125 0.40882,0.14609 1.58691,0.24504 3.03125,0.25 2.00237,0.007 2.3725,-0.0305 2.46875,-0.28125 0.19212,-0.50067 -0.31886,-0.61784 -2.625,-0.625 -1.82647,-0.006 -2.34632,-0.0966 -3.03125,-0.40625 -1.41205,-0.63844 -2.49793,-1.90487 -2.84375,-3.34375 l -0.125,-0.53125 4.25,0 c 3.73943,0 4.27534,-0.0215 4.375,-0.28125 0.06251,-0.1629 0.01701,-0.37883 -0.125,-0.46875 -0.14202,-0.0899 -2.11101,-0.15471 -4.375,-0.15625 -2.26399,-0.002 -4.12501,-0.0467 -4.125,-0.0937 0,-0.51278 0.88906,-2.18522 1.4375,-2.71875 1.19502,-1.1626 2.02205,-1.42961 4.5625,-1.4375 2.30614,-0.007 2.81712,-0.1243 2.625,-0.625 -0.09582,-0.2497 -0.45756,-0.31251 -2.40625,-0.3125 z m -15.84375,2.21875 c -0.74056,0.0777 -1.52212,0.68952 -2.03125,1.6875 -0.41962,0.82253 -0.46676,1.28124 -0.125,1.28125 0.13242,0 0.41478,-0.40867 0.625,-0.90625 0.40099,-0.94912 1.15215,-1.61894 1.625,-1.4375 0.39769,0.15261 0.33465,0.58416 -0.28125,2.40625 -0.29919,0.88513 -0.59046,1.96746 -0.65625,2.40625 -0.15649,1.04357 0.25444,2.0207 1,2.40625 0.70592,0.36503 2.0598,0.38784 2.53125,0.0312 0.60043,-0.45415 0.6644,-0.32087 0.28125,0.6875 -0.70851,1.86463 -2.28079,2.86396 -3.625,2.34375 l -0.53125,-0.1875 0.5,-0.28125 c 0.42887,-0.22639 0.51589,-0.3883 0.46875,-0.875 -0.04416,-0.45603 -0.16628,-0.60897 -0.5,-0.65625 -0.6118,-0.0866 -1.125,0.46634 -1.125,1.1875 0,0.45065 0.15056,0.72081 0.59375,1.09375 0.52555,0.44222 0.71742,0.5054 1.65625,0.4375 1.28035,-0.0926 2.56145,-0.8299 3.40625,-1.9375 0.46646,-0.61156 0.76279,-1.47782 1.625,-4.8125 0.58071,-2.24594 1.00027,-4.21139 0.9375,-4.375 -0.13634,-0.35527 -0.87954,-0.39592 -1.15625,-0.0625 -0.10798,0.13011 -0.50191,1.47664 -0.875,3 -0.63457,2.5911 -0.73891,2.81973 -1.40625,3.46875 -1.47612,1.43557 -2.85489,0.52942 -2.40625,-1.5625 0.10257,-0.47832 0.39821,-1.40821 0.65625,-2.09375 0.59361,-1.57709 0.61319,-2.19931 0.03125,-2.78125 -0.35121,-0.35121 -0.77441,-0.51537 -1.21875,-0.46875 z"
           id="path3324"
           inkscape:connector-curvature="0" />
      </g>
      <g
         transform="translate(433.59041,-165.2882)"
         id="g3336">
        <path
           style="fill:#ffffff;fill-opacity:1;stroke:none"
           d="m -45.78125,172.5625 c -2.012378,3.47084 3.386525,5.91554 3.25,9.625 1.629861,6.35069 0.222658,13.13153 -3.75,18.125 -0.594205,4.5717 5.296467,2.42901 6.1875,-0.375 5.753131,-8.17949 5.266628,-22.27392 -3.6875,-27.90625 -0.732534,-0.28631 -1.337054,0.33155 -2,0.53125 z M -89,172.0625 c -5.79058,3.13235 -7.791536,10.58797 -7.3125,16.8125 -3.676979,-1.86105 1.336678,-8.48092 1.1875,-12.5 0.956034,-5.67296 -11.92576,-2.60705 -6.71875,1.90625 1.22698,3.50031 -4.1543,1.15145 -5.6875,3.65625 -5.23563,3.28876 -6.06816,14.67983 1.6875,14.75 2.62134,-1.98016 5.19452,1.35617 7.8125,-0.78125 1.629645,-0.80039 2.022089,-5.19979 2.5625,-1.40625 1.289901,3.3628 4.299456,10.22722 8.59375,7.96875 1.635628,-3.61778 -3.745211,-6.15005 -3.53125,-10.0625 -1.41555,-6.1403 -0.02641,-12.76839 3.9375,-17.5625 0.6561,-1.56459 -1.013006,-3.12533 -2.53125,-2.78125 z m -32.875,1.28125 c -4.15475,-0.10534 -5.52562,4.74073 -5.84375,7.40625 -2.22292,1.10015 -1.40371,3.39981 -3.40625,0.46875 -2.94558,-1.79896 -6.013,0.0425 -8.96875,-0.875 -2.52427,-0.45024 -4.59161,2.69683 -5,-0.0625 4.36989,-3.0985 -2.59082,-8.8514 -5,-4.09375 -2.05206,2.25475 3.20857,4.66501 -0.5,4.71875 -2.51548,1.91621 0.3653,3.92574 1.0625,5.21875 0.0801,2.85236 0.63894,5.6215 -1.9375,7.21875 0.131,5.12388 6.83217,2.10842 10,2.9375 3.59473,0.0673 7.54414,-0.18347 10.71875,0.0937 -1.1013,2.17472 -1.62866,2.21248 -4.15625,1.875 -2.97144,-0.26622 -5.97645,0.94913 -7.71875,3.40625 -2.37032,-3.13466 -4.51978,2.21023 -6.1875,-0.84375 -3.99654,-1.98847 -8.29806,4.671 -4.5,6.9375 0.67172,2.68155 -2.956,5.94412 0.875,7.875 4.55458,2.18534 8.89885,-3.03199 9.15625,-6.84375 1.69801,4.82662 9.59934,6.73722 12.8125,3 0.22032,-0.60821 4.3934,1.79025 6.46875,0.5 2.44312,0.25379 3.44236,-2.95595 1.375,-4.15625 0.98663,-4.48931 6.17398,-6.44937 8.40625,-9.8125 -0.62909,-3.40867 -8.45966,-3.37554 -7.59375,0.75 -2.8988,3.87059 -0.6037,-0.32951 -1.84375,-2.1875 -2.445,-1.49322 5.59891,0.78121 4.59375,-3 -2.16595,-2.50098 -3.2968,-4.44247 -2.5,-8.4375 4.53175,0.22996 2.82918,-5.3177 -0.0937,-5.21875 2.96463,1.2794 6.95741,-3.98453 2.90625,-6.3125 -0.93824,-0.53345 -2.05861,-0.6849 -3.125,-0.5625 z m -62.75,7.03125 c -4.15222,1.12601 -8.177,-1.24699 -12.40625,0.9375 -2.46906,1.41325 -2.71036,4.91772 -1.53125,7.0625 -1.65098,2.7587 -1.34397,9.8361 3.25,7.9375 3.38586,1.49353 7.89732,-0.73881 8.5625,-3.75 1.26058,5.9083 8.96374,3.78699 13.03125,3.8125 3.11634,-1.76348 0.35327,1.18885 -0.53125,2.28125 -0.28894,3.4239 4.44836,1.90965 0.90625,4.9375 0.74055,2.26355 5.6309,4.23216 2.43086,6.75109 -2.72688,3.52287 -6.92593,4.16671 -10.86836,3.18641 2.78129,0.53438 9.10777,-0.0668 6.21875,-4.15625 -1.13965,-1.41722 -6.41651,-0.30861 -5.6875,-0.9375 2.49159,0.22499 7.95838,-0.0568 6.03125,-3.9375 -3.6942,-2.49348 -9.98868,-1.03834 -12.1875,2.90625 -2.01361,-2.9254 -5.6469,-1.0305 -8.5,-1.59375 -2.40351,0.72785 -5.18747,4.05502 -3.15625,6.25 -3.34453,2.94647 1.44349,7.31986 4.6875,5.28125 2.65986,1.44749 5.82659,-0.65993 6.8125,-3.0625 2.12452,5.17229 9.42662,5.29957 13.21875,3.25 2.68705,0.54471 6.68752,0.0735 6.125,-3.40625 1.44194,-1.84535 -0.79896,4.39905 2.96875,3.375 2.9724,1.59017 8.84991,-1.85545 4.34375,-4.34375 -2.82921,-2.21419 -2.10582,-5.91396 1.3125,-7.3125 4.4039,-0.43343 1.92205,-5.95579 -1.625,-4.625 -1.44361,-0.17546 -6.32668,1.70487 -3.78125,-0.53125 2.81468,-2.32109 -3.88327,-4.75582 0.5,-4.03125 8.75314,-0.36603 9.61406,-14.61697 1.0625,-16.21875 -3.33318,0.25466 -6.35746,-0.5032 -9.6875,0.40625 -1.34061,1.13168 -5.23069,-1.98611 -7.875,0.3125 -0.2797,0.89567 -2.11041,-1.97032 -3.625,-0.78125 z m 108.90625,-0.0625 c -2.930002,1.56356 -6.870398,-1.60138 -9.40625,1.96875 -2.205956,1.77203 -2.894106,7.48199 1.375,6.1875 1.673137,-1.41122 2.505375,-4.35012 1.46875,-0.375 0.306823,3.58806 -4.086477,-0.12652 -5.21875,3.21875 -2.103732,3.97903 3.722461,7.11499 6.6875,4.46875 4.128,3.52542 11.861307,-3.39385 7.84375,-7.28125 -2.515743,-2.38929 -4.521004,5.39948 -3.8125,1.53125 -0.08957,-3.67509 1.526172,-2.42946 3.90625,-2.8125 4.228783,-2.0613 1.287296,-7.8143 -2.84375,-6.90625 z m 19.34375,0.0312 c -4.248538,0.69386 -6.276197,7.95792 -2.375,8.8125 -0.871914,2.5827 1.244034,5.00893 -1.375,6.59375 -2.441221,5.72464 6.105571,8.15921 9.34375,4.15625 4.307216,-4.35078 4.492163,-11.15425 5.78125,-16.8125 -1.201218,-4.88988 -6.919662,-1.12004 -6.3125,2.59375 -0.142492,2.705 -3.020697,9.16194 -1.375,3.25 1.930257,-3.55793 1.64904,-9.21248 -3.6875,-8.59375 z m -87.125,4.2813 c 2.49137,0.92921 1.44303,5.38903 0.9375,7.09375 -2.5972,1.23343 -1.00683,-8.30013 -0.9375,-7.09375 z m 14.59375,0 c 2.82987,0.64915 1.64853,5.38583 1.125,7.09375 -2.72004,0.18881 -0.53823,-5.31976 -1.4375,-7.21875 l -0.0625,-0.375 0.375,0.5 z m -44.75,0 c 2.85161,1.25362 0.69986,5.44344 1.375,7.96875 -3.05072,-1.04367 -1.04351,-6.38497 -1.375,-7.96875 z m -7.125,0.28125 c 1.7333,0.58389 1.91148,7.04017 -0.1875,7 -0.0528,-2.10413 -0.35616,-6.36847 0.1875,-7 z m -12.46875,-0.0625 c 1.54005,0.1875 0.78651,0.4152 0,0 z m 58.21875,0.0937 c -0.28505,1.89599 1.23691,6.88846 -1.15625,6.6875 0.45413,-2.03315 -1.15558,-5.46677 1.15625,-6.6875 z m -30.34375,0.0937 c 2.79265,0.36844 2.51721,6.91521 -0.3125,6.96875 -1.08538,-0.58149 -1.78011,-6.73327 0.3125,-6.96875 z m 62.0625,0.125 c -0.35249,1.71859 -0.7981,6.63138 -2.40625,6.25 0.32901,-2.06347 0.53901,-5.30221 2.40625,-6.25 z M -187,185.25 c 1.17335,4.23831 -1.09492,4.72102 -0.40625,1.0625 0.21086,-0.26957 -0.25143,-1.56616 0.40625,-1.0625 z m 118.5,4.53125 c -3.459136,0.28925 -3.377337,5.27937 -0.84375,6.4375 -2.569124,1.8372 -1.024921,6.87705 2.25,4.75 3.276611,-2.57397 4.62147,-11.45332 -1.40625,-11.1875 z m -124.59375,1.375 c 2.82838,0.59663 -1.20871,1.78656 -1.1875,-0.3125 l 0.96707,0.25449 0.22043,0.058 z M -128.0625,196 c 0.34,0.2664 -0.7651,-0.13043 0,0 z m -2.15625,4.5 c 1.59716,2.06186 4.1271,7.14072 0.25,8.15625 -0.47389,2.83239 -2.82736,-1.33829 -5.0625,-0.0625 -2.35175,0.11319 -3.19894,-0.53588 0.25,-0.25 3.68037,1.45406 6.47646,-4.08172 1.96875,-4.8125 -1.86479,-0.0914 -7.13131,-0.0973 -2.21875,-0.34375 2.07705,0.29114 4.86942,-0.56397 4.8125,-2.6875 z"
           id="rect3308"
           inkscape:connector-curvature="0" />
        <path
           style="fill:#000000;fill-opacity:1;stroke:none"
           d="m -44.331417,174.00571 c -0.06918,0.0198 -0.09375,0.0785 -0.09375,0.1875 0,0.10621 0.410948,0.71226 0.9375,1.34375 0.52654,0.6315 1.319801,1.89673 1.75,2.8125 3.12549,6.6533 2.232121,16.81271 -1.875,21.5 -0.46017,0.52517 -0.8125,1.04547 -0.8125,1.15625 0,0.77883 1.988019,-1.00501 3.25,-2.90625 1.76367,-2.65708 2.631901,-5.64592 2.78125,-9.5 0.22608,-5.83455 -1.278991,-10.37275 -4.5625,-13.65625 -0.657472,-0.65747 -1.167475,-0.99676 -1.375,-0.9375 z m -44.03125,0.0312 c -0.405225,-0.15588 -2.120653,1.47214 -3.28125,3.25 -0.95263,1.45929 -1.810563,3.56451 -2.3125,5.5625 -0.23841,0.94902 -0.309183,2.07368 -0.3125,4.75 -0.0038,3.09717 0.02463,3.72041 0.40625,5.1875 0.7745,2.97732 2.205959,5.58095 4.0625,7.4375 0.92068,0.9207 1.53125,1.23367 1.53125,0.78125 0,-0.11077 -0.378994,-0.63108 -0.84375,-1.15625 -1.09783,-1.24056 -2.585229,-4.22887 -3.0625,-6.21875 -0.20744,-0.8649 -0.474881,-2.60696 -0.59375,-3.84375 -0.52434,-5.45515 0.874672,-11.06387 3.53125,-14.25 0.52653,-0.6315 0.96875,-1.23753 0.96875,-1.34375 0,-0.10094 -0.03586,-0.13398 -0.09375,-0.15625 z m -33.218753,1.3125 c -1.2892,0.0932 -2.34846,0.71887 -3.09375,1.84375 -0.47961,0.72389 -0.50522,0.92591 -0.5625,3.15625 l -0.0625,2.34375 -1.09375,0 c -0.97199,0 -1.09375,0.0467 -1.09375,0.375 0,0.3289 0.10705,0.375 1.09375,0.375 l 1.125,0 0,4.65625 c 0,2.8428 -0.10134,4.74937 -0.21875,4.96875 -0.10533,0.19681 -0.36838,0.37361 -0.59375,0.375 -0.77629,0.005 -1.25,0.20856 -1.25,0.5625 0,0.32757 0.19943,0.34375 3.15625,0.34375 2.98261,0 3.15625,-0.005 3.15625,-0.34375 0,-0.29237 -0.18927,-0.36744 -1,-0.46875 -0.544,-0.068 -1.10717,-0.19309 -1.25,-0.28125 -0.21205,-0.1309 -0.25,-1.04182 -0.25,-4.9375 l 0,-4.78125 1.53125,-0.0625 c 1.37417,-0.0484 1.5,-0.0799 1.5,-0.40625 0,-0.3316 -0.12412,-0.375 -1.5625,-0.375 l -1.5625,0 0,-1.90625 c 0,-2.95446 0.65159,-4.49511 2.0625,-4.84375 0.73678,-0.18205 0.916,0.0403 0.5625,0.65625 -0.24866,0.43327 -0.27084,0.61135 -0.0937,1 0.47345,1.0391 2.09375,0.67382 2.09375,-0.46875 0,-1.27939 -0.91616,-1.9026 -2.59375,-1.78125 z m 24.656253,0.0937 -1.75,0.125 c -2.143513,0.15866 -2.375003,0.23864 -2.375003,0.6875 0,0.29893 0.13539,0.34375 0.8125,0.34375 0.445433,0 0.901151,0.0916 1.000003,0.21875 0.1216,0.15648 -0.104309,1.34035 -0.6875,3.65625 l -0.875003,3.4375 -0.34375,-0.53125 c -1.31993,-2.01085 -4.74626,-1.01311 -6.75,1.9375 -1.04923,1.54509 -1.51595,2.78693 -1.625,4.5 -0.14748,2.31626 0.42966,3.66204 1.90625,4.5625 1.1797,0.7194 2.94153,0.33491 4.3125,-0.9375 0.69676,-0.64667 0.78125,-0.6635 0.78125,-0.28125 0,0.15102 0.21413,0.52381 0.5,0.84375 0.42192,0.47222 0.72417,0.61295 1.5,0.6875 0.895653,0.0861 0.969182,0.0308 1.562503,-0.5625 0.43115,-0.43115 0.766302,-1.01723 1.03125,-1.875 0.45918,-1.48667 0.49569,-1.96876 0.125,-1.96875 -0.17272,0 -0.399602,0.38787 -0.59375,1.0625 -0.6011,2.08876 -1.279587,3.0084 -2.093753,2.75 -0.78677,-0.24971 -0.67075,-1.01467 1.406253,-9.46875 1.09589,-4.46067 2.015863,-8.36224 2.0625,-8.65625 l 0.09375,-0.53125 z m -50.031253,0.96875 c -0.3545,-0.0154 -0.72831,0.12165 -1.03125,0.40625 -0.52953,0.49747 -0.53121,1.24461 -0.0312,1.78125 0.54689,0.58702 1.50466,0.53599 2,-0.0937 0.48372,-0.61493 0.48372,-0.97881 0,-1.59375 -0.24248,-0.30827 -0.583,-0.48461 -0.9375,-0.5 z m -36.0625,5.875 -1.40625,0.125 c -0.77849,0.0658 -1.64759,0.125 -1.9375,0.125 -0.43891,0 -0.53125,0.0524 -0.53125,0.4375 0,0.40016 0.0954,0.46875 0.625,0.46875 0.33669,0 0.77124,0.13701 0.96875,0.28125 0.3333,0.24339 0.35165,0.56427 0.4375,4.65625 0.0899,4.2858 0.0995,4.42585 0.53125,5.03125 0.24431,0.34256 0.80167,0.77932 1.21875,0.96875 0.85438,0.38801 2.73428,0.47115 3.5625,0.15625 0.28575,-0.10865 0.87936,-0.56614 1.3125,-1.03125 l 0.78125,-0.875 0,1.09375 0,1.0625 1.40625,-0.125 c 0.77849,-0.0658 1.63598,-0.125 1.875,-0.125 0.34024,0 0.40625,-0.0754 0.40625,-0.4375 0,-0.40525 -0.0576,-0.46875 -0.625,-0.46875 -0.40084,0 -0.80219,-0.14595 -1.03125,-0.375 -0.35279,-0.35279 -0.375,-0.6348 -0.375,-5.6875 l 0,-5.28125 -1.25,0.125 c -0.68682,0.0649 -1.55592,0.093 -1.9375,0.0937 -0.60616,0.001 -0.6875,0.0857 -0.6875,0.46875 0,0.38414 0.0943,0.44676 0.84375,0.53125 0.47048,0.053 0.94365,0.20548 1.03125,0.34375 0.0876,0.13828 0.15469,1.79777 0.15625,3.6875 0.003,4.0077 -0.15434,4.76315 -1.28125,5.78125 -0.83924,0.7582 -1.79792,0.99147 -2.8125,0.6875 -1.23896,-0.3712 -1.28124,-0.56141 -1.28125,-6.5 l 0,-5.21875 z m 37.1875,0 -1.25,0.125 c -0.68683,0.0649 -1.51306,0.093 -1.84375,0.0937 -0.51766,0.001 -0.59375,0.0705 -0.59375,0.46875 0,0.40525 0.0889,0.46875 0.65625,0.46875 0.40085,0 0.77094,0.14594 1,0.375 0.34863,0.34862 0.375,0.60442 0.375,4.625 0,2.58774 -0.0714,4.40799 -0.1875,4.625 -0.10533,0.19681 -0.3684,0.37361 -0.59375,0.375 -0.7763,0.005 -1.25,0.20856 -1.25,0.5625 0,0.32625 0.18996,0.34375 2.875,0.34375 2.68503,0 2.875,-0.0175 2.875,-0.34375 0,-0.3557 -0.49434,-0.55778 -1.28125,-0.5625 -0.28023,-0.002 -0.47361,-0.15277 -0.59375,-0.46875 -0.10139,-0.2667 -0.18751,-2.72625 -0.1875,-5.59375 l 0,-5.09375 z m -43.71875,0.0312 c -0.1249,-0.05 -0.30314,0.0884 -0.5625,0.375 -0.32588,0.3601 -0.3254,0.3601 -1.03125,0 -0.48388,-0.24685 -1.08274,-0.34445 -1.875,-0.34375 -2.72368,0.002 -4.21875,1.15671 -4.21875,3.28125 0,1.45879 1.13229,2.76054 2.75,3.15625 0.36621,0.0896 1.22864,0.30276 1.9375,0.46875 2.0524,0.4806 3.02203,1.66917 2.53125,3.15625 -0.27635,0.83734 -1.09808,1.52983 -2.03125,1.6875 -2.08634,0.35248 -3.57531,-0.70716 -4.28125,-3.03125 -0.25248,-0.83128 -0.49499,-1.34376 -0.65625,-1.34375 -0.20983,0 -0.25,0.48038 -0.25,2.5 0,2.04393 0.0332,2.5 0.25,2.5 0.1457,0 0.4404,-0.22814 0.65625,-0.53125 l 0.40625,-0.5625 0.75,0.5 c 0.69175,0.45735 0.9364,0.5 2.46875,0.5 1.54163,0 1.75817,-0.0296 2.46875,-0.5 1.87279,-1.23979 2.19741,-3.75339 0.71875,-5.4375 -0.76283,-0.86881 -1.18094,-1.06451 -3.46875,-1.625 -1.59922,-0.39178 -2.04845,-0.56705 -2.46875,-1.03125 -0.91221,-1.00744 -0.60338,-2.19515 0.6875,-2.78125 2.06529,-0.93772 4.34125,-0.0293 4.65625,1.84375 0.18571,1.10425 0.28383,1.3125 0.5625,1.3125 0.21399,0 0.25,-0.38819 0.25,-2.03125 0,-1.35311 -0.0418,-1.97919 -0.25,-2.0625 z m 24.71875,0 c -1.16982,-0.0188 -2.30128,0.40443 -3.21875,1.28125 l -0.53125,0.46875 0,-0.875 c 0,-0.99237 0.12914,-0.95374 -2.28125,-0.75 -1.30326,0.11017 -1.40625,0.15282 -1.40625,0.53125 0,0.34311 0.13027,0.44394 0.78125,0.53125 0.43102,0.0578 0.86858,0.25777 1,0.4375 0.30481,0.41686 0.36415,13.74886 0.0625,14.3125 -0.10533,0.19681 -0.36837,0.37361 -0.59375,0.375 -0.77628,0.005 -1.25,0.20856 -1.25,0.5625 0,0.32672 0.19312,0.34375 2.96875,0.34375 2.79761,0 2.9375,-0.007 2.9375,-0.34375 0,-0.2864 -0.18715,-0.40702 -0.96875,-0.53125 l -0.96875,-0.125 -0.0625,-2.6875 -0.0312,-2.65625 0.625,0.5625 c 0.87395,0.76733 1.80381,1.04858 3.1875,0.9375 2.02733,-0.16273 3.7392,-1.39564 4.75,-3.4375 0.35668,-0.72051 0.40445,-1.16467 0.40625,-2.71875 0.002,-1.61225 -0.0464,-1.97434 -0.46875,-2.875 -0.98349,-2.09721 -2.9878,-3.31244 -4.9375,-3.34375 z m 90.125003,0 c -1.092703,-0.0815 -2.254939,0.42152 -2.78125,1.3125 -0.17591,0.29778 -0.38312,0.56315 -0.4375,0.5625 -0.05438,-6.4e-4 -0.234144,-0.26001 -0.40625,-0.5625 -1.04304,-1.83313 -4.082908,-1.65361 -5.46875,0.3125 -0.59507,0.84426 -1.156251,2.0437 -1.15625,2.46875 0,0.72527 0.599788,0.30295 0.96875,-0.6875 0.45045,-1.20921 1.57098,-2.35917 2.5625,-2.65625 0.6781,-0.20316 0.800118,-0.20887 1.25,0.125 0.94156,0.69877 0.911553,1.29641 -0.125,5.4375 -1.00205,4.00326 -1.421292,4.95406 -2.4375,5.375 -0.31697,0.13129 -0.826979,0.16724 -1.21875,0.0937 l -0.65625,-0.125 0.46875,-0.4375 c 0.51337,-0.47577 0.635341,-1.3334 0.25,-1.71875 -0.6297,-0.6297 -1.968752,0.11188 -1.96875,1.09375 0,0.71551 0.265942,1.20072 0.875,1.53125 1.25141,0.6791 3.013264,0.20848 3.84375,-1.03125 0.19262,-0.28753 0.386618,-0.53162 0.4375,-0.53125 0.05088,3.4e-4 0.234142,0.26001 0.40625,0.5625 1.0051,1.76644 3.86787,1.6798 5.3125,-0.15625 1.12057,-1.4242 1.705241,-3.10377 1.03125,-2.96875 -0.16476,0.033 -0.461628,0.47758 -0.65625,1 -0.62785,1.68542 -2.339547,3.01176 -3.53125,2.75 -0.61257,-0.13455 -1.062501,-0.85667 -1.0625,-1.6875 0,-0.89721 1.63192,-7.2964 2.0625,-8.0625 0.55192,-0.98201 1.450158,-1.49968 2.28125,-1.34375 0.7477,0.14026 0.770247,0.16725 0.28125,0.65625 -0.45621,0.45621 -0.522308,1.58553 -0.09375,1.75 1.79544,0.68897 2.721828,-1.85961 1,-2.75 -0.318107,-0.1645 -0.667016,-0.28533 -1.03125,-0.3125 z m -64.593753,0.0312 c -0.33004,0.016 -0.78836,0.0415 -1.40625,0.0937 -1.30327,0.11017 -1.40625,0.15282 -1.40625,0.53125 0,0.34311 0.13028,0.44394 0.78125,0.53125 0.43101,0.0578 0.86859,0.25777 1,0.4375 0.30117,0.41187 0.35878,8.57137 0.0625,9.125 -0.10533,0.19681 -0.36839,0.37361 -0.59375,0.375 -0.77631,0.005 -1.25,0.20856 -1.25,0.5625 0,0.32672 0.19312,0.34375 2.96875,0.34375 2.79761,0 2.9375,-0.007 2.9375,-0.34375 0,-0.28639 -0.18718,-0.37571 -0.96875,-0.5 l -0.96875,-0.15625 -0.0312,-3.5 c -0.06,-4.16264 0.0761,-4.86036 1.3125,-6 1.3869,-1.2784 3.00251,-1.20693 3.6875,0.15625 0.2873,0.57176 0.2922,1.16124 0.25,5 l -0.0312,4.34375 -0.96875,0.15625 c -0.78155,0.12433 -0.96875,0.21363 -0.96875,0.5 0,0.33636 0.13989,0.34375 2.9375,0.34375 2.81386,0 2.96876,2e-5 2.96875,-0.34375 0,-0.27482 -0.16024,-0.3845 -0.6875,-0.46875 -1.30932,-0.20917 -1.24184,0.0309 -1.34375,-4.875 -0.0858,-4.12954 -0.11505,-4.49553 -0.46875,-4.96875 -0.73998,-0.99003 -1.29178,-1.24732 -2.71875,-1.3125 -1.64113,-0.0749 -2.68331,0.38675 -3.59375,1.59375 l -0.625,0.78125 0,-1.1875 c 0,-1.04696 0.11512,-1.2667 -0.875,-1.21875 z m 83.562503,0 c -0.69492,0 -0.885298,0.0752 -1.65625,0.875 -1.17794,1.22208 -2.109368,3.68198 -1.34375,3.53125 0.18226,-0.0359 0.453602,-0.52418 0.6875,-1.1875 0.4813,-1.3649 1.69548,-2.74884 2.34375,-2.65625 0.26874,0.0384 0.516721,0.25333 0.625,0.5625 0.14,0.39977 -0.01198,1.06981 -0.8125,3.4375 -0.85821,2.53828 -1.02093,3.12329 -1.03125,4.40625 -0.0094,1.16526 0.08368,1.6065 0.375,2.09375 0.79381,1.32772 2.935522,1.75163 4.46875,0.875 0.43245,-0.24727 0.8125,-0.39241 0.8125,-0.3125 0,0.0799 -0.17702,0.61207 -0.375,1.1875 -0.74504,2.1655 -2.32164,3.8932 -3.75,4.125 -0.77557,0.12585 -1.869361,-0.30767 -2.15625,-0.84375 -0.18323,-0.34236 -0.154431,-0.375 0.25,-0.375 0.50349,0 1.218748,-0.77428 1.21875,-1.3125 0,-0.47153 -0.52598,-0.90625 -1.0625,-0.90625 -0.74711,0 -1.343748,0.75331 -1.34375,1.6875 0,0.9092 0.318402,1.50512 1.15625,2.03125 0.4586,0.28798 0.829892,0.36198 1.78125,0.3125 1.47776,-0.0768 2.670351,-0.6267 3.875,-1.8125 1.47365,-1.45058 1.876941,-2.48017 3.46875,-8.90625 1.23067,-4.96823 1.396388,-5.90456 1.1875,-6.15625 -0.35621,-0.42922 -1.058481,-0.3622 -1.375,0.125 -0.14873,0.22896 -0.765201,2.4017 -1.375,4.84375 l -1.125,4.4375 -0.84375,0.78125 c -1.48524,1.35314 -2.899291,1.27018 -3.40625,-0.21875 -0.34332,-1.00827 -0.04667,-2.79424 0.90625,-5.59375 0.40957,-1.20325 0.749999,-2.49808 0.75,-2.875 0,-1.4358 -0.773338,-2.15625 -2.25,-2.15625 z m -47.437503,0.53125 c 0.97409,0 1.9375,1.20286 1.9375,2.40625 0,0.49271 -0.4985,2.71568 -1.3125,5.8125 -0.23403,0.89031 -1.49412,2.27357 -2.46875,2.71875 -1.89031,0.86345 -2.82008,-0.14291 -2.625,-2.875 0.10707,-1.49955 0.79765,-4.27597 1.34375,-5.34375 0.74135,-1.44956 2.19983,-2.71875 3.125,-2.71875 z m -62.1875,0.1875 c 0.94936,-0.0474 1.91992,0.32419 2.59375,1.125 1.30134,1.54655 1.70484,4.89481 0.875,7.03125 -0.44477,1.14501 -1.48077,2.34355 -2.375,2.71875 -1.16731,0.48977 -2.33746,0.1256 -3.375,-1 l -0.75,-0.78125 0,-3.5625 c 0,-3.52092 -8.9e-4,-3.54056 0.46875,-4.15625 0.66171,-0.86755 1.61314,-1.32755 2.5625,-1.375 z m 97.187503,8.71875 c -0.305432,0.0326 -0.586183,0.14111 -0.75,0.375 -0.40966,0.58487 -0.371097,1.37889 0.09375,1.84375 0.31948,0.31948 0.540009,0.38899 1.21875,0.3125 l 0.84375,-0.0937 -0.125,0.9375 c -0.1543,1.16613 -0.699587,2.39059 -1.4375,3.3125 -0.3061,0.38242 -0.499863,0.7741 -0.4375,0.875 0.06236,0.10091 0.19454,0.1875 0.28125,0.1875 0.28438,0 1.167747,-1.1812 1.65625,-2.21875 0.40661,-0.86363 0.46865,-1.2783 0.46875,-2.71875 1.1e-4,-1.4348 -0.04654,-1.77664 -0.375,-2.21875 -0.333781,-0.44929 -0.928447,-0.648 -1.4375,-0.59375 z m -61.281253,6.3125 c -0.34839,0.0331 -0.4375,0.12894 -0.4375,0.25 0,0.18669 0.15703,0.28125 0.5,0.28125 0.2858,0 0.65064,0.0916 0.8125,0.21875 0.16188,0.1272 0.89446,1.65646 1.625,3.40625 l 1.34375,3.1875 -0.4375,1.90625 c -0.47348,2.12062 -0.76615,2.5625 -1.71875,2.5625 -0.62767,0 -0.95947,0.19681 -0.71875,0.4375 0.20112,0.20112 5.15625,0.0513 5.15625,-0.15625 0,-0.10175 -0.3315,-0.21807 -0.71875,-0.25 -0.38725,-0.0319 -0.73005,-0.17907 -0.78125,-0.3125 -0.1327,-0.34583 0.65419,-3.6104 1,-4.15625 0.15925,-0.25137 1.43266,-1.70936 2.84375,-3.25 2.43469,-2.65822 3.068,-3.2201 4.25,-3.5625 1.06141,-0.30746 0.59724,-0.51027 -1.28125,-0.5625 -1.53853,-0.0428 -1.90625,0.006 -1.90625,0.21875 0,0.14432 0.17149,0.29053 0.375,0.34375 0.2035,0.0532 0.375,0.2454 0.375,0.40625 0,0.26687 -4.57796,5.46874 -4.8125,5.46875 -0.0557,0 -0.61205,-1.27008 -1.25,-2.8125 -1.23681,-2.99035 -1.24506,-3.08786 -0.15625,-3.09375 0.3361,-0.002 0.48675,-0.10172 0.4375,-0.25 -0.0551,-0.16579 -0.75349,-0.24425 -2.5,-0.28125 -1.0426,-0.0221 -1.65161,-0.0331 -2,0 z m -5.34375,2.1875 c -2.72861,0 -3.82177,0.32534 -5.15625,1.5 -3.25534,2.86548 -2.14395,8.02807 2.0625,9.53125 0.40882,0.1461 1.5869,0.24504 3.03125,0.25 2.00237,0.007 2.40375,-0.0304 2.5,-0.28125 0.19212,-0.50068 -0.31886,-0.64907 -2.625,-0.65625 -1.82647,-0.006 -2.37757,-0.0653 -3.0625,-0.375 -1.41206,-0.63844 -2.49791,-1.90488 -2.84375,-3.34375 l -0.125,-0.53125 4.28125,0 c 3.73942,0 4.27533,-0.0215 4.375,-0.28125 0.0625,-0.16289 -0.0142,-0.37881 -0.15625,-0.46875 -0.14202,-0.0899 -2.111,-0.1547 -4.375,-0.15625 -2.26399,-0.002 -4.125,-0.0467 -4.125,-0.0937 0,-0.51277 0.88907,-2.21645 1.4375,-2.75 1.19502,-1.1626 2.0533,-1.39836 4.59375,-1.40625 2.30614,-0.007 2.81712,-0.15557 2.625,-0.65625 -0.0958,-0.2497 -0.48881,-0.28125 -2.4375,-0.28125 z m -15.65625,2.21875 c -0.74056,0.0777 -1.52212,0.68952 -2.03125,1.6875 -0.41963,0.82253 -0.46673,1.28125 -0.125,1.28125 0.13244,0 0.41477,-0.40867 0.625,-0.90625 0.40099,-0.94913 1.15216,-1.61896 1.625,-1.4375 0.39769,0.15261 0.36589,0.58417 -0.25,2.40625 -0.2992,0.88513 -0.59044,1.96745 -0.65625,2.40625 -0.1565,1.04356 0.25443,2.02072 1,2.40625 0.7059,0.36503 2.05981,0.38783 2.53125,0.0312 0.60045,-0.45416 0.63315,-0.32086 0.25,0.6875 -0.7085,1.86464 -2.24954,2.86393 -3.59375,2.34375 l -0.5625,-0.21875 0.53125,-0.25 c 0.42887,-0.22638 0.48463,-0.38831 0.4375,-0.875 -0.0442,-0.45602 -0.13503,-0.60898 -0.46875,-0.65625 -0.61181,-0.0866 -1.15625,0.46633 -1.15625,1.1875 0,0.45067 0.15055,0.72082 0.59375,1.09375 0.52555,0.44222 0.7174,0.50541 1.65625,0.4375 1.28033,-0.0926 2.56145,-0.82988 3.40625,-1.9375 0.46646,-0.61157 0.7628,-1.47783 1.625,-4.8125 0.58071,-2.24595 1.00029,-4.24264 0.9375,-4.40625 -0.13633,-0.35528 -0.87953,-0.39592 -1.15625,-0.0625 -0.10798,0.13012 -0.50192,1.50789 -0.875,3.03125 -0.63457,2.5911 -0.70764,2.78848 -1.375,3.4375 -1.4761,1.43558 -2.85489,0.56064 -2.40625,-1.53125 0.10258,-0.47832 0.39822,-1.4082 0.65625,-2.09375 0.59361,-1.57707 0.58193,-2.23057 0,-2.8125 -0.35121,-0.35121 -0.77441,-0.48411 -1.21875,-0.4375 z m -10.71875,0.75 c -1.63358,0 -2.03125,0.0361 -2.03125,0.25 0,0.14577 0.17149,0.31042 0.375,0.375 0.67207,0.2133 0.39781,0.73444 -1.34375,2.46875 l -1.75,1.71875 -0.875,-1.875 c -0.86348,-1.80037 -0.89469,-1.91336 -0.5625,-2.15625 0.19089,-0.13959 0.50345,-0.25 0.6875,-0.25 0.18406,0 0.3125,-0.12565 0.3125,-0.28125 0,-0.24213 -0.3523,-0.26293 -2.4375,-0.21875 -1.74652,0.037 -2.44492,0.11547 -2.5,0.28125 -0.0467,0.14049 0.0815,0.2172 0.34375,0.21875 1.07033,0.006 1.20844,0.15363 2.46875,2.84375 0.67513,1.44107 1.22115,2.70929 1.21875,2.8125 -0.002,0.10323 -1.07766,1.23991 -2.375,2.53125 -2.31583,2.3051 -3.43813,3.08399 -4.4375,3.09375 -0.24486,0.002 -0.40625,0.118 -0.40625,0.28125 0,0.23059 0.35716,0.28125 2.125,0.28125 1.68809,0 2.125,-0.0469 2.125,-0.25 0,-0.14077 -0.17149,-0.29053 -0.375,-0.34375 -0.69472,-0.18168 -0.3599,-0.77929 1.65625,-2.90625 l 2.03125,-2.125 1.03125,2.125 c 0.56497,1.16907 1.03032,2.24289 1.03125,2.40625 9.9e-4,0.17454 -0.25458,0.37147 -0.59375,0.46875 -1.20415,0.34535 -0.59399,0.54242 1.84375,0.59375 2.09879,0.0442 2.4375,0.0234 2.4375,-0.21875 0,-0.1867 -0.18829,-0.31249 -0.53125,-0.3125 -0.28581,0 -0.64474,-0.0916 -0.8125,-0.21875 -0.16777,-0.12718 -0.91846,-1.55947 -1.6875,-3.1875 l -1.40625,-2.96875 2.28125,-2.25 c 1.8969,-1.87202 2.40936,-2.2619 3.09375,-2.4375 1.225,-0.31428 1.31298,-0.35945 1.1875,-0.5625 -0.066,-0.10671 -0.96568,-0.18751 -2.125,-0.1875 z m -18.03125,2.21875 c -2.72861,0 -3.82176,0.29409 -5.15625,1.46875 -3.25534,2.86546 -2.14394,8.05932 2.0625,9.5625 0.40883,0.14609 1.61815,0.21379 3.0625,0.21875 2.00237,0.007 2.3725,-0.0305 2.46875,-0.28125 0.19212,-0.50067 -0.31885,-0.61783 -2.625,-0.625 -1.82647,-0.006 -2.37757,-0.0653 -3.0625,-0.375 -1.41205,-0.63844 -2.49792,-1.93614 -2.84375,-3.375 l -0.125,-0.5 4.28125,0 c 3.73943,0 4.27534,-0.0215 4.375,-0.28125 0.0625,-0.1629 -0.0142,-0.37882 -0.15625,-0.46875 -0.14201,-0.0899 -2.11102,-0.18594 -4.375,-0.1875 -2.264,-0.002 -4.09375,-0.0154 -4.09375,-0.0625 0,-0.51276 0.85783,-2.21645 1.40625,-2.75 1.19502,-1.1626 2.05331,-1.42961 4.59375,-1.4375 2.30614,-0.007 2.81712,-0.12432 2.625,-0.625 -0.0958,-0.2497 -0.48881,-0.28125 -2.4375,-0.28125 z m -11.46875,2.21875 c -0.44773,0.036 -0.90276,0.23399 -1.3125,0.59375 -0.59995,0.52677 -0.68744,0.52933 -0.84375,0.25 -0.46991,-0.83966 -2.03294,-1.07485 -3.125,-0.5 -0.6439,0.33894 -1.84374,1.85858 -1.84375,2.34375 0,0.42723 0.53903,0.28523 0.71875,-0.1875 0.3098,-0.81482 1.29487,-1.74858 1.96875,-1.875 0.74313,-0.13941 1.375,0.29349 1.375,0.9375 0,0.81171 -1.08917,4.78208 -1.4375,5.25 -0.4146,0.55694 -1.13387,0.86396 -1.59375,0.6875 -0.28911,-0.11095 -0.30964,-0.12786 -0.0312,-0.40625 0.44293,-0.44293 0.3187,-1.26763 -0.21875,-1.34375 -1.06426,-0.15075 -1.5414,1.30373 -0.65625,2 0.82394,0.64811 2.47885,0.36885 3,-0.5 0.18495,-0.30835 0.2213,-0.30835 0.40625,0 0.48187,0.80333 2.11166,1.13598 3.09375,0.625 1.12972,-0.5878 2.40075,-2.71875 1.625,-2.71875 -0.14355,0 -0.43645,0.3897 -0.65625,0.84375 -0.70089,1.44783 -2.28871,2.03626 -2.90625,1.09375 -0.29336,-0.44773 -0.2639,-0.59477 0.3125,-3 0.68006,-2.83784 1.10785,-3.5625 2.1875,-3.5625 0.62546,0 0.72283,0.19602 0.28125,0.5625 -0.15962,0.13248 -0.2497,0.45256 -0.21875,0.71875 0.0419,0.36079 0.16506,0.4888 0.53125,0.53125 1.07081,0.12417 1.4893,-1.26429 0.59375,-1.96875 -0.37692,-0.29649 -0.80227,-0.41101 -1.25,-0.375 z"
           id="path3332"
           inkscape:connector-curvature="0" />
      </g>
    </g>
  </g>
</svg>
