<?xml version="1.0" encoding="UTF-8" standalone="no"?>
<!-- Created with Inkscape (http://www.inkscape.org/) -->

<svg
   xmlns:dc="http://purl.org/dc/elements/1.1/"
   xmlns:cc="http://creativecommons.org/ns#"
   xmlns:rdf="http://www.w3.org/1999/02/22-rdf-syntax-ns#"
   xmlns:svg="http://www.w3.org/2000/svg"
   xmlns="http://www.w3.org/2000/svg"
   xmlns:sodipodi="http://sodipodi.sourceforge.net/DTD/sodipodi-0.dtd"
   xmlns:inkscape="http://www.inkscape.org/namespaces/inkscape"
   width="852.66876"
   height="561.26166"
   id="svg2"
   version="1.1"
   inkscape:version="0.48.4 r"
   sodipodi:docname="locationarea.pdf">
  <defs
     id="defs4" />
  <sodipodi:namedview
     id="base"
     pagecolor="#ffffff"
     bordercolor="#666666"
     borderopacity="1.0"
     inkscape:pageopacity="0.0"
     inkscape:pageshadow="2"
     inkscape:zoom="0.35"
     inkscape:cx="-325.07988"
     inkscape:cy="599.95253"
     inkscape:document-units="px"
     inkscape:current-layer="layer1"
     showgrid="false"
     fit-margin-top="0"
     fit-margin-left="0"
     fit-margin-right="0"
     fit-margin-bottom="0"
     inkscape:window-width="1842"
     inkscape:window-height="1057"
     inkscape:window-x="70"
     inkscape:window-y="-8"
     inkscape:window-maximized="1" />
  <metadata
     id="metadata7">
    <rdf:RDF>
      <cc:Work
         rdf:about="">
        <dc:format>image/svg+xml</dc:format>
        <dc:type
           rdf:resource="http://purl.org/dc/dcmitype/StillImage" />
        <dc:title></dc:title>
      </cc:Work>
    </rdf:RDF>
  </metadata>
  <g
     inkscape:label="Ebene 1"
     inkscape:groupmode="layer"
     id="layer1"
     transform="translate(-125.48253,-181.97625)">
    <g
       id="g3056"
       style="fill:#fe7c22;fill-opacity:1">
      <path
         transform="translate(7e-7,-0.4285694)"
         d="m 262.72301,428.45219 -91.16032,0 -45.58016,-78.94716 45.58016,-78.94715 91.16033,0 45.58016,78.94716 z"
         inkscape:randomized="0"
         inkscape:rounded="0"
         inkscape:flatsided="true"
         sodipodi:arg2="1.5707963"
         sodipodi:arg1="1.0471976"
         sodipodi:r2="78.947151"
         sodipodi:r1="91.160324"
         sodipodi:cy="349.50504"
         sodipodi:cx="217.14285"
         sodipodi:sides="6"
         id="path2987"
         style="fill:#fe7c22;fill-opacity:1;fill-rule:evenodd;stroke:#000000;stroke-width:1px;stroke-linecap:butt;stroke-linejoin:miter;stroke-opacity:1"
         sodipodi:type="star" />
      <path
         d="m 262.72301,428.45219 -91.16032,0 -45.58016,-78.94716 45.58016,-78.94715 91.16033,0 45.58016,78.94716 z"
         inkscape:randomized="0"
         inkscape:rounded="0"
         inkscape:flatsided="true"
         sodipodi:arg2="1.5707963"
         sodipodi:arg1="1.0471976"
         sodipodi:r2="78.947151"
         sodipodi:r1="91.160324"
         sodipodi:cy="349.50504"
         sodipodi:cx="217.14285"
         sodipodi:sides="6"
         id="path2987-1"
         style="fill:#fe7c22;fill-opacity:1;fill-rule:evenodd;stroke:#000000;stroke-width:1px;stroke-linecap:butt;stroke-linejoin:miter;stroke-opacity:1"
         sodipodi:type="star"
         transform="translate(135.71429,77.142864)" />
      <path
         d="m 262.72301,428.45219 -91.16032,0 -45.58016,-78.94716 45.58016,-78.94715 91.16033,0 45.58016,78.94716 z"
         inkscape:randomized="0"
         inkscape:rounded="0"
         inkscape:flatsided="true"
         sodipodi:arg2="1.5707963"
         sodipodi:arg1="1.0471976"
         sodipodi:r2="78.947151"
         sodipodi:r1="91.160324"
         sodipodi:cy="349.50504"
         sodipodi:cx="217.14285"
         sodipodi:sides="6"
         id="path2987-7"
         style="fill:#fe7c22;fill-opacity:1;fill-rule:evenodd;stroke:#000000;stroke-width:1px;stroke-linecap:butt;stroke-linejoin:miter;stroke-opacity:1"
         sodipodi:type="star"
         transform="translate(7e-7,156.28572)" />
    </g>
    <g
       id="g3065"
       style="fill:#91d100;fill-opacity:1"
       transform="translate(0,2)">
      <path
         d="m 262.72301,428.45219 -91.16032,0 -45.58016,-78.94716 45.58016,-78.94715 91.16033,0 45.58016,78.94716 z"
         inkscape:randomized="0"
         inkscape:rounded="0"
         inkscape:flatsided="true"
         sodipodi:arg2="1.5707963"
         sodipodi:arg1="1.0471976"
         sodipodi:r2="78.947151"
         sodipodi:r1="91.160324"
         sodipodi:cy="349.50504"
         sodipodi:cx="217.14285"
         sodipodi:sides="6"
         id="path2987-4"
         style="fill:#91d100;fill-opacity:1;fill-rule:evenodd;stroke:#000000;stroke-width:1px;stroke-linecap:butt;stroke-linejoin:miter;stroke-opacity:1"
         sodipodi:type="star"
         transform="translate(135.71429,232.85715)" />
      <path
         d="m 262.72301,428.45219 -91.16032,0 -45.58016,-78.94716 45.58016,-78.94715 91.16033,0 45.58016,78.94716 z"
         inkscape:randomized="0"
         inkscape:rounded="0"
         inkscape:flatsided="true"
         sodipodi:arg2="1.5707963"
         sodipodi:arg1="1.0471976"
         sodipodi:r2="78.947151"
         sodipodi:r1="91.160324"
         sodipodi:cy="349.50504"
         sodipodi:cx="217.14285"
         sodipodi:sides="6"
         id="path2987-0"
         style="fill:#91d100;fill-opacity:1;fill-rule:evenodd;stroke:#000000;stroke-width:1px;stroke-linecap:butt;stroke-linejoin:miter;stroke-opacity:1"
         sodipodi:type="star"
         transform="translate(271,154.28572)" />
      <path
         d="m 262.72301,428.45219 -91.16032,0 -45.58016,-78.94716 45.58016,-78.94715 91.16033,0 45.58016,78.94716 z"
         inkscape:randomized="0"
         inkscape:rounded="0"
         inkscape:flatsided="true"
         sodipodi:arg2="1.5707963"
         sodipodi:arg1="1.0471976"
         sodipodi:r2="78.947151"
         sodipodi:r1="91.160324"
         sodipodi:cy="349.50504"
         sodipodi:cx="217.14285"
         sodipodi:sides="6"
         id="path2987-9"
         style="fill:#91d100;fill-opacity:1;fill-rule:evenodd;stroke:#000000;stroke-width:1px;stroke-linecap:butt;stroke-linejoin:miter;stroke-opacity:1"
         sodipodi:type="star"
         transform="translate(271,312.28572)" />
      <path
         d="m 262.72301,428.45219 -91.16032,0 -45.58016,-78.94716 45.58016,-78.94715 91.16033,0 45.58016,78.94716 z"
         inkscape:randomized="0"
         inkscape:rounded="0"
         inkscape:flatsided="true"
         sodipodi:arg2="1.5707963"
         sodipodi:arg1="1.0471976"
         sodipodi:r2="78.947151"
         sodipodi:r1="91.160324"
         sodipodi:cy="349.50504"
         sodipodi:cx="217.14285"
         sodipodi:sides="6"
         id="path2987-48"
         style="fill:#91d100;fill-opacity:1;fill-rule:evenodd;stroke:#000000;stroke-width:1px;stroke-linecap:butt;stroke-linejoin:miter;stroke-opacity:1"
         sodipodi:type="star"
         transform="translate(407.71429,232.85715)" />
    </g>
    <g
       id="g3061"
       style="fill:#2572eb;fill-opacity:1">
      <path
         d="m 262.72301,428.45219 -91.16032,0 -45.58016,-78.94716 45.58016,-78.94715 91.16033,0 45.58016,78.94716 z"
         inkscape:randomized="0"
         inkscape:rounded="0"
         inkscape:flatsided="true"
         sodipodi:arg2="1.5707963"
         sodipodi:arg1="1.0471976"
         sodipodi:r2="78.947151"
         sodipodi:r1="91.160324"
         sodipodi:cy="349.50504"
         sodipodi:cx="217.14285"
         sodipodi:sides="6"
         id="path2987-8"
         style="fill:#2572eb;fill-opacity:1;fill-rule:evenodd;stroke:#000000;stroke-width:1px;stroke-linecap:butt;stroke-linejoin:miter;stroke-opacity:1"
         sodipodi:type="star"
         transform="translate(135.71429,-79.999999)" />
      <path
         d="m 262.72301,428.45219 -91.16032,0 -45.58016,-78.94716 45.58016,-78.94715 91.16033,0 45.58016,78.94716 z"
         inkscape:randomized="0"
         inkscape:rounded="0"
         inkscape:flatsided="true"
         sodipodi:arg2="1.5707963"
         sodipodi:arg1="1.0471976"
         sodipodi:r2="78.947151"
         sodipodi:r1="91.160324"
         sodipodi:cy="349.50504"
         sodipodi:cx="217.14285"
         sodipodi:sides="6"
         id="path2987-2"
         style="fill:#2572eb;fill-opacity:1;fill-rule:evenodd;stroke:#000000;stroke-width:1px;stroke-linecap:butt;stroke-linejoin:miter;stroke-opacity:1"
         sodipodi:type="star"
         transform="translate(271,-2.4285694)" />
    </g>
    <path
       id="path3840"
       d="m 217.17356,316.48107 c 1.366,-0.707 2.311,-2.117 2.311,-3.762 0,-2.348 -1.90199,-4.25 -4.25,-4.25 -2.348,0 -4.25,1.902 -4.25,4.25 0,1.65 0.95,3.064 2.32401,3.769 -4.624,38.372 -18.24601,52.53 -18.387,52.674 -0.58401,0.586 -0.583,1.533 0.002,2.118 0.586,0.586 1.535,0.586 2.121,0 0.244,-0.245 2.646,-2.719 5.734,-8.157 0.16,0.06 0.332,0.097 0.514,0.097 h 24.127 c 1.777,3.073 3.769,5.825 6.004,8.061 0.293,0.293 0.677,0.439 1.061,0.439 0.384,0 0.768,-0.146 1.061,-0.439 0.586,-0.586 0.586,-1.535 0,-2.121 -12.212,-12.213 -17.009,-41.996 -18.372,-52.679 z m -1.922,7.776 c 0.936,5.706 2.379,12.927 4.511,20.188 h -9.147 c 1.751,-5.67 3.374,-12.351 4.636,-20.188 z m -10.911,35.962 c 1.716,-3.369 3.554,-7.597 5.306,-12.773 h 10.838 c 0.066,0 0.129,-0.012 0.191,-0.02 1.424,4.438 3.119,8.813 5.124,12.793 h -21.459 z m 18.72,-41.742 v -1 c 3.148,0 5.709,-2.562 5.709,-5.71 0,-3.147 -2.561,-5.709 -5.709,-5.709 v -1 c 3.699,0 6.709,3.01 6.709,6.709 0,3.7 -3.01,6.71 -6.709,6.71 z m 3.053,-17.673 v -1 c 6.712,0 12.173,5.461 12.173,12.174 0,6.712 -5.461,12.173 -12.173,12.173 v -1 c 6.161,0 11.173,-5.012 11.173,-11.173 0,-6.161 -5.012,-11.174 -11.173,-11.174 z m 19.988,11.298 c 0,9.68 -7.875,17.555 -17.555,17.555 v -1 c 9.128,0 16.555,-7.427 16.555,-16.555 0,-9.128 -7.427,-16.555 -16.555,-16.555 v -1 c 9.68,0 17.555,7.875 17.555,17.555 z m -43.536,-0.21 c 0,3.148 2.561,5.71 5.709,5.71 v 1 c -3.699,0 -6.709,-3.01 -6.709,-6.71 0,-3.699 3.01,-6.709 6.709,-6.709 v 1 c -3.148,0 -5.709,2.561 -5.709,5.709 z m 2.656,-11.963 v 1 c -6.161,0 -11.173,5.013 -11.173,11.174 0,6.161 5.012,11.173 11.173,11.173 v 1 c -6.712,0 -12.173,-5.461 -12.173,-12.173 0,-6.713 5.461,-12.174 12.173,-12.174 z m -2.433,29.852 c -9.68,0 -17.555,-7.875 -17.555,-17.555 0,-9.68 7.875,-17.555 17.555,-17.555 v 1 c -9.128,0 -16.555,7.427 -16.555,16.555 0,9.128 7.427,16.555 16.555,16.555 v 1 z"
       inkscape:connector-curvature="0" />
    <path
       id="path3840-4"
       d="m 217.17356,473.05471 c 1.366,-0.707 2.311,-2.117 2.311,-3.762 0,-2.348 -1.90199,-4.25 -4.25,-4.25 -2.348,0 -4.25,1.902 -4.25,4.25 0,1.65 0.95,3.064 2.32401,3.769 -4.624,38.372 -18.24601,52.53 -18.387,52.674 -0.58401,0.586 -0.583,1.533 0.002,2.118 0.586,0.586 1.535,0.586 2.121,0 0.244,-0.245 2.646,-2.719 5.734,-8.157 0.16,0.06 0.332,0.097 0.514,0.097 h 24.127 c 1.777,3.073 3.769,5.825 6.004,8.061 0.293,0.293 0.677,0.439 1.061,0.439 0.384,0 0.768,-0.146 1.061,-0.439 0.586,-0.586 0.586,-1.535 0,-2.121 -12.212,-12.213 -17.009,-41.996 -18.372,-52.679 z m -1.922,7.776 c 0.936,5.706 2.379,12.927 4.511,20.188 h -9.147 c 1.751,-5.67 3.374,-12.351 4.636,-20.188 z m -10.911,35.962 c 1.716,-3.369 3.554,-7.597 5.306,-12.773 h 10.838 c 0.066,0 0.129,-0.012 0.191,-0.02 1.424,4.438 3.119,8.813 5.124,12.793 h -21.459 z m 18.72,-41.742 v -1 c 3.148,0 5.709,-2.562 5.709,-5.71 0,-3.147 -2.561,-5.709 -5.709,-5.709 v -1 c 3.699,0 6.709,3.01 6.709,6.709 0,3.7 -3.01,6.71 -6.709,6.71 z m 3.053,-17.673 v -1 c 6.712,0 12.173,5.461 12.173,12.174 0,6.712 -5.461,12.173 -12.173,12.173 v -1 c 6.161,0 11.173,-5.012 11.173,-11.173 0,-6.161 -5.012,-11.174 -11.173,-11.174 z m 19.988,11.298 c 0,9.68 -7.875,17.555 -17.555,17.555 v -1 c 9.128,0 16.555,-7.427 16.555,-16.555 0,-9.128 -7.427,-16.555 -16.555,-16.555 v -1 c 9.68,0 17.555,7.875 17.555,17.555 z m -43.536,-0.21 c 0,3.148 2.561,5.71 5.709,5.71 v 1 c -3.699,0 -6.709,-3.01 -6.709,-6.71 0,-3.699 3.01,-6.709 6.709,-6.709 v 1 c -3.148,0 -5.709,2.561 -5.709,5.709 z m 2.656,-11.963 v 1 c -6.161,0 -11.173,5.013 -11.173,11.174 0,6.161 5.012,11.173 11.173,11.173 v 1 c -6.712,0 -12.173,-5.461 -12.173,-12.173 0,-6.713 5.461,-12.174 12.173,-12.174 z m -2.433,29.852 c -9.68,0 -17.555,-7.875 -17.555,-17.555 0,-9.68 7.875,-17.555 17.555,-17.555 v 1 c -9.128,0 -16.555,7.427 -16.555,16.555 0,9.128 7.427,16.555 16.555,16.555 v 1 z"
       inkscape:connector-curvature="0" />
    <path
       id="path3840-4-5"
       d="m 351.27132,396.28312 c 1.366,-0.707 2.31099,-2.117 2.31099,-3.762 0,-2.348 -1.90199,-4.25 -4.25,-4.25 -2.34799,0 -4.25,1.902 -4.25,4.25 0,1.65 0.95001,3.064 2.32401,3.769 -4.624,38.372 -18.246,52.53 -18.38701,52.674 -0.58399,0.586 -0.58299,1.533 0.002,2.118 0.586,0.586 1.535,0.586 2.121,0 0.244,-0.245 2.64599,-2.719 5.73399,-8.157 0.16001,0.06 0.332,0.097 0.514,0.097 h 24.12701 c 1.77699,3.073 3.769,5.825 6.004,8.061 0.293,0.293 0.677,0.439 1.06099,0.439 0.384,0 0.76801,-0.146 1.06101,-0.439 0.586,-0.586 0.586,-1.535 0,-2.121 -12.212,-12.213 -17.009,-41.996 -18.37201,-52.679 z m -1.922,7.776 c 0.93599,5.706 2.379,12.927 4.511,20.188 h -9.147 c 1.751,-5.67 3.374,-12.351 4.636,-20.188 z m -10.91101,35.962 c 1.716,-3.369 3.554,-7.597 5.30601,-12.773 h 10.83799 c 0.066,0 0.12901,-0.012 0.19101,-0.02 1.42399,4.438 3.119,8.813 5.124,12.793 h -21.45901 z m 18.72001,-41.742 v -1 c 3.148,0 5.70899,-2.562 5.70899,-5.71 0,-3.147 -2.56099,-5.709 -5.70899,-5.709 v -1 c 3.69899,0 6.70899,3.01 6.70899,6.709 0,3.7 -3.01,6.71 -6.70899,6.71 z m 3.053,-17.673 v -1 c 6.71199,0 12.173,5.461 12.173,12.174 0,6.712 -5.46101,12.173 -12.173,12.173 v -1 c 6.16099,0 11.173,-5.012 11.173,-11.173 0,-6.161 -5.01201,-11.174 -11.173,-11.174 z m 19.98799,11.298 c 0,9.68 -7.875,17.555 -17.555,17.555 v -1 c 9.128,0 16.555,-7.427 16.555,-16.555 0,-9.128 -7.427,-16.555 -16.555,-16.555 v -1 c 9.68,0 17.555,7.875 17.555,17.555 z m -43.536,-0.21 c 0,3.148 2.561,5.71 5.709,5.71 v 1 c -3.699,0 -6.709,-3.01 -6.709,-6.71 0,-3.699 3.01,-6.709 6.709,-6.709 v 1 c -3.148,0 -5.709,2.561 -5.709,5.709 z m 2.656,-11.963 v 1 c -6.16099,0 -11.173,5.013 -11.173,11.174 0,6.161 5.01201,11.173 11.173,11.173 v 1 c -6.712,0 -12.173,-5.461 -12.173,-12.173 0,-6.713 5.461,-12.174 12.173,-12.174 z m -2.433,29.852 c -9.67999,0 -17.55499,-7.875 -17.55499,-17.555 0,-9.68 7.875,-17.555 17.55499,-17.555 v 1 c -9.12799,0 -16.55499,7.427 -16.55499,16.555 0,9.128 7.427,16.555 16.55499,16.555 v 1 z"
       inkscape:connector-curvature="0" />
    <path
       id="path3840-4-51"
       d="m 351.27132,248.80085 c 1.366,-0.707 2.31099,-2.117 2.31099,-3.762 0,-2.348 -1.90199,-4.25 -4.25,-4.25 -2.348,0 -4.25,1.902 -4.25,4.25 0,1.65 0.95,3.064 2.32401,3.769 -4.62401,38.372 -18.246,52.53 -18.38701,52.674 -0.58398,0.586 -0.583,1.533 0.002,2.118 0.586,0.586 1.53499,0.586 2.121,0 0.244,-0.245 2.64599,-2.719 5.73399,-8.157 0.16001,0.06 0.332,0.097 0.514,0.097 h 24.12701 c 1.77699,3.073 3.769,5.825 6.004,8.061 0.293,0.293 0.677,0.439 1.061,0.439 0.384,0 0.76799,-0.146 1.06099,-0.439 0.586,-0.586 0.586,-1.535 0,-2.121 -12.212,-12.213 -17.009,-41.996 -18.372,-52.679 z m -1.922,7.776 c 0.93599,5.706 2.379,12.927 4.51099,20.188 h -9.14699 c 1.751,-5.67 3.374,-12.351 4.636,-20.188 z m -10.91101,35.962 c 1.716,-3.369 3.554,-7.597 5.306,-12.773 h 10.838 c 0.066,0 0.12901,-0.012 0.191,-0.02 1.424,4.438 3.11901,8.813 5.12401,12.793 h -21.45901 z m 18.72001,-41.742 v -1 c 3.148,0 5.70899,-2.562 5.70899,-5.71 0,-3.147 -2.56099,-5.709 -5.70899,-5.709 v -1 c 3.69899,0 6.70899,3.01 6.70899,6.709 0,3.7 -3.01,6.71 -6.70899,6.71 z m 3.053,-17.673 v -1 c 6.71199,0 12.173,5.461 12.173,12.174 0,6.712 -5.46101,12.173 -12.173,12.173 v -1 c 6.16099,0 11.173,-5.012 11.173,-11.173 0,-6.161 -5.01201,-11.174 -11.173,-11.174 z m 19.98799,11.298 c 0,9.68 -7.875,17.555 -17.555,17.555 v -1 c 9.128,0 16.555,-7.427 16.555,-16.555 0,-9.128 -7.427,-16.555 -16.555,-16.555 v -1 c 9.68,0 17.555,7.875 17.555,17.555 z m -43.536,-0.21 c 0,3.148 2.561,5.71 5.709,5.71 v 1 c -3.699,0 -6.709,-3.01 -6.709,-6.71 0,-3.699 3.01,-6.709 6.709,-6.709 v 1 c -3.148,0 -5.709,2.561 -5.709,5.709 z m 2.656,-11.963 v 1 c -6.16099,0 -11.173,5.013 -11.173,11.174 0,6.161 5.01201,11.173 11.173,11.173 v 1 c -6.712,0 -12.173,-5.461 -12.173,-12.173 0,-6.713 5.461,-12.174 12.173,-12.174 z m -2.433,29.852 c -9.67999,0 -17.55499,-7.875 -17.55499,-17.555 0,-9.68 7.875,-17.555 17.55499,-17.555 v 1 c -9.12799,0 -16.55499,7.427 -16.55499,16.555 0,9.128 7.427,16.555 16.55499,16.555 v 1 z"
       inkscape:connector-curvature="0" />
    <path
       id="path3840-4-7"
       d="m 487.38937,316.48107 c 1.366,-0.707 2.311,-2.117 2.311,-3.762 0,-2.348 -1.902,-4.25 -4.25,-4.25 -2.348,0 -4.25,1.902 -4.25,4.25 0,1.65 0.95,3.064 2.324,3.769 -4.624,38.372 -18.246,52.53 -18.387,52.674 -0.584,0.586 -0.583,1.533 0.002,2.118 0.586,0.586 1.535,0.586 2.121,0 0.244,-0.245 2.646,-2.719 5.734,-8.157 0.16,0.06 0.332,0.097 0.514,0.097 h 24.127 c 1.777,3.073 3.769,5.825 6.004,8.061 0.293,0.293 0.677,0.439 1.061,0.439 0.384,0 0.768,-0.146 1.061,-0.439 0.586,-0.586 0.586,-1.535 0,-2.121 -12.212,-12.213 -17.009,-41.996 -18.372,-52.679 z m -1.922,7.776 c 0.936,5.706 2.379,12.927 4.511,20.188 h -9.147 c 1.751,-5.67 3.374,-12.351 4.636,-20.188 z m -10.911,35.962 c 1.716,-3.369 3.554,-7.597 5.306,-12.773 h 10.838 c 0.066,0 0.129,-0.012 0.191,-0.02 1.424,4.438 3.119,8.813 5.124,12.793 h -21.459 z m 18.72,-41.742 v -1 c 3.148,0 5.709,-2.562 5.709,-5.71 0,-3.147 -2.561,-5.709 -5.709,-5.709 v -1 c 3.699,0 6.709,3.01 6.709,6.709 0,3.7 -3.01,6.71 -6.709,6.71 z m 3.053,-17.673 v -1 c 6.712,0 12.173,5.461 12.173,12.174 0,6.712 -5.461,12.173 -12.173,12.173 v -1 c 6.161,0 11.173,-5.012 11.173,-11.173 0,-6.161 -5.012,-11.174 -11.173,-11.174 z m 19.988,11.298 c 0,9.68 -7.875,17.555 -17.555,17.555 v -1 c 9.128,0 16.555,-7.427 16.555,-16.555 0,-9.128 -7.427,-16.555 -16.555,-16.555 v -1 c 9.68,0 17.555,7.875 17.555,17.555 z m -43.536,-0.21 c 0,3.148 2.561,5.71 5.709,5.71 v 1 c -3.699,0 -6.709,-3.01 -6.709,-6.71 0,-3.699 3.01,-6.709 6.709,-6.709 v 1 c -3.148,0 -5.709,2.561 -5.709,5.709 z m 2.656,-11.963 v 1 c -6.161,0 -11.173,5.013 -11.173,11.174 0,6.161 5.012,11.173 11.173,11.173 v 1 c -6.712,0 -12.173,-5.461 -12.173,-12.173 0,-6.713 5.461,-12.174 12.173,-12.174 z m -2.433,29.852 c -9.68,0 -17.555,-7.875 -17.555,-17.555 0,-9.68 7.875,-17.555 17.555,-17.555 v 1 c -9.128,0 -16.555,7.427 -16.555,16.555 0,9.128 7.427,16.555 16.555,16.555 v 1 z"
       inkscape:connector-curvature="0" />
    <path
       id="path3840-4-1"
       d="m 487.38937,473.05472 c 1.366,-0.707 2.311,-2.117 2.311,-3.762 0,-2.348 -1.902,-4.25 -4.25,-4.25 -2.348,0 -4.25,1.902 -4.25,4.25 0,1.65 0.95,3.064 2.324,3.769 -4.624,38.372 -18.246,52.53 -18.387,52.674 -0.584,0.586 -0.583,1.533 0.002,2.118 0.586,0.586 1.535,0.586 2.121,0 0.244,-0.245 2.646,-2.719 5.734,-8.157 0.16,0.06 0.332,0.097 0.514,0.097 h 24.127 c 1.777,3.073 3.769,5.825 6.004,8.061 0.293,0.293 0.677,0.439 1.061,0.439 0.384,0 0.768,-0.146 1.061,-0.439 0.586,-0.586 0.586,-1.535 0,-2.121 -12.212,-12.213 -17.009,-41.996 -18.372,-52.679 z m -1.922,7.776 c 0.936,5.706 2.379,12.927 4.511,20.188 h -9.147 c 1.751,-5.67 3.374,-12.351 4.636,-20.188 z m -10.911,35.962 c 1.716,-3.369 3.554,-7.597 5.306,-12.773 h 10.838 c 0.066,0 0.129,-0.012 0.191,-0.02 1.424,4.438 3.119,8.813 5.124,12.793 h -21.459 z m 18.72,-41.742 v -1 c 3.148,0 5.709,-2.562 5.709,-5.71 0,-3.147 -2.561,-5.709 -5.709,-5.709 v -1 c 3.699,0 6.709,3.01 6.709,6.709 0,3.7 -3.01,6.71 -6.709,6.71 z m 3.053,-17.673 v -1 c 6.712,0 12.173,5.461 12.173,12.174 0,6.712 -5.461,12.173 -12.173,12.173 v -1 c 6.161,0 11.173,-5.012 11.173,-11.173 0,-6.161 -5.012,-11.174 -11.173,-11.174 z m 19.988,11.298 c 0,9.68 -7.875,17.555 -17.555,17.555 v -1 c 9.128,0 16.555,-7.427 16.555,-16.555 0,-9.128 -7.427,-16.555 -16.555,-16.555 v -1 c 9.68,0 17.555,7.875 17.555,17.555 z m -43.536,-0.21 c 0,3.148 2.561,5.71 5.709,5.71 v 1 c -3.699,0 -6.709,-3.01 -6.709,-6.71 0,-3.699 3.01,-6.709 6.709,-6.709 v 1 c -3.148,0 -5.709,2.561 -5.709,5.709 z m 2.656,-11.963 v 1 c -6.161,0 -11.173,5.013 -11.173,11.174 0,6.161 5.012,11.173 11.173,11.173 v 1 c -6.712,0 -12.173,-5.461 -12.173,-12.173 0,-6.713 5.461,-12.174 12.173,-12.174 z m -2.433,29.852 c -9.68,0 -17.555,-7.875 -17.555,-17.555 0,-9.68 7.875,-17.555 17.555,-17.555 v 1 c -9.128,0 -16.555,7.427 -16.555,16.555 0,9.128 7.427,16.555 16.555,16.555 v 1 z"
       inkscape:connector-curvature="0" />
    <path
       id="path3840-4-15"
       d="m 351.27131,552.35169 c 1.366,-0.707 2.311,-2.117 2.311,-3.762 0,-2.348 -1.902,-4.25 -4.25,-4.25 -2.348,0 -4.25,1.902 -4.25,4.25 0,1.65 0.95,3.064 2.324,3.769 -4.624,38.372 -18.246,52.53 -18.387,52.674 -0.584,0.586 -0.583,1.533 0.002,2.118 0.586,0.586 1.53501,0.586 2.121,0 0.244,-0.245 2.646,-2.719 5.734,-8.157 0.16,0.06 0.332,0.097 0.514,0.097 h 24.127 c 1.777,3.073 3.769,5.825 6.004,8.061 0.293,0.293 0.677,0.439 1.061,0.439 0.384,0 0.768,-0.146 1.061,-0.439 0.586,-0.586 0.586,-1.535 0,-2.121 -12.212,-12.213 -17.009,-41.996 -18.372,-52.679 z m -1.922,7.776 c 0.936,5.706 2.379,12.927 4.51101,20.188 h -9.14701 c 1.751,-5.67 3.374,-12.351 4.63602,-20.188 z m -10.911,35.962 c 1.716,-3.369 3.554,-7.597 5.306,-12.773 h 10.838 c 0.066,0 0.12901,-0.012 0.191,-0.02 1.424,4.438 3.119,8.813 5.124,12.793 h -21.459 z m 18.72001,-41.742 v -1 c 3.148,0 5.70899,-2.562 5.70899,-5.71 0,-3.147 -2.56099,-5.709 -5.70899,-5.709 v -1 c 3.69899,0 6.70899,3.01 6.70899,6.709 0,3.7 -3.01,6.71 -6.70899,6.71 z m 3.053,-17.673 v -1 c 6.71199,0 12.173,5.461 12.173,12.174 0,6.712 -5.46101,12.173 -12.173,12.173 v -1 c 6.16099,0 11.173,-5.012 11.173,-11.173 0,-6.161 -5.01201,-11.174 -11.173,-11.174 z m 19.98799,11.298 c 0,9.68 -7.875,17.555 -17.555,17.555 v -1 c 9.128,0 16.555,-7.427 16.555,-16.555 0,-9.128 -7.427,-16.555 -16.555,-16.555 v -1 c 9.68,0 17.555,7.875 17.555,17.555 z m -43.536,-0.21 c 0,3.148 2.561,5.71 5.709,5.71 v 1 c -3.699,0 -6.709,-3.01 -6.709,-6.71 0,-3.699 3.01,-6.709 6.709,-6.709 v 1 c -3.148,0 -5.709,2.561 -5.709,5.709 z m 2.656,-11.963 v 1 c -6.16099,0 -11.173,5.013 -11.173,11.174 0,6.161 5.01201,11.173 11.173,11.173 v 1 c -6.712,0 -12.173,-5.461 -12.173,-12.173 0,-6.713 5.461,-12.174 12.173,-12.174 z m -2.433,29.852 c -9.67999,0 -17.55499,-7.875 -17.55499,-17.555 0,-9.68 7.875,-17.555 17.55499,-17.555 v 1 c -9.12799,0 -16.55499,7.427 -16.55499,16.555 0,9.128 7.427,16.555 16.55499,16.555 v 1 z"
       inkscape:connector-curvature="0" />
    <path
       id="path3840-4-2"
       d="m 487.38937,634.67912 c 1.366,-0.707 2.311,-2.117 2.311,-3.762 0,-2.348 -1.902,-4.25 -4.25,-4.25 -2.348,0 -4.25,1.902 -4.25,4.25 0,1.65 0.95,3.064 2.324,3.769 -4.624,38.372 -18.246,52.53 -18.387,52.674 -0.584,0.586 -0.583,1.533 0.002,2.118 0.586,0.586 1.535,0.586 2.121,0 0.244,-0.245 2.646,-2.719 5.734,-8.157 0.16,0.06 0.332,0.097 0.514,0.097 h 24.127 c 1.777,3.073 3.769,5.825 6.004,8.061 0.293,0.293 0.677,0.439 1.061,0.439 0.384,0 0.768,-0.146 1.061,-0.439 0.586,-0.586 0.586,-1.535 0,-2.121 -12.212,-12.213 -17.009,-41.996 -18.372,-52.679 z m -1.922,7.776 c 0.936,5.706 2.379,12.927 4.511,20.188 h -9.147 c 1.751,-5.67 3.374,-12.351 4.636,-20.188 z m -10.911,35.962 c 1.716,-3.369 3.554,-7.597 5.306,-12.773 h 10.838 c 0.066,0 0.129,-0.012 0.191,-0.02 1.424,4.438 3.119,8.813 5.124,12.793 h -21.459 z m 18.72,-41.742 v -1 c 3.148,0 5.709,-2.562 5.709,-5.71 0,-3.147 -2.561,-5.709 -5.709,-5.709 v -1 c 3.699,0 6.709,3.01 6.709,6.709 0,3.7 -3.01,6.71 -6.709,6.71 z m 3.053,-17.673 v -1 c 6.712,0 12.173,5.461 12.173,12.174 0,6.712 -5.461,12.173 -12.173,12.173 v -1 c 6.161,0 11.173,-5.012 11.173,-11.173 0,-6.161 -5.012,-11.174 -11.173,-11.174 z m 19.988,11.298 c 0,9.68 -7.875,17.555 -17.555,17.555 v -1 c 9.128,0 16.555,-7.427 16.555,-16.555 0,-9.128 -7.427,-16.555 -16.555,-16.555 v -1 c 9.68,0 17.555,7.875 17.555,17.555 z m -43.536,-0.21 c 0,3.148 2.561,5.71 5.709,5.71 v 1 c -3.699,0 -6.709,-3.01 -6.709,-6.71 0,-3.699 3.01,-6.709 6.709,-6.709 v 1 c -3.148,0 -5.709,2.561 -5.709,5.709 z m 2.656,-11.963 v 1 c -6.161,0 -11.173,5.013 -11.173,11.174 0,6.161 5.012,11.173 11.173,11.173 v 1 c -6.712,0 -12.173,-5.461 -12.173,-12.173 0,-6.713 5.461,-12.174 12.173,-12.174 z m -2.433,29.852 c -9.68,0 -17.555,-7.875 -17.555,-17.555 0,-9.68 7.875,-17.555 17.555,-17.555 v 1 c -9.128,0 -16.555,7.427 -16.555,16.555 0,9.128 7.427,16.555 16.555,16.555 v 1 z"
       inkscape:connector-curvature="0" />
    <path
       id="path3840-4-76"
       d="m 621.73966,552.35169 c 1.366,-0.707 2.311,-2.117 2.311,-3.762 0,-2.348 -1.902,-4.25 -4.25,-4.25 -2.348,0 -4.25,1.902 -4.25,4.25 0,1.65 0.95,3.064 2.324,3.769 -4.624,38.372 -18.246,52.53 -18.387,52.674 -0.584,0.586 -0.583,1.533 0.002,2.118 0.586,0.586 1.535,0.586 2.121,0 0.244,-0.245 2.646,-2.719 5.734,-8.157 0.16,0.06 0.332,0.097 0.514,0.097 h 24.127 c 1.777,3.073 3.769,5.825 6.004,8.061 0.293,0.293 0.677,0.439 1.061,0.439 0.384,0 0.768,-0.146 1.061,-0.439 0.586,-0.586 0.586,-1.535 0,-2.121 -12.212,-12.213 -17.009,-41.996 -18.372,-52.679 z m -1.922,7.776 c 0.936,5.706 2.379,12.927 4.511,20.188 h -9.147 c 1.751,-5.67 3.374,-12.351 4.636,-20.188 z m -10.911,35.962 c 1.716,-3.369 3.554,-7.597 5.306,-12.773 h 10.838 c 0.066,0 0.129,-0.012 0.191,-0.02 1.424,4.438 3.119,8.813 5.124,12.793 h -21.459 z m 18.72,-41.742 v -1 c 3.148,0 5.709,-2.562 5.709,-5.71 0,-3.147 -2.561,-5.709 -5.709,-5.709 v -1 c 3.699,0 6.709,3.01 6.709,6.709 0,3.7 -3.01,6.71 -6.709,6.71 z m 3.053,-17.673 v -1 c 6.712,0 12.173,5.461 12.173,12.174 0,6.712 -5.461,12.173 -12.173,12.173 v -1 c 6.161,0 11.173,-5.012 11.173,-11.173 0,-6.161 -5.012,-11.174 -11.173,-11.174 z m 19.988,11.298 c 0,9.68 -7.875,17.555 -17.555,17.555 v -1 c 9.128,0 16.555,-7.427 16.555,-16.555 0,-9.128 -7.427,-16.555 -16.555,-16.555 v -1 c 9.68,0 17.555,7.875 17.555,17.555 z m -43.536,-0.21 c 0,3.148 2.561,5.71 5.709,5.71 v 1 c -3.699,0 -6.709,-3.01 -6.709,-6.71 0,-3.699 3.01,-6.709 6.709,-6.709 v 1 c -3.148,0 -5.709,2.561 -5.709,5.709 z m 2.656,-11.963 v 1 c -6.161,0 -11.173,5.013 -11.173,11.174 0,6.161 5.012,11.173 11.173,11.173 v 1 c -6.712,0 -12.173,-5.461 -12.173,-12.173 0,-6.713 5.461,-12.174 12.173,-12.174 z m -2.433,29.852 c -9.68,0 -17.555,-7.875 -17.555,-17.555 0,-9.68 7.875,-17.555 17.555,-17.555 v 1 c -9.128,0 -16.555,7.427 -16.555,16.555 0,9.128 7.427,16.555 16.555,16.555 v 1 z"
       inkscape:connector-curvature="0" />
    <text
       xml:space="preserve"
       style="font-size:40px;font-style:normal;font-weight:normal;line-height:125%;letter-spacing:0px;word-spacing:0px;fill:#000000;fill-opacity:1;stroke:none;font-family:Sans"
       x="698.38715"
       y="213.10275"
       id="text3927"
       sodipodi:linespacing="125%"><tspan
         sodipodi:role="line"
         id="tspan3929"
         x="698.38715"
         y="213.10275"
         style="font-style:normal;font-variant:normal;font-weight:normal;font-stretch:normal;font-family:CMU Serif;-inkscape-font-specification:CMU Serif">Location Area 1</tspan></text>
    <text
       xml:space="preserve"
       style="font-size:40px;font-style:normal;font-weight:normal;line-height:125%;letter-spacing:0px;word-spacing:0px;fill:#000000;fill-opacity:1;stroke:none;font-family:Sans"
       x="698.38715"
       y="271.51276"
       id="text3927-1"
       sodipodi:linespacing="125%"><tspan
         sodipodi:role="line"
         id="tspan3929-4"
         x="698.38715"
         y="271.51276"
         style="font-style:normal;font-variant:normal;font-weight:normal;font-stretch:normal;font-family:CMU Serif;-inkscape-font-specification:CMU Serif">Location Area 2</tspan></text>
    <text
       xml:space="preserve"
       style="font-size:40px;font-style:normal;font-weight:normal;line-height:125%;letter-spacing:0px;word-spacing:0px;fill:#000000;fill-opacity:1;stroke:none;font-family:Sans"
       x="698.38715"
       y="329.09146"
       id="text3927-2"
       sodipodi:linespacing="125%"><tspan
         sodipodi:role="line"
         id="tspan3929-3"
         x="698.38715"
         y="329.09146"
         style="font-style:normal;font-variant:normal;font-weight:normal;font-stretch:normal;font-family:CMU Serif;-inkscape-font-specification:CMU Serif">Location Area 3</tspan></text>
    <path
       sodipodi:type="star"
       style="fill:#fe7c22;fill-opacity:1"
       id="path3965"
       sodipodi:sides="6"
       sodipodi:cx="-171.72594"
       sodipodi:cy="295.75793"
       sodipodi:r1="19.613615"
       sodipodi:r2="16.985889"
       sodipodi:arg1="1.0471976"
       sodipodi:arg2="1.5707963"
       inkscape:flatsided="true"
       inkscape:rounded="0"
       inkscape:randomized="0"
       d="m -161.91913,312.74382 -19.61362,0 -9.8068,-16.98589 9.80681,-16.98588 19.61361,0 9.80681,16.98589 z"
       transform="translate(835.39615,-38.385796)" />
    <path
       sodipodi:type="star"
       style="fill:#91d100;fill-opacity:1"
       id="path3965-2"
       sodipodi:sides="6"
       sodipodi:cx="-171.72594"
       sodipodi:cy="295.75793"
       sodipodi:r1="19.613615"
       sodipodi:r2="16.985889"
       sodipodi:arg1="1.0471976"
       sodipodi:arg2="1.5707963"
       inkscape:flatsided="true"
       inkscape:rounded="0"
       inkscape:randomized="0"
       d="m -161.91913,312.74382 -19.61362,0 -9.8068,-16.98589 9.80681,-16.98588 19.61361,0 9.80681,16.98589 z"
       transform="translate(835.39615,19.192889)" />
    <path
       sodipodi:type="star"
       style="fill:#2572eb;fill-opacity:1"
       id="path3965-21"
       sodipodi:sides="6"
       sodipodi:cx="-171.72594"
       sodipodi:cy="295.75793"
       sodipodi:r1="19.613615"
       sodipodi:r2="16.985889"
       sodipodi:arg1="1.0471976"
       sodipodi:arg2="1.5707963"
       inkscape:flatsided="true"
       inkscape:rounded="0"
       inkscape:randomized="0"
       d="m -161.91913,312.74382 -19.61362,0 -9.8068,-16.98589 9.80681,-16.98588 19.61361,0 9.80681,16.98589 z"
       transform="translate(835.39615,-96.795794)" />
  </g>
</svg>
