<?xml version="1.0" encoding="UTF-8" standalone="no"?>
<!-- Created with Inkscape (http://www.inkscape.org/) -->

<svg
   xmlns:dc="http://purl.org/dc/elements/1.1/"
   xmlns:cc="http://creativecommons.org/ns#"
   xmlns:rdf="http://www.w3.org/1999/02/22-rdf-syntax-ns#"
   xmlns:svg="http://www.w3.org/2000/svg"
   xmlns="http://www.w3.org/2000/svg"
   xmlns:sodipodi="http://sodipodi.sourceforge.net/DTD/sodipodi-0.dtd"
   xmlns:inkscape="http://www.inkscape.org/namespaces/inkscape"
   width="219.06125"
   height="106.75397"
   id="svg2"
   version="1.1"
   inkscape:version="0.48.4 r"
   sodipodi:docname="roadcell.pdf">
  <defs
     id="defs4">
    <clipPath
       id="clipPath3615"
       clipPathUnits="userSpaceOnUse">
      <path
         id="path3617"
         d="m 509.683,668.642 0,0.466 6.87,3.977 0.201,-0.346 -7.071,-4.097"
         inkscape:connector-curvature="0" />
    </clipPath>
    <clipPath
       id="clipPath3603"
       clipPathUnits="userSpaceOnUse">
      <path
         id="path3605"
         d="m 509.683,678.343 0,0.457 7.071,-3.381 -0.175,-0.372 -6.896,3.296"
         inkscape:connector-curvature="0" />
    </clipPath>
    <clipPath
       id="clipPath3591"
       clipPathUnits="userSpaceOnUse">
      <path
         id="path3593"
         d="m 509.683,661.995 0,6.647 7.071,4.097 -0.201,0.346 -6.87,-3.977 0,9.235 6.896,-3.296 0.175,0.372 -7.071,3.381 0,8.055 24.86,0 0,-24.86 -24.86,0"
         inkscape:connector-curvature="0" />
    </clipPath>
    <clipPath
       id="clipPath3573"
       clipPathUnits="userSpaceOnUse">
      <path
         id="path3575"
         d="m 446.889,694.266 0,0.441 6.922,1.675 0.097,-0.42 -7.019,-1.696"
         inkscape:connector-curvature="0" />
    </clipPath>
    <clipPath
       id="clipPath3561"
       clipPathUnits="userSpaceOnUse">
      <path
         id="path3563"
         d="m 446.889,703.825 0,0.427 6.996,-0.895 -0.052,-0.425 -6.944,0.893"
         inkscape:connector-curvature="0" />
    </clipPath>
    <clipPath
       id="clipPath3549"
       clipPathUnits="userSpaceOnUse">
      <path
         id="path3551"
         d="m 463.063,700.625 0.201,0.372 8.485,-4.057 0,-0.467 -8.686,4.152"
         inkscape:connector-curvature="0" />
    </clipPath>
    <clipPath
       id="clipPath3537"
       clipPathUnits="userSpaceOnUse">
      <path
         id="path3539"
         d="m 446.889,687.599 0,6.667 7.019,1.696 -0.097,0.42 -6.922,-1.675 0,9.118 6.944,-0.893 0.052,0.425 -6.996,0.895 0,8.208 24.86,0 0,-15.52 -8.485,4.057 -0.201,-0.372 8.686,-4.152 0,-8.874 -24.86,0"
         inkscape:connector-curvature="0" />
    </clipPath>
    <clipPath
       id="clipPath3525"
       clipPathUnits="userSpaceOnUse">
      <path
         id="path3527"
         d="m 456.193,652.846 0,0.457 11.708,-5.796 -0.171,-0.372 -11.537,5.711"
         inkscape:connector-curvature="0" />
    </clipPath>
    <clipPath
       id="clipPath3513"
       clipPathUnits="userSpaceOnUse">
      <path
         id="path3515"
         d="m 456.193,648.606 0,0.449 9.527,-3.234 -0.149,-0.398 -9.378,3.183"
         inkscape:connector-curvature="0" />
    </clipPath>
    <clipPath
       id="clipPath3501"
       clipPathUnits="userSpaceOnUse">
      <path
         id="path3503"
         d="m 472.367,647.507 8.686,5.028 0,-0.482 -8.489,-4.918 -0.197,0.372"
         inkscape:connector-curvature="0" />
    </clipPath>
    <clipPath
       id="clipPath3489"
       clipPathUnits="userSpaceOnUse">
      <path
         id="path3491"
         d="m 456.193,634.083 0,14.523 9.378,-3.183 0.149,0.398 -9.527,3.234 0,3.791 11.537,-5.711 0.171,0.372 -11.708,5.796 0,5.64 24.86,0 0,-6.408 -8.686,-5.028 0.197,-0.372 8.489,4.918 0,-17.97 -24.86,0"
         inkscape:connector-curvature="0" />
    </clipPath>
    <clipPath
       id="clipPath3301"
       clipPathUnits="userSpaceOnUse">
      <path
         id="path3303"
         d="m 330.749,600.812 8.9802,0 0,-12.579 -8.9802,0 0,12.579 z"
         inkscape:connector-curvature="0" />
    </clipPath>
    <clipPath
       id="clipPath3213"
       clipPathUnits="userSpaceOnUse">
      <path
         id="path3215"
         d="m 409.844,588.233 0,12.579 8.984,0 0,-12.579 -8.984,0"
         inkscape:connector-curvature="0" />
    </clipPath>
  </defs>
  <sodipodi:namedview
     id="base"
     pagecolor="#ffffff"
     bordercolor="#666666"
     borderopacity="1.0"
     inkscape:pageopacity="0.0"
     inkscape:pageshadow="2"
     inkscape:zoom="0.98994949"
     inkscape:cx="573.44295"
     inkscape:cy="356.26292"
     inkscape:document-units="px"
     inkscape:current-layer="layer1"
     showgrid="false"
     fit-margin-top="0"
     fit-margin-left="0"
     fit-margin-right="0"
     fit-margin-bottom="0"
     inkscape:window-width="1842"
     inkscape:window-height="1057"
     inkscape:window-x="70"
     inkscape:window-y="-8"
     inkscape:window-maximized="1" />
  <metadata
     id="metadata7">
    <rdf:RDF>
      <cc:Work
         rdf:about="">
        <dc:format>image/svg+xml</dc:format>
        <dc:type
           rdf:resource="http://purl.org/dc/dcmitype/StillImage" />
        <dc:title></dc:title>
      </cc:Work>
    </rdf:RDF>
  </metadata>
  <g
     inkscape:label="Ebene 1"
     inkscape:groupmode="layer"
     id="layer1"
     transform="translate(-277.28864,-765.0346)">
    <g
       transform="matrix(1.25,0,0,-1.25,174.02989,1086.1496)"
       inkscape:label="VTC09spring"
       id="g2993">
      <g
         transform="translate(82.607,256.729)"
         id="g3095">
        <path
           id="path3097"
           style="fill:#000000;fill-opacity:1;fill-rule:nonzero;stroke:none"
           d="m 0,0 c 0,0.091 0.054,0.163 0.145,0.163 l 30.582,0 c 0.072,0 0.145,-0.072 0.145,-0.163 l 0,-22.067 c 0,-0.09 -0.073,-0.163 -0.145,-0.163 l -30.582,0 C 0.054,-22.23 0,-22.157 0,-22.067 L 0,0 z m 0.29,-22.067 -0.145,0.145 30.582,0 -0.163,-0.145 0,22.067 0.163,-0.145 -30.582,0 L 0.29,0"
           inkscape:connector-curvature="0" />
      </g>
      <text
         id="text3099"
         transform="matrix(1,0,0,-1,89.8539,249.6998)">
        <tspan
           id="tspan3101"
           sodipodi:role="line"
           y="0"
           x="0 3.4852746 6.1675577 7.2341824 8.300807 10.983089 12.049714 14.731997"
           style="font-size:4.83729982px;font-variant:normal;font-weight:normal;font-stretch:normal;writing-mode:lr-tb;fill:#242424;fill-opacity:1;fill-rule:nonzero;stroke:none;font-family:Arial;-inkscape-font-specification:ArialMT">Cellular</tspan>
        <tspan
           id="tspan3103"
           sodipodi:role="line"
           y="5.7950854"
           x="3.4780188 6.1593342 8.8406496 10.177196"
           style="font-size:4.83729982px;font-variant:normal;font-weight:normal;font-stretch:normal;writing-mode:lr-tb;fill:#242424;fill-opacity:1;fill-rule:nonzero;stroke:none;font-family:Arial;-inkscape-font-specification:ArialMT">data</tspan>
        <tspan
           id="tspan3105"
           sodipodi:role="line"
           y="11.590171"
           x="-1.9010589 0.51372129 3.1993902 4.2694011 5.3394117 8.0250807 10.439861 11.780761 12.850771 15.53644"
           style="font-size:4.83729982px;font-variant:normal;font-weight:normal;font-stretch:normal;writing-mode:lr-tb;fill:#242424;fill-opacity:1;fill-rule:nonzero;stroke:none;font-family:Arial;-inkscape-font-specification:ArialMT">collection</tspan>
      </text>
      <g
         transform="translate(113.334,245.841)"
         id="g3107">
        <path
           id="path3109"
           style="fill:#000000;fill-opacity:1;fill-rule:nonzero;stroke:none"
           d="m 0,0 13.28,-0.036 0,-0.29 L 0,-0.29 0,0 z m 11.541,1.015 2.047,-1.196 -2.047,-1.178 c -0.073,-0.054 -0.163,-0.018 -0.2,0.055 -0.054,0.072 -0.018,0.163 0.055,0.199 l 1.812,1.051 0,-0.254 -1.812,1.051 c -0.073,0.054 -0.091,0.145 -0.055,0.217 0.037,0.073 0.127,0.091 0.2,0.055"
           inkscape:connector-curvature="0" />
      </g>
      <g
         transform="translate(126.759,256.729)"
         id="g3111">
        <path
           id="path3113"
           style="fill:#000000;fill-opacity:1;fill-rule:nonzero;stroke:none"
           d="m 0,0 c 0,0.091 0.072,0.163 0.163,0.163 l 33.97,0 c 0.072,0 0.145,-0.072 0.145,-0.163 l 0,-22.067 c 0,-0.09 -0.073,-0.163 -0.145,-0.163 l -33.97,0 C 0.072,-22.23 0,-22.157 0,-22.067 L 0,0 z m 0.308,-22.067 -0.145,0.145 33.97,0 -0.163,-0.145 0,22.067 0.163,-0.145 -33.97,0 L 0.308,0"
           inkscape:connector-curvature="0" />
      </g>
      <text
         id="text3115"
         transform="matrix(1,0,0,-1,138.5169,243.9022)">
        <tspan
           id="tspan3117"
           sodipodi:role="line"
           y="0"
           x="0 2.9493017 4.0168939 5.084486 6.422967 9.1062174"
           style="font-size:4.83729982px;font-variant:normal;font-weight:normal;font-stretch:normal;writing-mode:lr-tb;fill:#242424;fill-opacity:1;fill-rule:nonzero;stroke:none;font-family:Arial;-inkscape-font-specification:ArialMT">Filter</tspan>
      </text>
      <g
         transform="translate(160.892,245.841)"
         id="g3119">
        <path
           id="path3121"
           style="fill:#000000;fill-opacity:1;fill-rule:nonzero;stroke:none"
           d="m 0,0 14.983,-0.036 0,-0.29 L 0,-0.29 0,0 z m 13.244,1.015 2.029,-1.196 -2.029,-1.178 c -0.073,-0.054 -0.163,-0.018 -0.218,0.055 -0.036,0.072 0,0.163 0.073,0.199 l 1.812,1.051 0,-0.254 -1.812,1.051 c -0.073,0.054 -0.109,0.145 -0.055,0.217 0.037,0.073 0.127,0.091 0.2,0.055"
           inkscape:connector-curvature="0" />
      </g>
      <g
         transform="translate(225.281,256.729)"
         id="g3123">
        <path
           id="path3125"
           style="fill:#000000;fill-opacity:1;fill-rule:nonzero;stroke:none"
           d="m 0,0 c 0,0.091 0.072,0.163 0.145,0.163 l 32.267,0 c 0.09,0 0.163,-0.072 0.163,-0.163 l 0,-22.067 c 0,-0.09 -0.073,-0.163 -0.163,-0.163 l -32.267,0 C 0.072,-22.23 0,-22.157 0,-22.067 L 0,0 z m 0.29,-22.067 -0.145,0.145 32.267,0 -0.145,-0.145 0,22.067 0.145,-0.145 -32.267,0 L 0.29,0"
           inkscape:connector-curvature="0" />
      </g>
      <text
         id="text3127"
         transform="matrix(1,0,0,-1,235.7705,249.6998)">
        <tspan
           id="tspan3129"
           sodipodi:role="line"
           y="0"
           x="0 3.4862421 6.1694922 8.8527431"
           style="font-size:4.83729982px;font-variant:normal;font-weight:normal;font-stretch:normal;writing-mode:lr-tb;fill:#242424;fill-opacity:1;fill-rule:nonzero;stroke:none;font-family:Arial;-inkscape-font-specification:ArialMT">Road</tspan>
        <tspan
           id="tspan3131"
           sodipodi:role="line"
           y="5.7950854"
           x="1.0883925 3.7716429 6.4548931 7.7933741"
           style="font-size:4.83729982px;font-variant:normal;font-weight:normal;font-stretch:normal;writing-mode:lr-tb;fill:#242424;fill-opacity:1;fill-rule:nonzero;stroke:none;font-family:Arial;-inkscape-font-specification:ArialMT">data</tspan>
        <tspan
           id="tspan3133"
           sodipodi:role="line"
           y="11.590171"
           x="-5.8865104 -3.2022927 -2.133733 0.27959594 1.6190443 3.2245443 4.2931037 6.9773216 9.6615391 11.000988 12.069548 14.753765"
           style="font-size:4.83729982px;font-variant:normal;font-weight:normal;font-stretch:normal;writing-mode:lr-tb;fill:#242424;fill-opacity:1;fill-rule:nonzero;stroke:none;font-family:Arial;-inkscape-font-specification:ArialMT">distribution</tspan>
      </text>
      <g
         transform="translate(147.449,215.965)"
         id="g3135">
        <path
           id="path3137"
           style="fill:#000000;fill-opacity:1;fill-rule:nonzero;stroke:none"
           d="M 0,0 0,-0.091 -0.018,-0.199 -0.054,-0.29 -0.072,-0.399 c -0.86,-1.803 -5.56,-2.488 -7.175,-2.735 l -0.58,-0.073 -0.616,-0.072 -0.616,-0.055 c -2.684,-0.247 -5.39,-0.253 -8.08,-0.108 l -0.652,0.054 -0.634,0.054 c -2.071,0.194 -4.268,0.516 -6.251,1.16 l -0.38,0.145 -0.363,0.127 -0.489,0.217 -0.145,0.091 c -1.06,0.501 -2.032,1.48 -0.96,2.554 l 0.091,0.091 0.108,0.072 c 2.835,1.981 8.327,2.275 11.668,2.41 l 0.707,0.018 1.395,0 1.376,-0.036 0.671,-0.036 C -8.398,3.36 -2.507,2.805 -0.471,0.96 L -0.308,0.797 -0.236,0.707 -0.181,0.616 -0.127,0.507 -0.054,0.326 -0.018,0.217 0,0.127 l 0,-20.6 -0.018,-0.108 -0.036,-0.091 -0.018,-0.109 -0.109,-0.181 c -0.219,-0.418 -0.825,-0.801 -1.232,-1.014 l -0.163,-0.073 -0.145,-0.09 -0.344,-0.145 -0.345,-0.127 -0.398,-0.145 c -5.429,-1.584 -11.244,-1.596 -16.831,-1.033 l -0.598,0.073 -0.562,0.09 c -1.366,0.19 -6.071,0.999 -6.631,2.736 l -0.036,0.109 0,0.09 -0.018,0.109 0,20.382 0.308,0 0,-20.436 0.036,-0.145 c 0.477,-1.559 5.18,-2.382 6.378,-2.555 l 0.561,-0.072 0.58,-0.073 c 5.136,-0.598 11.747,-0.512 16.722,1.015 l 0.381,0.127 0.344,0.145 0.326,0.126 0.29,0.145 c 0.411,0.25 0.859,0.487 1.123,0.906 l 0.073,0.145 0.054,0.218 0,20.599 -0.018,0.072 -0.109,0.218 -0.054,0.072 -0.055,0.091 -0.144,0.145 c -1.973,1.791 -7.804,2.301 -10.327,2.446 l -0.653,0.018 -0.688,0.036 -0.688,0 -0.707,0.018 -0.688,0 -0.689,-0.018 C -18.16,3.139 -24.069,2.738 -26.614,0.906 l -0.091,-0.073 -0.09,-0.09 c -0.952,-0.9 0.071,-1.638 0.869,-2.084 l 0.145,-0.072 0.145,-0.054 0.326,-0.145 0.344,-0.145 c 4.85,-1.618 11.441,-1.722 16.487,-1.214 l 0.616,0.072 0.58,0.073 c 1.433,0.186 6.159,0.925 6.921,2.536 l 0.054,0.218 0,0.09"
           inkscape:connector-curvature="0" />
      </g>
      <text
         id="text3139"
         transform="matrix(1,0,0,-1,102.5903,184.7311)">
        <tspan
           id="tspan3141"
           sodipodi:role="line"
           y="0"
           x="0 3.4857583 6.1685247 7.2356334 8.302742 10.985508 12.052617 14.735383 16.339432 17.645502 20.32827 23.011036 25.693802 27.297852 29.980618 31.318615 34.001381 35.605431 37.00341 38.070518 40.753284 42.091282 44.774048 46.378098 50.400795 53.083561 54.421558 55.488667 58.171436 60.854202"
           style="font-size:4.83729982px;font-variant:normal;font-weight:normal;font-stretch:normal;writing-mode:lr-tb;fill:#242424;fill-opacity:1;fill-rule:nonzero;stroke:none;font-family:Arial;-inkscape-font-specification:ArialMT">Cellular operator information,</tspan>
        <tspan
           id="tspan3143"
           sodipodi:role="line"
           y="5.7950854"
           x="9.5101318 13.268714 15.953416 18.638117 21.322819 22.928802 25.613504 28.298204 30.982906 32.051949 34.465763 37.150463 38.219509 39.525578 43.550213 46.234913 48.919617 51.333427"
           style="font-size:4.83729982px;font-variant:normal;font-weight:normal;font-stretch:normal;writing-mode:lr-tb;fill:#242424;fill-opacity:1;fill-rule:nonzero;stroke:none;font-family:Arial;-inkscape-font-specification:ArialMT">Geographical maps,</tspan>
        <tspan
           id="tspan3145"
           sodipodi:role="line"
           y="11.590171"
           x="27.209812 29.900803 31.247023 33.667126"
           style="font-size:4.83729982px;font-variant:normal;font-weight:normal;font-stretch:normal;writing-mode:lr-tb;fill:#242424;fill-opacity:1;fill-rule:nonzero;stroke:none;font-family:Arial;-inkscape-font-specification:ArialMT">etc.</tspan>
      </text>
      <g
         transform="translate(176.02,256.729)"
         id="g3147">
        <path
           id="path3149"
           style="fill:#000000;fill-opacity:1;fill-rule:nonzero;stroke:none"
           d="m 0,0 c 0,0.091 0.072,0.163 0.145,0.163 l 33.97,0 c 0.09,0 0.163,-0.072 0.163,-0.163 l 0,-22.067 c 0,-0.09 -0.073,-0.163 -0.163,-0.163 l -33.97,0 C 0.072,-22.23 0,-22.157 0,-22.067 L 0,0 z m 0.308,-22.067 -0.163,0.145 33.97,0 -0.145,-0.145 0,22.067 0.145,-0.145 -33.97,0 L 0.308,0"
           inkscape:connector-curvature="0" />
      </g>
      <text
         id="text3151"
         transform="matrix(1,0,0,-1,188.0496,246.801)">
        <tspan
           id="tspan3153"
           sodipodi:role="line"
           y="0"
           x="0 3.4881771 6.1733623 7.5137782"
           style="font-size:4.83729982px;font-variant:normal;font-weight:normal;font-stretch:normal;writing-mode:lr-tb;fill:#242424;fill-opacity:1;fill-rule:nonzero;stroke:none;font-family:Arial;-inkscape-font-specification:ArialMT">Data</tspan>
        <tspan
           id="tspan3155"
           sodipodi:role="line"
           y="5.7950854"
           x="-6.5932398 -3.9061198 -2.2977176 0.38940266 2.805634 5.492754 7.9089856 10.325217 11.396679 14.083799"
           style="font-size:4.83729982px;font-variant:normal;font-weight:normal;font-stretch:normal;writing-mode:lr-tb;fill:#242424;fill-opacity:1;fill-rule:nonzero;stroke:none;font-family:Arial;-inkscape-font-specification:ArialMT">processing</tspan>
      </text>
      <g
         transform="translate(218.777,215.965)"
         id="g3157">
        <path
           id="path3159"
           style="fill:#000000;fill-opacity:1;fill-rule:nonzero;stroke:none"
           d="M 0,0 0,-0.091 -0.018,-0.199 -0.036,-0.29 -0.072,-0.399 c -0.802,-1.79 -5.584,-2.495 -7.157,-2.735 l -1.196,-0.145 c -5.527,-0.447 -11.305,-0.482 -16.631,1.25 l -0.344,0.127 -0.345,0.145 -0.145,0.072 -0.163,0.091 c -1.053,0.505 -2.029,1.494 -0.942,2.554 l 0.091,0.091 0.09,0.072 c 2.492,1.878 8.679,2.346 11.686,2.41 l 0.689,0.018 1.413,0 1.377,-0.036 0.67,-0.036 C -8.444,3.367 -2.436,2.794 -0.471,0.96 L -0.38,0.888 -0.236,0.707 -0.181,0.616 -0.127,0.507 -0.072,0.417 -0.036,0.326 -0.018,0.217 0,0.127 l 0,-20.6 -0.018,-0.108 -0.018,-0.091 -0.036,-0.109 -0.037,-0.09 -0.054,-0.091 c -0.267,-0.419 -0.797,-0.81 -1.25,-1.014 l -0.145,-0.073 -0.163,-0.09 -0.326,-0.145 -0.363,-0.127 -0.38,-0.145 c -5.049,-1.545 -11.637,-1.613 -16.849,-1.033 l -0.58,0.073 -0.58,0.09 c -1.301,0.173 -6.122,1.024 -6.612,2.736 l -0.037,0.109 -0.018,0.09 0,20.491 0.29,0 0,-20.364 0.018,-0.072 0,-0.073 0.018,-0.072 c 0.522,-1.568 5.144,-2.366 6.378,-2.555 l 1.159,-0.145 c 5.122,-0.598 11.744,-0.512 16.704,1.015 l 0.381,0.127 0.344,0.145 0.326,0.126 0.29,0.145 c 0.397,0.218 0.894,0.506 1.123,0.906 l 0.055,0.073 0.018,0.072 0.036,0.073 0.036,0.145 0,20.526 -0.054,0.218 -0.073,0.145 -0.054,0.09 -0.054,0.073 -0.145,0.145 c -2.039,1.803 -7.745,2.289 -10.327,2.446 l -0.671,0.018 -0.67,0.036 -0.688,0 -0.707,0.018 -0.688,0 -0.689,-0.018 c -3.084,-0.108 -8.9,-0.501 -11.504,-2.337 l -0.091,-0.073 -0.072,-0.09 c -0.966,-0.892 0.054,-1.643 0.869,-2.084 l 0.145,-0.072 0.145,-0.054 0.326,-0.145 0.344,-0.145 c 5.29,-1.67 11.008,-1.696 16.487,-1.214 l 0.598,0.072 0.58,0.073 c 1.342,0.154 6.266,0.965 6.921,2.536 l 0.036,0.073 0.036,0.145 0,0.09"
           inkscape:connector-curvature="0" />
      </g>
      <text
         id="text3161"
         transform="matrix(1,0,0,-1,190.6766,184.097)">
        <tspan
           id="tspan3163"
           sodipodi:role="line"
           y="0"
           x="0 3.7634194 5.1081886 7.7977276 10.487267 12.098087 13.476718 15.895368 18.584908 21.274445 22.885265 25.303917 27.993456 30.412106"
           style="font-size:4.83729982px;font-variant:normal;font-weight:normal;font-stretch:normal;writing-mode:lr-tb;fill:#242424;fill-opacity:1;fill-rule:nonzero;stroke:none;font-family:Arial;-inkscape-font-specification:ArialMT">Other sources</tspan>
        <tspan
           id="tspan3165"
           sodipodi:role="line"
           y="5.7950854"
           x="-10.288938 -8.6805353 -7.3381839 -4.6510639 -2.2348325 -1.1633706 1.2528607 2.5952115 3.9559438 6.643064 9.330184 12.017304 13.088766 14.160229 16.57646 17.883982 19.226332 20.834734 23.521854 26.208975 28.625206 31.312326 33.999447 35.607849 36.950199 39.366432 40.708782"
           style="font-size:4.83729982px;font-variant:normal;font-weight:normal;font-stretch:normal;writing-mode:lr-tb;fill:#242424;fill-opacity:1;fill-rule:nonzero;stroke:none;font-family:Arial;-inkscape-font-specification:ArialMT">(taxis, public transports,</tspan>
        <tspan
           id="tspan3167"
           sodipodi:role="line"
           y="11.590171"
           x="5.0404668 7.4596004 9.8787336 11.223988 13.289998 14.631381 15.973732 18.663755 20.009008 22.428141 23.773394"
           style="font-size:4.83729982px;font-variant:normal;font-weight:normal;font-stretch:normal;writing-mode:lr-tb;fill:#242424;fill-opacity:1;fill-rule:nonzero;stroke:none;font-family:Arial;-inkscape-font-specification:ArialMT">cctv, etc.)</tspan>
      </text>
      <g
         transform="translate(210.135,245.841)"
         id="g3169">
        <path
           id="path3171"
           style="fill:#000000;fill-opacity:1;fill-rule:nonzero;stroke:none"
           d="m 0,0 15.001,-0.036 0,-0.29 L 0,-0.29 0,0 z m 13.262,1.015 2.029,-1.196 -2.029,-1.178 c -0.073,-0.054 -0.163,-0.018 -0.218,0.055 -0.036,0.072 -0.018,0.163 0.055,0.199 l 1.812,1.051 0,-0.254 -1.794,1.051 c -0.073,0.054 -0.109,0.145 -0.054,0.217 0.036,0.073 0.126,0.091 0.199,0.055"
           inkscape:connector-curvature="0" />
      </g>
      <g
         transform="translate(133.553,215.965)"
         id="g3173">
        <path
           id="path3175"
           style="fill:#000000;fill-opacity:1;fill-rule:nonzero;stroke:none"
           d="m 0,0 0,9.349 c 0,0.09 0.072,0.144 0.163,0.144 l 10.182,0 -0.145,-0.144 0,9.04 0.29,0 0,-9.04 c 0,-0.091 -0.054,-0.145 -0.145,-0.145 L 0.163,9.204 0.308,9.349 0.308,0 0,0 z m 9.167,16.65 1.178,2.047 1.196,-2.047 c 0.036,-0.073 0.018,-0.163 -0.055,-0.199 -0.072,-0.037 -0.163,-0.019 -0.217,0.054 l -1.051,1.812 0.254,0 -1.051,-1.812 C 9.385,16.432 9.294,16.414 9.222,16.451 9.149,16.487 9.113,16.577 9.167,16.65"
           inkscape:connector-curvature="0" />
      </g>
      <g
         transform="translate(204.373,215.585)"
         id="g3177">
        <path
           id="path3179"
           style="fill:#000000;fill-opacity:1;fill-rule:nonzero;stroke:none"
           d="m 0,0 0,9.53 0.163,-0.145 -11.378,0 c -0.09,0 -0.145,0.072 -0.145,0.145 l 0,9.24 0.29,0 0,-9.24 -0.145,0.163 11.378,0 C 0.236,9.693 0.308,9.62 0.308,9.53 L 0.308,0 0,0 z m -12.41,17.03 1.195,2.047 1.178,-2.047 c 0.054,-0.072 0.018,-0.163 -0.054,-0.199 -0.073,-0.036 -0.163,-0.018 -0.2,0.054 l -1.05,1.812 0.253,0 -1.051,-1.812 c -0.054,-0.072 -0.145,-0.09 -0.217,-0.054 -0.072,0.036 -0.091,0.127 -0.054,0.199"
           inkscape:connector-curvature="0" />
      </g>
    </g>
  </g>
</svg>
